<svg fill="none" height="200" viewBox="0 0 1400 200" width="1400" xmlns="http://www.w3.org/2000/svg" xmlns:xlink="http://www.w3.org/1999/xlink"><linearGradient id="a" gradientUnits="userSpaceOnUse" x1="659.918" x2="673.055" y1="41.7518" y2="18.6678"><stop offset="0" stop-color="#9fef53"/><stop offset="1" stop-color="#54f4b2"/></linearGradient><clipPath id="b"><path d="m0 0h1400v200h-1400z"/></clipPath><clipPath id="c"><path d="m650 16h100v29h-100z"/></clipPath><mask id="d" height="29" maskUnits="userSpaceOnUse" width="100" x="650" y="16"><path d="m750 16h-100v29h100z" fill="#fff"/></mask><g clip-path="url(#b)"><path d="m0 0h1400v200h-1400z" fill="#151c24"/><rect fill="#222e3c" height="50" rx="10" width="50" x="571" y="145"/><rect fill="#fff" height="40" rx="6" width="40" x="576" y="150"/><path d="m587.2 175.8v4.2h-4.2v-4.2z" stroke="#395370" stroke-width="2"/><path d="m598.4 160v4.2h-4.2v-4.2z" stroke="#395370" stroke-width="2"/><path d="m598.4 175.8v4.2h-4.2v-4.2z" stroke="#395370" stroke-width="2"/><path d="m599.992 170.042-3.829 5.158m3.829-5.158-3.829-5.242m3.829 5.242h-11.162m11.162 0h4.408m-15.57 0-3.83 5.158m3.83-5.158-3.83-5.242" stroke="#395370" stroke-linecap="round" stroke-width="2"/><path d="m587.2 160v4.2h-4.2v-4.2z" stroke="#9cef54" stroke-width="2"/><path d="m609.6 172h-4.2v-4.2h4.2z" stroke="#9cef54" stroke-width="2"/><rect fill="#222e3c" height="50" rx="10" width="50" x="879" y="124"/><rect fill="#222e3c" height="50" rx="10" width="50" x="531" y="28"/><rect fill="#222e3c" height="50" rx="10" width="50" x="481" y="88"/><rect fill="#222e3c" height="50" rx="10" width="50" x="794" y="135"/><rect fill="#222e3c" height="50" rx="10" width="50" x="810" y="29"/><rect fill="#222e3c" height="50" rx="10" width="50" x="900" y="52"/><rect fill="#fff" height="40" rx="6" width="40" x="536" y="33"/><path d="m543 40v26c0 .1105.09.2.2.2h26" stroke="#395370" stroke-linecap="round" stroke-width="2"/><path d="m565.2 44.2v17.2" stroke="#9cef54" stroke-linecap="round" stroke-width="2"/><path d="m559.4 54.6v6.8" stroke="#395370" stroke-linecap="round" stroke-width="2"/><path d="m553.6 52.2v9.2" stroke="#9cef54" stroke-linecap="round" stroke-width="2"/><path d="m547.8 58.8v2.6" stroke="#395370" stroke-linecap="round" stroke-width="2"/><rect fill="#fff" height="40" rx="6" width="40" x="815" y="34"/><path d="m822 41v26c0 .1105.09.2.2.2h26" stroke="#395370" stroke-linecap="round" stroke-width="2"/><circle cx="827.2" cy="47.8" fill="#9cef54" r="1.4"/><circle cx="846" cy="43.6" fill="#395370" r="1"/><circle cx="840.6" cy="50" fill="#395370" r="1.6"/><circle cx="827.6" cy="58.8" fill="#395370" r="1.2"/><circle cx="837.4" cy="44.4" fill="#9cef54" r="1.6"/><circle cx="843.2" cy="57.2001" fill="#9cef54" r="2.4"/><circle cx="836.6" cy="61" fill="#395370" r="1.6"/><circle cx="833.4" cy="53.2" fill="#395370" r="1.6"/><rect fill="#fff" height="40" rx="6" width="40" x="884" y="129"/><path d="m902 160.957c-2.206-.182-4.242-.958-5.948-2.172-3.06-2.177-5.052-5.748-5.052-9.785 0-6.291 4.841-11.45 11-11.958z" stroke="#395370" stroke-width="2"/><path d="m916.958 151c-.39 4.727-3.521 8.681-7.804 10.262-.995.367-2.053.604-3.154.695v-10.957z" stroke="#395370" stroke-width="2"/><path d="m906 136.042c5.829.48 10.477 5.129 10.957 10.958h-10.957z" stroke="#9cef54" stroke-width="2"/><g clip-path="url(#c)"><g mask="url(#d)"><path d="m664.5 44.9998c-.982.0003-1.961-.0985-2.922-.2946-.933-.1911-1.845-.4741-2.722-.8449-.862-.3651-1.687-.8128-2.463-1.3369-.77-.5206-1.489-1.1134-2.146-1.7706-.657-.6573-1.25-1.3759-1.771-2.1459-.524-.7759-.972-1.6007-1.337-2.4629-.37-.8772-.654-1.7889-.845-2.7218-.196-.9618-.294-1.9409-.294-2.9225s.098-1.9606.295-2.9224c.191-.933.474-1.8447.845-2.7219.365-.8623.812-1.6872 1.337-2.4631.52-.7701 1.113-1.4886 1.77-2.1459.658-.6571 1.376-1.2499 2.146-1.7706.776-.5241 1.601-.9718 2.463-1.3369.877-.3708 1.789-.6538 2.722-.845.962-.196 1.94-.2947 2.922-.2944.981-.0002 1.96.0985 2.922.2946.933.1912 1.845.4742 2.722.8449.862.3651 1.687.8128 2.463 1.337.77.5206 1.488 1.1135 2.146 1.7706.657.6573 1.25 1.3758 1.77 2.1458.524.776.972 1.6009 1.337 2.4631.371.8772.654 1.789.845 2.722.196.9617.295 1.9407.295 2.9222s-.099 1.9605-.295 2.9221c-.191.933-.474 1.8447-.845 2.7219-.365.8622-.813 1.687-1.337 2.4628-.52.7701-1.113 1.4887-1.77 2.146-.658.6571-1.376 1.25-2.146 1.7705-.776.5242-1.601.9719-2.464 1.337-.877.3708-1.788.6538-2.721.8449-.962.1962-1.941.295-2.922.2949zm0-20.0164c-.738-.0014-1.468.1461-2.147.4336-.656.2768-1.251.6783-1.754 1.1821-.504.5026-.905 1.098-1.182 1.7535-.287.6794-.435 1.4098-.434 2.1474-.001.7376.147 1.4679.434 2.1472.277.6555.678 1.2509 1.182 1.7535.503.5038 1.098.9053 1.754 1.1822.679.2875 1.409.4349 2.147.4335.738.0014 1.468-.146 2.147-.4335.656-.2769 1.251-.6785 1.754-1.1822.504-.5025.905-1.098 1.182-1.7535.287-.6793.435-1.4096.433-2.1472.002-.7376-.146-1.468-.433-2.1474-.277-.6556-.678-1.251-1.182-1.7535-.503-.5038-1.098-.9053-1.754-1.1821-.679-.2876-1.409-.4349-2.147-.4336z" fill="url(#a)"/><path d="m687.889 34.2344c-.965-.8994-1.447-2.0463-1.447-3.441 0-1.3946.482-2.5318 1.447-3.4116.946-.8728 2.193-1.3457 3.48-1.3197.743-.0057 1.477.1547 2.15.4693.646.2973 1.209.7468 1.643 1.3099l-1.897 1.4272c-.443-.5996-1.075-.8994-1.896-.8994-.663-.0103-1.306.2306-1.799.6745-.249.217-.446.4865-.578.7891s-.195.6308-.184.9607c-.008.3354.055.6686.187.9772.131.3085.328.5854.575.8117.482.4654 1.129.7219 1.799.7136.821 0 1.453-.3062 1.896-.9189l1.916 1.4077c-.431.5742-.999 1.0313-1.652 1.3295-.677.314-1.414.4742-2.16.4692-1.292.0246-2.542-.46-3.48-1.349zm11.867-7.9767v9.1302h-2.366v-9.1302zm-2.268-2.5025c-.144-.1313-.258-.2915-.336-.4701-.077-.1786-.116-.3715-.114-.5662-.003-.1927.037-.3839.116-.5597.08-.1757.197-.3317.344-.4569.296-.2699.684-.4167 1.085-.4105.395-.0085.778.139 1.065.4105.142.1281.255.2852.331.4606s.113.365.109.556c.003.1925-.034.3834-.11.5603s-.188.3357-.33.4662c-.141.1371-.307.2448-.49.3169-.183.0722-.379.1073-.575.1034-.404.0098-.797-.1373-1.095-.4105zm7.546 8.4068v3.2259h-2.385v-9.1302h2.385v2.1505c.222-.782.568-1.3685 1.036-1.7595.428-.3752.976-.5836 1.545-.5866.521-.0147 1.039.0995 1.505.3324l-.41 2.1506c-.44-.1812-.913-.2679-1.388-.2542-1.525 0-2.288 1.2904-2.288 3.8711zm6.511 2.0724c-.965-.8994-1.447-2.0463-1.447-3.441 0-1.3946.482-2.5318 1.447-3.4116.946-.8728 2.192-1.3457 3.479-1.3197.744-.0057 1.478.1547 2.151.4693.645.2973 1.209.7468 1.642 1.3099l-1.896 1.4272c-.443-.5996-1.075-.8994-1.897-.8994-.663-.0103-1.305.2306-1.798.6745-.249.217-.446.4865-.578.7891s-.195.6308-.184.9607c-.009.3354.055.6686.187.9772.131.3085.328.5854.575.8117.482.4654 1.129.7219 1.798.7136.822 0 1.454-.3062 1.897-.9189l1.916 1.4077c-.431.5742-.999 1.0313-1.652 1.3295-.677.314-1.415.4742-2.161.4692-1.292.0246-2.541-.46-3.479-1.349zm15.503-3.1086v-4.8681h2.385v9.1302h-2.385v-1.2904c-.244.4654-.622.8468-1.085 1.0949-.438.2505-.932.385-1.437.391-1.108 0-1.984-.3389-2.63-1.0167-.644-.6777-.967-1.6488-.967-2.913v-5.396h2.404v4.9659c0 .6907.17 1.2023.509 1.5347.161.1618.353.2894.565.3751.211.0856.438.1276.666.1234.519.0156 1.023-.17 1.408-.518.378-.3455.567-.8831.567-1.613zm5.279 4.2621v-14.0961h2.385v14.0961zm13.743-9.1302-5.65 13.5878h-2.522l2.092-5.1615-3.558-8.4263h2.542l2.268 5.6893 2.287-5.6893zm1.291 8.8956c-.145-.1344-.26-.298-.338-.4799-.077-.1819-.116-.3782-.112-.5759-.004-.1977.035-.394.112-.5759.078-.1819.193-.3455.338-.4798.142-.1393.31-.2491.494-.3229.185-.0739.382-.1103.581-.1072.409-.0082.805.1425 1.105.4203.149.1337.267.2982.346.4822.08.184.118.383.113.5833.005.2003-.033.3994-.113.5834-.079.184-.197.3485-.346.4822-.3.2777-.696.4284-1.105.4203-.199.0031-.396-.0334-.581-.1072-.184-.0738-.352-.1836-.494-.3229z" fill="#fff"/></g></g><path d="m603.655 87.9824h3.174c-.101 1.2103-.44 2.2894-1.016 3.2373-.575.9395-1.383 1.68-2.424 2.2217s-2.307.8125-3.796.8125c-1.143 0-2.171-.2031-3.085-.6094-.914-.4147-1.697-.9987-2.349-1.7519-.652-.7617-1.151-1.68-1.498-2.7549-.338-1.0749-.508-2.2767-.508-3.6055v-1.5361c0-1.3288.174-2.5306.521-3.6055.355-1.0748.863-1.9931 1.523-2.7549.66-.7701 1.452-1.3584 2.374-1.7646.931-.4063 1.977-.6094 3.136-.6094 1.473 0 2.717.2709 3.732.8125 1.016.5417 1.803 1.2907 2.362 2.2471.567.9564.914 2.0524 1.041 3.2881h-3.174c-.085-.7956-.271-1.4769-.559-2.044-.279-.567-.694-.9987-1.244-1.2949-.55-.3047-1.269-.457-2.158-.457-.728 0-1.363.1354-1.904.4062-.542.2709-.995.6686-1.359 1.1934-.364.5247-.639 1.1722-.825 1.9424-.178.7617-.266 1.6334-.266 2.6152v1.5615c0 .931.08 1.7774.241 2.5391.169.7532.423 1.4007.761 1.9424.347.5416.788.9606 1.321 1.2568s1.172.4443 1.917.4443c.905 0 1.637-.1438 2.196-.4316.567-.2878.995-.7067 1.282-1.2568.297-.5586.491-1.2399.584-2.044zm14.029 2.7803v-10.499h3.072v13.7363h-2.895zm.431-2.8565 1.029-.0253c0 .9225-.102 1.7731-.305 2.5517-.203.7702-.516 1.4431-.94 2.0186-.423.567-.964 1.0114-1.625 1.333-.66.3131-1.451.4697-2.374.4697-.668 0-1.282-.0973-1.84-.292-.559-.1946-1.041-.4951-1.448-.9014-.397-.4062-.706-.9352-.926-1.5869-.221-.6517-.331-1.4303-.331-2.3359v-8.874h3.06v8.8994c0 .4993.059.9183.178 1.2568.118.3301.279.5967.482.7998.203.2032.44.347.711.4317.271.0846.559.1269.863.1269.872 0 1.558-.1693 2.057-.5078.508-.347.868-.8125 1.079-1.3965.22-.584.33-1.2399.33-1.9678zm13.483 2.3741c0-.3047-.077-.5798-.229-.8252-.152-.2539-.444-.4824-.876-.6856-.423-.2031-1.049-.3893-1.879-.5586-.728-.1608-1.396-.3512-2.006-.5713-.601-.2285-1.117-.5035-1.548-.8251-.432-.3217-.766-.7025-1.003-1.1426s-.356-.9479-.356-1.5235c0-.5586.123-1.0875.368-1.5869.246-.4993.597-.9394 1.054-1.3203.457-.3808 1.011-.6813 1.663-.9014.66-.22 1.397-.33 2.209-.33 1.151 0 2.137.1946 2.958.584.83.3808 1.464.9013 1.904 1.5615.441.6517.661 1.388.661 2.209h-3.06c0-.364-.093-.7025-.279-1.0157-.178-.3216-.449-.5797-.813-.7744-.364-.2031-.821-.3047-1.371-.3047-.525 0-.96.0847-1.307.2539-.339.1608-.593.3724-.762.6348-.161.2624-.241.5501-.241.8633 0 .2285.042.4359.127.6221.093.1777.245.3427.457.4951.211.1439.499.2793.863.4062.372.127.838.2497 1.396.3682 1.05.22 1.951.5036 2.704.8506.762.3385 1.346.7786 1.752 1.3203.407.5332.61 1.2103.61 2.0312 0 .6094-.131 1.168-.394 1.6758-.254.4994-.626.9352-1.117 1.3076-.491.364-1.079.6475-1.765.8506-.677.2031-1.438.3047-2.285.3047-1.244 0-2.298-.22-3.161-.6601-.863-.4486-1.519-1.0199-1.968-1.7139-.44-.7025-.66-1.4304-.66-2.1836h2.958c.034.567.191 1.0198.47 1.3584.288.3301.643.5713 1.066.7236.432.1439.876.2158 1.333.2158.55 0 1.012-.0719 1.384-.2158.372-.1523.656-.3554.851-.6094.194-.2623.292-.5585.292-.8886zm11.971-10.0166v2.2343h-7.744v-2.2343zm-5.509-3.3643h3.059v13.3047c0 .4232.059.749.178.9775.127.2201.3.3682.52.4444.22.0761.479.1142.775.1142.211 0 .415-.0127.609-.0381.195-.0253.351-.0507.47-.0761l.013 2.3359c-.254.0762-.551.1439-.889.2031-.33.0593-.711.0889-1.143.0889-.702 0-1.324-.1227-1.866-.3682-.542-.2539-.965-.6643-1.269-1.2314-.305-.5671-.457-1.3203-.457-2.2598zm6.982 10.3848v-.292c0-.9902.144-1.9085.432-2.7549.287-.8548.702-1.5954 1.244-2.2217.55-.6347 1.219-1.1256 2.006-1.4726.795-.3555 1.692-.5332 2.691-.5332 1.007 0 1.904.1777 2.691.5332.796.347 1.469.8379 2.019 1.4726.55.6263.969 1.3669 1.257 2.2217.288.8464.431 1.7647.431 2.7549v.292c0 .9902-.143 1.9085-.431 2.7549-.288.8463-.707 1.5869-1.257 2.2216-.55.6263-1.219 1.1172-2.006 1.4727-.787.347-1.68.5205-2.679.5205-1.007 0-1.908-.1735-2.704-.5205-.787-.3555-1.455-.8464-2.006-1.4727-.55-.6347-.969-1.3753-1.256-2.2216-.288-.8464-.432-1.7647-.432-2.7549zm3.06-.292v.292c0 .6178.063 1.2018.19 1.7519.127.5502.326 1.0326.597 1.4473s.618.7406 1.041.9775c.423.237.926.3555 1.51.3555.567 0 1.058-.1185 1.473-.3555.423-.2369.77-.5628 1.041-.9775s.47-.8971.597-1.4473c.135-.5501.203-1.1341.203-1.7519v-.292c0-.6094-.068-1.1849-.203-1.7266-.127-.5501-.33-1.0368-.61-1.4599-.27-.4232-.617-.7533-1.041-.9903-.414-.2454-.909-.3681-1.485-.3681-.575 0-1.075.1227-1.498.3681-.415.237-.757.5671-1.028.9903-.271.4231-.47.9098-.597 1.4599-.127.5417-.19 1.1172-.19 1.7266zm15.336-3.9356v10.9434h-3.06v-13.7363h2.882zm-.496 3.5674-1.041-.0127c0-.9479.119-1.8239.356-2.6279s.584-1.5023 1.041-2.0947c.457-.6009 1.024-1.0622 1.701-1.3838.686-.3301 1.477-.4951 2.374-.4951.626 0 1.198.0931 1.714.2793.525.1777.977.4612 1.358.8505.39.3894.686.8887.889 1.4981.212.6094.317 1.3457.317 2.209v9.1533h-3.059v-8.8867c0-.6686-.102-1.1934-.305-1.5742-.195-.3809-.478-.6517-.85-.8125-.364-.1693-.8-.2539-1.308-.2539-.576 0-1.067.11-1.473.33-.398.2201-.723.5205-.977.9014s-.44.821-.559 1.3203c-.118.4994-.178 1.0326-.178 1.5996zm8.519-.8125-1.435.3174c0-.8294.115-1.6123.343-2.3486.237-.7448.58-1.3965 1.028-1.9551.457-.5671 1.02-1.0114 1.689-1.333s1.435-.4824 2.298-.4824c.702 0 1.329.0973 1.879.292.558.1862 1.032.4824 1.422.8886.389.4063.685.9353.888 1.5869.203.6433.305 1.4219.305 2.336v8.8867h-3.072v-8.8994c0-.694-.102-1.2315-.305-1.6123-.195-.3809-.474-.6432-.838-.7871-.364-.1524-.8-.2285-1.308-.2285-.473 0-.892.0888-1.256.2666-.356.1692-.656.4104-.902.7236-.245.3047-.431.6559-.558 1.0537-.119.3978-.178.8294-.178 1.2949zm17.621 8.4424c-1.016 0-1.934-.165-2.755-.4951-.812-.3386-1.506-.8083-2.082-1.4092-.567-.6009-1.003-1.3076-1.307-2.1201-.305-.8125-.458-1.6885-.458-2.6279v-.5078c0-1.0749.157-2.0482.47-2.92.313-.8717.749-1.6165 1.308-2.2343.558-.6263 1.219-1.1045 1.98-1.4346.762-.3301 1.587-.4951 2.476-.4951.982 0 1.841.165 2.577.4951s1.346.7956 1.828 1.3965c.491.5924.855 1.2991 1.092 2.1201.245.8209.368 1.7265.368 2.7168v1.3076h-10.613v-2.1963h7.592v-.2412c-.017-.5501-.127-1.0664-.33-1.5488-.195-.4825-.496-.8718-.902-1.168s-.948-.4443-1.625-.4443c-.508 0-.96.11-1.358.33-.39.2116-.715.5206-.978.9268-.262.4063-.465.8971-.609 1.4727-.136.567-.203 1.206-.203 1.917v.5078c0 .6009.08 1.1595.241 1.6757.169.5079.415.9522.736 1.3331.322.3808.711.6813 1.168.9013.457.2116.978.3174 1.562.3174.736 0 1.392-.1481 1.968-.4443.575-.2963 1.074-.7152 1.498-1.2569l1.612 1.5616c-.296.4316-.681.8463-1.155 1.2441-.474.3893-1.054.7067-1.74.9521-.677.2455-1.464.3682-2.361.3682zm10.956-11.375v11.1211h-3.059v-13.7363h2.919zm4.202-2.7041-.025 2.8438c-.186-.0339-.389-.0593-.61-.0762-.211-.0169-.423-.0254-.634-.0254-.525 0-.986.0762-1.384.2285-.398.1439-.732.3555-1.003.6348-.262.2708-.466.6009-.609.9902-.144.3893-.229.8252-.254 1.3076l-.699.0508c0-.8633.085-1.6631.254-2.3994.17-.7363.424-1.3838.762-1.9424.347-.5586.779-.9945 1.295-1.3076.525-.3132 1.13-.4697 1.815-.4697.187 0 .386.0169.597.0507.22.0339.385.072.495.1143zm18.421 9.0645c0-.3809-.059-.7194-.178-1.0157-.11-.2962-.309-.567-.596-.8125-.288-.2454-.694-.4824-1.219-.7109-.516-.237-1.176-.4782-1.98-.7236-.881-.2709-1.693-.5713-2.438-.9014-.736-.3385-1.38-.7279-1.93-1.168-.55-.4485-.977-.9606-1.282-1.5361-.305-.584-.457-1.2568-.457-2.0186 0-.7532.157-1.4388.47-2.0566.321-.6178.774-1.151 1.358-1.5996.593-.457 1.291-.8083 2.095-1.0537.804-.2539 1.693-.3809 2.666-.3809 1.371 0 2.552.2539 3.542.7617.999.5078 1.765 1.1892 2.298 2.044.541.8548.812 1.7985.812 2.831h-3.161c0-.6093-.131-1.1468-.393-1.6123-.254-.4739-.644-.8463-1.168-1.1172-.517-.2708-1.173-.4062-1.968-.4062-.753 0-1.38.1143-1.879.3428s-.872.5374-1.117.9267c-.246.3893-.368.8295-.368 1.3203 0 .347.08.6644.241.9522.161.2793.406.5417.736.7871.33.237.745.4613 1.244.6728.5.2116 1.088.4148 1.765.6094 1.024.3047 1.917.6433 2.679 1.0156.761.364 1.396.7787 1.904 1.2442s.889.9945 1.142 1.5869c.254.584.381 1.2484.381 1.9932 0 .7786-.156 1.4811-.469 2.1074-.314.6178-.762 1.1468-1.346 1.5869-.576.4316-1.27.766-2.082 1.0029-.804.2285-1.701.3428-2.692.3428-.888 0-1.764-.1185-2.627-.3555-.855-.2369-1.634-.5966-2.336-1.0791-.703-.4908-1.261-1.1002-1.676-1.8281-.415-.7363-.622-1.5954-.622-2.5771h3.186c0 .6009.102 1.1129.305 1.5361.212.4232.504.7702.876 1.041.372.2624.804.457 1.295.584.499.1269 1.032.1904 1.599.1904.745 0 1.367-.1058 1.867-.3174.508-.2115.888-.5078 1.142-.8886.254-.3809.381-.821.381-1.3203zm13.978 1.5234v-10.499h3.072v13.7363h-2.895zm.431-2.8565 1.029-.0253c0 .9225-.102 1.7731-.305 2.5517-.203.7702-.516 1.4431-.94 2.0186-.423.567-.964 1.0114-1.625 1.333-.66.3131-1.451.4697-2.374.4697-.668 0-1.282-.0973-1.84-.292-.559-.1946-1.041-.4951-1.448-.9014-.397-.4062-.706-.9352-.926-1.5869s-.33-1.4303-.33-2.3359v-8.874h3.059v8.8994c0 .4993.059.9183.178 1.2568.118.3301.279.5967.482.7998.203.2032.44.347.711.4317.271.0846.559.1269.863.1269.872 0 1.558-.1693 2.057-.5078.508-.347.868-.8125 1.079-1.3965.22-.584.33-1.2399.33-1.9678zm11.388 3.9102c.499 0 .948-.0973 1.346-.292.406-.2031.732-.4824.977-.8379.254-.3554.394-.7659.419-1.2314h2.882c-.017.8887-.279 1.6969-.787 2.4248-.508.7278-1.181 1.3076-2.019 1.7392-.838.4232-1.764.6348-2.78.6348-1.049 0-1.963-.1777-2.742-.5332-.779-.3639-1.426-.8633-1.942-1.498-.517-.6348-.906-1.3669-1.168-2.1963-.254-.8295-.381-1.7181-.381-2.666v-.4444c0-.9479.127-1.8366.381-2.666.262-.8379.651-1.5742 1.168-2.209.516-.6348 1.163-1.1299 1.942-1.4853.779-.364 1.688-.5459 2.729-.5459 1.101 0 2.066.22 2.895.6601.829.4317 1.481 1.0368 1.955 1.8155.482.7701.732 1.6673.749 2.6914h-2.882c-.025-.5079-.152-.9649-.381-1.3711-.22-.4147-.533-.7448-.939-.9903-.398-.2454-.876-.3681-1.435-.3681-.618 0-1.13.1269-1.536.3808-.406.2455-.723.584-.952 1.0157-.228.4231-.394.9013-.495 1.4345-.093.5248-.14 1.0707-.14 1.6377v.4444c0 .567.047 1.1171.14 1.6503s.254 1.0114.482 1.4346c.237.4147.559.749.965 1.0029.406.2455.923.3682 1.549.3682zm13.584 0c.499 0 .948-.0973 1.346-.292.406-.2031.732-.4824.977-.8379.254-.3554.394-.7659.419-1.2314h2.882c-.017.8887-.279 1.6969-.787 2.4248-.508.7278-1.181 1.3076-2.019 1.7392-.838.4232-1.764.6348-2.78.6348-1.049 0-1.963-.1777-2.742-.5332-.779-.3639-1.426-.8633-1.942-1.498-.517-.6348-.906-1.3669-1.168-2.1963-.254-.8295-.381-1.7181-.381-2.666v-.4444c0-.9479.127-1.8366.381-2.666.262-.8379.651-1.5742 1.168-2.209.516-.6348 1.163-1.1299 1.942-1.4853.779-.364 1.688-.5459 2.729-.5459 1.101 0 2.065.22 2.895.6601.829.4317 1.481 1.0368 1.955 1.8155.482.7701.732 1.6673.749 2.6914h-2.882c-.025-.5079-.152-.9649-.381-1.3711-.22-.4147-.533-.7448-.939-.9903-.398-.2454-.876-.3681-1.435-.3681-.618 0-1.13.1269-1.536.3808-.406.2455-.723.584-.952 1.0157-.229.4231-.394.9013-.495 1.4345-.093.5248-.14 1.0707-.14 1.6377v.4444c0 .567.047 1.1171.14 1.6503s.254 1.0114.482 1.4346c.237.4147.559.749.965 1.0029.406.2455.923.3682 1.549.3682zm14.028 2.4375c-1.015 0-1.934-.165-2.755-.4951-.812-.3386-1.506-.8083-2.082-1.4092-.567-.6009-1.003-1.3076-1.307-2.1201-.305-.8125-.457-1.6885-.457-2.6279v-.5078c0-1.0749.156-2.0482.469-2.92.314-.8717.75-1.6165 1.308-2.2343.559-.6263 1.219-1.1045 1.981-1.4346.761-.3301 1.586-.4951 2.475-.4951.982 0 1.841.165 2.577.4951.737.3301 1.346.7956 1.828 1.3965.491.5924.855 1.2991 1.092 2.1201.246.8209.368 1.7265.368 2.7168v1.3076h-10.613v-2.1963h7.592v-.2412c-.017-.5501-.127-1.0664-.33-1.5488-.195-.4825-.495-.8718-.902-1.168-.406-.2962-.947-.4443-1.625-.4443-.507 0-.96.11-1.358.33-.389.2116-.715.5206-.977.9268-.263.4063-.466.8971-.61 1.4727-.135.567-.203 1.206-.203 1.917v.5078c0 .6009.08 1.1595.241 1.6757.169.5079.415.9522.737 1.3331.321.3808.71.6813 1.168.9013.457.2116.977.3174 1.561.3174.736 0 1.392-.1481 1.968-.4443.575-.2963 1.075-.7152 1.498-1.2569l1.612 1.5616c-.296.4316-.681.8463-1.155 1.2441-.474.3893-1.054.7067-1.739.9521-.677.2455-1.465.3682-2.362.3682zm15.59-3.9736c0-.3047-.076-.5798-.228-.8252-.153-.2539-.445-.4824-.876-.6856-.424-.2031-1.05-.3893-1.879-.5586-.728-.1608-1.397-.3512-2.006-.5713-.601-.2285-1.117-.5035-1.549-.8251-.432-.3217-.766-.7025-1.003-1.1426s-.355-.9479-.355-1.5235c0-.5586.122-1.0875.368-1.5869.245-.4993.597-.9394 1.054-1.3203.457-.3808 1.011-.6813 1.663-.9014.66-.22 1.396-.33 2.209-.33 1.151 0 2.137.1946 2.958.584.829.3808 1.464.9013 1.904 1.5615.44.6517.66 1.388.66 2.209h-3.059c0-.364-.094-.7025-.28-1.0157-.178-.3216-.448-.5797-.812-.7744-.364-.2031-.821-.3047-1.371-.3047-.525 0-.961.0847-1.308.2539-.339.1608-.592.3724-.762.6348-.161.2624-.241.5501-.241.8633 0 .2285.042.4359.127.6221.093.1777.245.3427.457.4951.212.1439.499.2793.863.4062.373.127.838.2497 1.397.3682 1.049.22 1.951.5036 2.704.8506.762.3385 1.346.7786 1.752 1.3203.406.5332.609 1.2103.609 2.0312 0 .6094-.131 1.168-.393 1.6758-.254.4994-.627.9352-1.117 1.3076-.491.364-1.08.6475-1.765.8506-.677.2031-1.439.3047-2.285.3047-1.244 0-2.298-.22-3.161-.6601-.864-.4486-1.52-1.0199-1.968-1.7139-.44-.7025-.66-1.4304-.66-2.1836h2.958c.034.567.19 1.0198.469 1.3584.288.3301.644.5713 1.067.7236.431.1439.876.2158 1.333.2158.55 0 1.011-.0719 1.384-.2158.372-.1523.656-.3554.85-.6094.195-.2623.292-.5585.292-.8886zm13.381 0c0-.3047-.076-.5798-.229-.8252-.152-.2539-.444-.4824-.875-.6856-.424-.2031-1.05-.3893-1.879-.5586-.728-.1608-1.397-.3512-2.006-.5713-.601-.2285-1.117-.5035-1.549-.8251-.432-.3217-.766-.7025-1.003-1.1426s-.355-.9479-.355-1.5235c0-.5586.122-1.0875.368-1.5869.245-.4993.596-.9394 1.053-1.3203.457-.3808 1.012-.6813 1.663-.9014.661-.22 1.397-.33 2.209-.33 1.152 0 2.138.1946 2.958.584.83.3808 1.465.9013 1.905 1.5615.44.6517.66 1.388.66 2.209h-3.06c0-.364-.093-.7025-.279-1.0157-.178-.3216-.448-.5797-.812-.7744-.364-.2031-.821-.3047-1.372-.3047-.524 0-.96.0847-1.307.2539-.339.1608-.593.3724-.762.6348-.161.2624-.241.5501-.241.8633 0 .2285.042.4359.127.6221.093.1777.245.3427.457.4951.212.1439.499.2793.863.4062.373.127.838.2497 1.397.3682 1.049.22 1.951.5036 2.704.8506.762.3385 1.345.7786 1.752 1.3203.406.5332.609 1.2103.609 2.0312 0 .6094-.131 1.168-.393 1.6758-.254.4994-.627.9352-1.118 1.3076-.491.364-1.079.6475-1.764.8506-.677.2031-1.439.3047-2.285.3047-1.245 0-2.298-.22-3.162-.6601-.863-.4486-1.519-1.0199-1.967-1.7139-.44-.7025-.66-1.4304-.66-2.1836h2.958c.033.567.19 1.0198.469 1.3584.288.3301.643.5713 1.067.7236.431.1439.876.2158 1.333.2158.55 0 1.011-.0719 1.383-.2158.373-.1523.656-.3554.851-.6094.195-.2623.292-.5585.292-.8886zm-181.556 33.7197h-3.948l.025-2.526h3.923c1.143 0 2.099-.25 2.869-.749.779-.5 1.363-1.215 1.752-2.146.398-.931.597-2.04.597-3.326v-1.003c0-.999-.114-1.883-.343-2.653-.22-.771-.55-1.418-.99-1.943-.432-.524-.965-.922-1.599-1.193-.627-.271-1.35-.406-2.171-.406h-4.139v-2.539h4.139c1.227 0 2.348.207 3.364.622 1.015.406 1.891.994 2.628 1.764.745.771 1.316 1.693 1.714 2.768.397 1.075.596 2.277.596 3.605v.978c0 1.329-.199 2.531-.596 3.605-.398 1.075-.969 1.998-1.714 2.768-.745.762-1.634 1.35-2.666 1.765-1.024.406-2.171.609-3.441.609zm-2.183-18.484v18.484h-3.187v-18.484zm21.239 15.729v-6.551c0-.491-.089-.914-.267-1.269-.177-.356-.448-.631-.812-.825-.356-.195-.804-.292-1.346-.292-.499 0-.931.084-1.295.254-.364.169-.647.397-.85.685s-.305.614-.305.978h-3.047c0-.542.131-1.067.394-1.575.262-.507.643-.96 1.142-1.358.5-.398 1.096-.711 1.79-.939.694-.229 1.473-.343 2.336-.343 1.033 0 1.947.173 2.742.52.804.347 1.435.872 1.892 1.574.466.695.698 1.566.698 2.616v6.106c0 .626.043 1.189.127 1.689.093.491.225.918.394 1.282v.203h-3.136c-.144-.33-.258-.749-.343-1.257-.076-.516-.114-1.015-.114-1.498zm.444-5.599.026 1.892h-2.197c-.567 0-1.066.055-1.498.165-.431.102-.791.254-1.079.457-.287.203-.503.449-.647.736-.144.288-.216.614-.216.978s.085.698.254 1.003c.169.296.415.529.736.698.33.169.728.254 1.194.254.626 0 1.172-.127 1.637-.381.474-.262.847-.58 1.117-.952.271-.381.415-.74.432-1.079l.99 1.358c-.101.347-.275.72-.52 1.118-.246.397-.567.778-.965 1.142-.389.356-.859.648-1.409.876-.542.229-1.168.343-1.879.343-.897 0-1.697-.178-2.399-.533-.703-.364-1.253-.851-1.651-1.46-.398-.618-.597-1.316-.597-2.095 0-.728.136-1.371.407-1.93.279-.567.685-1.041 1.218-1.422.542-.38 1.202-.668 1.981-.863.779-.203 1.667-.305 2.666-.305zm13.534 4.634c0-.304-.077-.579-.229-.825-.152-.254-.444-.482-.876-.685-.423-.204-1.049-.39-1.879-.559-.728-.161-1.396-.351-2.006-.571-.601-.229-1.117-.504-1.549-.826-.431-.321-.765-.702-1.002-1.142s-.356-.948-.356-1.524c0-.558.123-1.087.368-1.586.246-.5.597-.94 1.054-1.321s1.011-.681 1.663-.901c.66-.22 1.397-.33 2.209-.33 1.151 0 2.137.194 2.958.584.829.381 1.464.901 1.904 1.561.44.652.66 1.388.66 2.209h-3.059c0-.364-.093-.702-.279-1.015-.178-.322-.449-.58-.813-.775-.364-.203-.821-.304-1.371-.304-.525 0-.961.084-1.308.253-.338.161-.592.373-.761.635-.161.263-.242.55-.242.863 0 .229.043.436.127.623.094.177.246.342.457.495.212.144.5.279.864.406.372.127.838.25 1.396.368 1.05.22 1.951.504 2.704.851.762.338 1.346.778 1.752 1.32.407.533.61 1.21.61 2.031 0 .61-.132 1.168-.394 1.676-.254.499-.626.935-1.117 1.308-.491.364-1.079.647-1.765.85-.677.203-1.439.305-2.285.305-1.244 0-2.298-.22-3.161-.66-.863-.449-1.519-1.02-1.968-1.714-.44-.703-.66-1.43-.66-2.184h2.958c.034.567.19 1.02.47 1.359.288.33.643.571 1.066.723.432.144.876.216 1.333.216.55 0 1.012-.072 1.384-.216.372-.152.656-.355.851-.609.194-.262.292-.559.292-.889zm8.696-15.78v19.5h-3.047v-19.5zm-.533 12.124-.991-.013c.009-.948.14-1.824.394-2.628.262-.804.626-1.502 1.092-2.094.474-.601 1.041-1.063 1.701-1.384.66-.33 1.392-.495 2.196-.495.677 0 1.287.093 1.828.279.55.186 1.024.487 1.422.901.398.407.698.94.902 1.6.211.652.317 1.447.317 2.387v8.823h-3.072v-8.849c0-.66-.098-1.185-.292-1.574-.186-.389-.462-.668-.825-.838-.364-.177-.809-.266-1.333-.266-.551 0-1.037.11-1.46.33-.415.22-.762.52-1.041.901-.28.381-.491.821-.635 1.32-.136.5-.203 1.033-.203 1.6zm11.971-12.124h3.06v16.567l-.292 2.933h-2.768zm12.023 12.505v.266c0 1.016-.114 1.951-.343 2.806-.22.847-.559 1.583-1.016 2.209-.448.626-1.007 1.113-1.675 1.46-.661.339-1.427.508-2.298.508-.855 0-1.6-.161-2.235-.483-.634-.321-1.168-.778-1.599-1.371-.423-.592-.766-1.299-1.029-2.12-.262-.821-.448-1.726-.558-2.717v-.85c.11-.999.296-1.904.558-2.717.263-.821.606-1.528 1.029-2.12.431-.601.96-1.062 1.587-1.384.634-.321 1.375-.482 2.221-.482.881 0 1.655.169 2.324.508.677.338 1.24.821 1.688 1.447.449.618.783 1.354 1.003 2.209.229.855.343 1.798.343 2.831zm-3.06.266v-.266c0-.618-.051-1.198-.152-1.739-.102-.551-.271-1.033-.508-1.448-.228-.414-.542-.74-.939-.977-.39-.246-.876-.368-1.46-.368-.542 0-1.008.093-1.397.279s-.715.44-.977.762c-.263.321-.47.694-.622 1.117-.144.423-.242.88-.292 1.371v2.298c.076.635.237 1.219.482 1.752.254.524.609.948 1.066 1.269.457.313 1.046.47 1.765.47.567 0 1.045-.114 1.435-.343.389-.228.698-.546.926-.952.237-.415.407-.897.508-1.447.11-.55.165-1.143.165-1.778zm5.066.013v-.292c0-.99.144-1.908.431-2.755.288-.855.703-1.595 1.244-2.221.551-.635 1.219-1.126 2.006-1.473.796-.355 1.693-.533 2.692-.533 1.007 0 1.904.178 2.691.533.796.347 1.469.838 2.019 1.473.55.626.969 1.366 1.256 2.221.288.847.432 1.765.432 2.755v.292c0 .99-.144 1.909-.432 2.755-.287.846-.706 1.587-1.256 2.222-.55.626-1.219 1.117-2.006 1.472-.787.347-1.68.521-2.679.521-1.007 0-1.908-.174-2.704-.521-.787-.355-1.456-.846-2.006-1.472-.55-.635-.969-1.376-1.257-2.222-.287-.846-.431-1.765-.431-2.755zm3.059-.292v.292c0 .618.064 1.202.191 1.752s.325 1.033.596 1.447c.271.415.618.741 1.041.978.424.237.927.355 1.511.355.567 0 1.058-.118 1.473-.355.423-.237.77-.563 1.041-.978.271-.414.469-.897.596-1.447.136-.55.204-1.134.204-1.752v-.292c0-.609-.068-1.185-.204-1.726-.127-.551-.33-1.037-.609-1.46-.271-.424-.618-.754-1.041-.991-.415-.245-.91-.368-1.485-.368-.576 0-1.075.123-1.498.368-.415.237-.758.567-1.029.991-.271.423-.469.909-.596 1.46-.127.541-.191 1.117-.191 1.726zm20.021 4.253v-6.551c0-.491-.089-.914-.267-1.269-.178-.356-.448-.631-.812-.825-.356-.195-.804-.292-1.346-.292-.499 0-.931.084-1.295.254-.364.169-.647.397-.851.685-.203.288-.304.614-.304.978h-3.047c0-.542.131-1.067.393-1.575.263-.507.644-.96 1.143-1.358s1.096-.711 1.79-.939c.694-.229 1.473-.343 2.336-.343 1.033 0 1.947.173 2.742.52.804.347 1.435.872 1.892 1.574.465.695.698 1.566.698 2.616v6.106c0 .626.042 1.189.127 1.689.093.491.224.918.393 1.282v.203h-3.135c-.144-.33-.258-.749-.343-1.257-.076-.516-.114-1.015-.114-1.498zm.444-5.599.025 1.892h-2.196c-.567 0-1.066.055-1.498.165-.432.102-.791.254-1.079.457s-.504.449-.647.736c-.144.288-.216.614-.216.978s.084.698.254 1.003c.169.296.414.529.736.698.33.169.728.254 1.193.254.627 0 1.173-.127 1.638-.381.474-.262.846-.58 1.117-.952.271-.381.415-.74.432-1.079l.99 1.358c-.101.347-.275.72-.52 1.118-.246.397-.567.778-.965 1.142-.39.356-.859.648-1.409.876-.542.229-1.168.343-1.879.343-.897 0-1.697-.178-2.4-.533-.702-.364-1.252-.851-1.65-1.46-.398-.618-.597-1.316-.597-2.095 0-.728.136-1.371.406-1.93.28-.567.686-1.041 1.219-1.422.542-.38 1.202-.668 1.981-.863.778-.203 1.667-.305 2.666-.305zm8.899-2.767v11.121h-3.059v-13.736h2.92zm4.203-2.704-.026 2.844c-.186-.034-.389-.06-.609-.077-.212-.017-.423-.025-.635-.025-.525 0-.986.076-1.384.229-.397.143-.732.355-1.003.634-.262.271-.465.601-.609.991-.144.389-.229.825-.254 1.307l-.698.051c0-.863.084-1.663.254-2.4.169-.736.423-1.383.761-1.942.347-.558.779-.994 1.295-1.308.525-.313 1.13-.469 1.816-.469.186 0 .385.017.596.051.221.033.386.071.496.114zm10.042 10.981v-16.656h3.072v19.5h-2.78zm-8.938-3.872v-.266c0-1.041.123-1.989.368-2.844.246-.863.601-1.604 1.067-2.222.465-.626 1.032-1.104 1.701-1.434.668-.339 1.422-.508 2.26-.508.829 0 1.557.161 2.183.482.627.322 1.16.783 1.6 1.384.44.592.791 1.303 1.054 2.133.262.821.448 1.735.558 2.742v.851c-.11.981-.296 1.878-.558 2.691-.263.812-.614 1.515-1.054 2.107-.44.593-.978 1.05-1.612 1.371-.627.322-1.359.483-2.197.483-.829 0-1.578-.174-2.247-.521-.66-.347-1.223-.833-1.688-1.46-.466-.626-.821-1.362-1.067-2.209-.245-.854-.368-1.781-.368-2.78zm3.06-.266v.266c0 .626.055 1.21.165 1.752.118.542.3 1.02.546 1.435.245.406.562.728.952.965.398.228.872.342 1.422.342.694 0 1.265-.152 1.714-.457.448-.304.799-.715 1.053-1.231.263-.525.44-1.109.533-1.752v-2.298c-.05-.499-.156-.965-.317-1.396-.152-.432-.36-.809-.622-1.13-.262-.33-.588-.584-.978-.762-.38-.186-.833-.279-1.358-.279-.559 0-1.033.118-1.422.355s-.711.563-.965.978c-.245.414-.427.897-.546 1.447-.118.55-.177 1.138-.177 1.765z" fill="#fff"/><path d="m749.804 110.518v-1.727c0-.533.093-1.083.279-1.65.195-.576.461-1.122.8-1.638.347-.525.74-.973 1.18-1.346l1.524.952c-.339.534-.618 1.096-.838 1.689-.212.584-.317 1.244-.317 1.98v1.74zm18.192 11.044v2.438h-12.391v-2.095l6.018-6.563c.66-.745 1.181-1.388 1.562-1.93.38-.542.647-1.028.799-1.46.161-.44.242-.867.242-1.282 0-.584-.11-1.096-.33-1.536-.212-.449-.525-.8-.94-1.054-.415-.262-.918-.393-1.511-.393-.685 0-1.261.148-1.726.444-.466.296-.817.707-1.054 1.231-.237.517-.355 1.109-.355 1.778h-3.06c0-1.075.245-2.057.736-2.946.491-.897 1.202-1.608 2.133-2.132.931-.534 2.053-.8 3.364-.8 1.236 0 2.286.207 3.149.622s1.519 1.003 1.968 1.764c.457.762.685 1.664.685 2.705 0 .575-.093 1.146-.279 1.713s-.453 1.135-.8 1.702c-.338.558-.741 1.121-1.206 1.688-.465.559-.978 1.126-1.536 1.701l-3.999 4.405zm5.599-6.157-2.438-.596 1.003-9.293h9.966v2.589h-7.427l-.508 4.533c.288-.17.686-.335 1.194-.495.508-.17 1.087-.254 1.739-.254.872 0 1.65.144 2.336.431.694.28 1.282.69 1.765 1.232.482.533.85 1.185 1.104 1.955.254.762.381 1.621.381 2.577 0 .855-.127 1.655-.381 2.399-.245.745-.618 1.401-1.117 1.968s-1.13 1.012-1.892 1.333c-.753.313-1.646.47-2.678.47-.771 0-1.511-.11-2.222-.33-.703-.229-1.333-.563-1.892-1.003-.558-.449-1.007-.999-1.345-1.65-.339-.661-.534-1.418-.584-2.273h2.996c.076.601.241 1.113.495 1.536.262.415.609.732 1.041.952.431.22.931.33 1.498.33.516 0 .961-.088 1.333-.266.372-.186.681-.449.927-.787.254-.347.44-.754.558-1.219.127-.466.191-.982.191-1.549 0-.542-.072-1.037-.216-1.485-.136-.449-.343-.838-.622-1.168-.271-.33-.614-.584-1.029-.762-.414-.186-.892-.279-1.434-.279-.728 0-1.287.106-1.676.317-.381.212-.736.474-1.066.787z" fill="#9cef54"/><rect fill="#fff" height="40" rx="6" width="40" x="486" y="93"/><circle cx="506" cy="113" r="8.2" stroke="#395370" stroke-width="2" transform="matrix(.70710678 -.70710678 .70710678 .70710678 68.300902 390.892965)"/><path d="m511.031 110.674-3.556 3.556c-.07.07-.182.078-.261.018l-2.78-2.093c-.082-.062-.198-.052-.268.024l-3.045 3.298" stroke="#c650da" stroke-linecap="round" stroke-width="2"/><path d="m511.94 118.94 6.222 6.222" stroke="#395370" stroke-linecap="round" stroke-width="2"/><rect fill="#fff" height="40" rx="6" width="40" x="799" y="141"/><path d="m811.677 159.471c-.535 2.09.049 4.399 1.727 5.987 1.238 1.172 2.837 1.728 4.417 1.677 1.247-.04 2.481-.457 3.517-1.247.44-.335 1.068-.36 1.47.02l1.715 1.623c.401.38.421 1.017.005 1.381-1.833 1.603-4.1 2.465-6.4 2.576-2.756.132-5.561-.816-7.723-2.863-2.938-2.781-3.915-6.856-2.884-10.495m4.156 1.341c.251-.977.746-1.906 1.489-2.691 2.097-2.216 5.454-2.524 7.899-.864.457.31 1.086.301 1.466-.1l1.624-1.715c.379-.401.364-1.039-.071-1.379-4.216-3.299-10.33-2.907-14.085 1.059-1.206 1.274-2.031 2.77-2.478 4.349m4.156 1.341-4.156-1.341" stroke="#395370" stroke-width="2"/><path d="m828.76 166.455c.421.358 1.058.309 1.366-.149 2.281-3.393 1.911-7.938-.888-10.918-.378-.403-1.014-.348-1.372.073l-1.072 1.261c-.357.421-.296 1.047.048 1.479 1.299 1.628 1.484 3.899.465 5.715-.27.482-.229 1.11.192 1.468z" stroke="#c650da" stroke-width="2"/><rect fill="#fff" height="40" rx="6" width="40" x="905" y="57"/><path d="m925.7 90.1v-5.4m0-20.8v4.6m-4.559 13.8v2.34c0 .0331.027.06.06.06h4.499m-4.559-2.4v-2.34c0-.0331.027-.06.06-.06h4.499m-4.559 2.4h-4.841m21.2 0h-4.841m0 0v-2.34c0-.0331-.027-.06-.06-.06h-6.899m6.959 2.4v2.34c0 .0331-.027.06-.06.06h-6.899m-8.359-13.8v2.34c0 .0331.027.06.06.06h8.299m-8.359-2.4v-2.34c0-.0331.027-.06.06-.06h8.299m-8.359 2.4h-4.841m21.2 0h-4.841m0 0v-2.34c0-.0331-.027-.06-.06-.06h-3.099m3.159 2.4v2.34c0 .0331-.027.06-.06.06h-3.099m0 6.6v-6.6" stroke="#395370" stroke-linecap="round" stroke-width="2"/><path d="m917.341 70.9v2.34c0 .0331.027.06.06.06h8.299 3.099c.033 0 .06-.0269.06-.06v-2.34m-11.518 0v-2.34c0-.0332.027-.06.06-.06h8.299 3.099c.033 0 .06.0268.06.06v2.34m-11.518 0h-4.841m21.2 0h-4.841" stroke="#c650da" stroke-linecap="round" stroke-width="2"/><path d="m700.5 170v30" stroke="#395370"/><path d="m700.5 0v10" stroke="#395370"/><g stroke-miterlimit="10"><path d="m-150-127.94c112.3281 45.3107 172.877 105.0697 207.7976 153.9568 29.1098 40.7575 28.5934 57.4299 59.5034 87.8382 67.079 65.985 195.575 111.487 257.852 54.783 30.677-27.934 19.329-63.332 34.003-130.3437 13.201-60.2816 47.331-143.1903 142.62-233.2943" stroke="#9cef54" stroke-opacity=".7"/><path d="m-149.775-113.321c109.2575 38.9408 169.2008 95.1596 204.1031 140.9115 29.3671 38.5073 31.7549 53.9058 64.5869 83.7915 68.875 62.694 189.55 106.341 251.913 53.432 32.124-27.251 24.817-62.044 42.01-128.859 15.137-58.8233 49.964-140.314 143.611-229.61" stroke="#9cef54" stroke-opacity=".7"/><path d="m-149.551-98.7043c106.1857 32.5732 165.5701 85.2659 200.4157 127.8684 29.685 36.2937 34.8577 50.3839 69.6713 79.7449 70.519 59.475 183.71 101.296 245.978 52.083 33.639-26.588 30.246-60.723 50.014-127.3742 17.012-57.3509 52.597-137.4338 144.607-225.9178" stroke="#9cef54" stroke-opacity=".7"/><path d="m-149.326-84.0855c103.113 26.2056 161.9971 75.38432 196.7272 114.8355 30.0415 34.1063 37.9018 46.8638 74.7628 75.684 72.024 56.34 178.045 96.367 240.04 50.734 35.225-25.924 35.622-59.3719 58.02-125.8894 18.809-55.8643 55.23-134.5516 145.59-222.2296" stroke="#9cef54" stroke-opacity=".7"/><path d="m-149.1-69.4688c100.0502 19.8339 158.49274 65.50482 193.0386 101.7823 30.4506 31.9737 40.9114 43.3843 79.8344 71.6475 73.403 53.286 172.546 91.557 234.104 49.383 36.881-25.265 40.938-58.0046 66.025-124.4047 20.545-54.3737 57.866-131.6723 146.579-218.5313" stroke="#9cef54" stroke-opacity=".7"/><path d="m-148.876-54.8521c96.9704 13.4663 155.06455 55.627332 189.3511 88.7392 30.9246 29.8654 43.8482 39.9231 84.9179 67.5989 74.671 50.325 167.196 86.872 228.166 48.037 38.604-24.592 46.177-56.6282 74.031-122.9229 22.212-52.8851 60.498-128.7901 147.569-214.8541" stroke="#9cef54" stroke-opacity=".7"/><path d="m-148.651-40.2354c93.8976 7.0886 151.72451 45.72964 185.6628 75.6962 31.4673 27.7854 46.7504 36.4942 89.9992 63.5525 75.848 47.4507 161.981 82.3147 222.23 46.6857 40.391-23.887 51.374-55.2488 82.037-121.4361 23.816-51.4066 63.139-125.9099 148.557-211.1659" stroke="#9cef54" stroke-opacity=".7"/><path d="m-148.419-25.6166c90.8258.727 148.4825742 35.8076 181.9752 62.6511 32.0912 25.7216 49.6203 33.1058 95.0808 59.5059 76.942 44.6686 156.887 77.8856 216.294 45.3346 42.24-23.143 56.492-53.8734 90.043-119.9514 25.347-49.9362 65.756-123.0216 149.539-207.4776" stroke="#9cef54" stroke-opacity=".7"/><path d="m-148.202-10.9999c87.7532-5.6405 145.34514 25.843 178.2869 49.6101 32.8102 23.6638 52.4396 29.7722 100.1641 55.4552 77.975 41.9766 151.899 73.5876 210.356 43.9876 44.151-22.351 61.543-52.5202 98.049-118.4686 26.84-48.4841 68.397-120.1484 150.548-203.7894" stroke="#9cef54" stroke-opacity=".7"/><path d="m-147.977 3.6107c84.6825-12.0081 142.31492 15.8177 174.5985 36.5671 33.6061 21.598 55.2344 26.4668 105.2455 51.4086 78.943 39.3686 146.989 69.4116 204.419 42.6366 46.107-21.494 66.53-51.1895 106.056-116.9839 28.269-47.0542 71.032-117.2661 151.526-200.1011" stroke="#9cef54" stroke-opacity=".7"/><path d="m-147.752 18.2355c81.6207-18.377704 139.39491 5.7134 170.9129 23.5221 34.5073 19.4997 58.003 23.2243 110.3271 47.36 79.874 36.8444 142.155 65.3614 198.481 41.2904 48.116-20.563 71.449-49.896 114.062-115.5021 29.649-45.6486 73.665-114.3838 152.516-196.4089" stroke="#9cef54" stroke-opacity=".7"/><path d="m-147.527 32.8522c78.5378-24.74731 136.5774-4.486 167.2245 10.479 35.5078 17.3408 60.7595 20.0385 115.4085 43.3135 80.778 34.3983 137.381 61.4233 192.545 39.9393 50.169-19.538 76.308-48.6401 122.068-114.0153 30.987-44.2735 76.298-111.5059 153.505-192.7247" stroke="#9cef54" stroke-opacity=".7"/><path d="m-147.302 47.471c75.4651-31.117 133.8489-14.801 163.536-2.5641 36.6016 15.0866 63.4816 16.9053 120.492 39.2648 81.659 32.0263 132.646 57.6003 186.609 38.5883 52.253-18.41 81.106-47.4308 130.072-112.5306 32.287-42.9266 78.931-108.6238 154.495-189.0374" stroke="#9cef54" stroke-opacity=".7"/><path d="m-147.078 62.0877c72.3954-37.4846 131.1965-25.2395 159.8486-15.6071 37.7783 12.7008 66.1996 13.8329 125.5694 35.2162 82.528 29.7232 127.942 53.8732 180.673 37.2412 54.386-17.164 85.849-46.2802 138.078-111.04779 33.561-41.61421 81.567-105.74791 155.487-185.34321" stroke="#9cef54" stroke-opacity=".7"/><path d="m-146.853 76.7044c69.3227-43.8542 128.5916-35.8137 156.15212-28.6502 39.01568 10.1388 68.90938 10.8173 130.65688 31.1697 83.393 27.4851 123.247 50.2641 174.735 35.8911 56.536-15.7838 90.543-45.1873 146.084-109.57013 34.799-40.33617 84.198-102.86177 156.474-181.66087" stroke="#9cef54" stroke-opacity=".7"/><path d="m-146.628 91.3231c66.2601-50.2238 126.007-46.5276 152.47178-41.6952 40.28352 7.356 71.61322 7.8603 135.73922 27.121 84.253 25.3161 118.554 46.7421 168.798 34.5441 58.703-14.2564 95.189-44.1521 154.09-108.07926 36.022-39.09674 86.831-99.98184 157.462-177.97274" stroke="#9cef54" stroke-opacity=".7"/><path d="m-146.393 105.94c63.1776-56.5915 123.6859-50.0498 148.78366-54.7364 41.05114-7.6678 74.31704 4.9601 140.82234 23.0725 85.124 23.1878 113.837 43.3069 162.85 33.1929 60.879-12.557 99.797-43.198 162.096-106.594488 37.227-37.885612 89.464-97.099812 158.453-174.276512" stroke="#9cef54" stroke-opacity=".7"/><path d="m-146.178 120.557c60.1073-62.9594 121.3367-62.2972 145.09573-67.7797 41.64257-9.6081 77.02077 2.1164 145.90427 19.0258 86.025 21.1241 109.105 39.9599 156.923 31.8419 63.048-10.6895 104.371-42.3047 170.103-105.11381 38.424-36.71289 92.097-94.21979 159.441-170.59619" stroke="#9cef54" stroke-opacity=".7"/><path d="m-145.953 135.175c57.0346-69.3303 118.6974-74.7784 141.40732-80.824 42.39188-11.283 79.72858-.6704 150.98768 14.9873 86.928 19.0907 104.324 36.6707 150.985 30.4952 65.201-8.6298 108.916-41.4866 178.109-103.62735 39.613-35.57465 94.732-91.34185 160.431-166.90815" stroke="#9cef54" stroke-opacity=".7"/><path d="m-145.729 149.792c53.9629-75.6982 115.0485-90.5316 137.72194-93.8673 44.66026-6.556 82.44656-3.4066 156.06906 10.9367 87.858 17.1078 99.487 33.4526 145.049 29.1443 67.318-6.3717 113.434-40.7494 186.117-102.14892 40.802-34.47088 97.365-88.45578 161.417-163.22078" stroke="#9cef54" stroke-opacity=".7"/><path d="m-145.504 164.409c50.8902-82.0661 112.0001-101.7097 134.0315-106.9087 45.2962-10.6876 85.1727-6.0921 161.1505 6.8861 88.808 15.1636 94.582 30.2947 139.113 27.7955 69.389-3.8927 117.94-40.0608 194.12-100.65829 41.993-33.40351 99.998-85.57571 162.411-159.53261" stroke="#9cef54" stroke-opacity=".7"/><path d="m-145.279 179.027c47.8195-88.435 108.7592-112.8846 130.3431-119.953 45.6709-14.963 87.9109-8.7271 166.2339 2.8355 89.784 13.2536 89.596 27.1838 133.177 26.4466 71.392-1.2152 122.428-39.4553 202.126-99.1737 43.186-32.3565 102.629-82.6978 163.399-155.8464" stroke="#9cef54" stroke-opacity=".7"/><path d="m1001.06 671c45.31-112.328 105.07-172.877 153.96-207.798 40.75-29.109 57.43-28.593 87.83-59.503 65.99-67.079 111.49-195.575 54.79-257.852-27.94-30.677-63.33-19.329-130.35-34.003-60.28-13.2007-143.19-47.3313-233.29-142.6205" stroke="#9cef54" stroke-opacity=".7"/><path d="m1015.68 670.775c38.94-109.258 95.16-169.201 140.91-204.103 38.51-29.367 53.91-31.755 83.79-64.587 62.7-68.875 106.34-189.55 53.43-251.913-27.25-32.124-62.04-24.817-128.86-42.01-58.82-15.1368-140.31-49.9642-229.605-143.6108" stroke="#9cef54" stroke-opacity=".7"/><path d="m1030.3 670.551c32.57-106.186 85.26-165.57 127.86-200.416 36.3-29.685 50.39-34.857 79.75-69.671 59.47-70.519 101.3-183.71 52.08-245.978-26.59-33.639-60.72-30.246-127.37-50.014-57.35-17.0122-137.44-52.597-225.92-144.6072" stroke="#9cef54" stroke-opacity=".7"/><path d="m1044.91 670.326c26.21-103.113 75.39-161.997 114.84-196.727 34.11-30.042 46.86-37.902 75.68-74.763 56.34-72.024 96.37-178.045 50.74-240.04-25.93-35.225-59.37-35.622-125.89-58.02-55.87-18.8088-134.55-55.2301-222.231-145.5896" stroke="#9cef54" stroke-opacity=".7"/><path d="m1059.53 670.1c19.84-100.05 65.51-158.493 101.78-193.039 31.98-30.45 43.39-40.911 71.65-79.834 53.29-73.403 91.56-172.546 49.38-234.104-25.26-36.881-58-40.938-124.4-66.0253-54.37-20.5449-131.67-57.8654-218.532-146.5783" stroke="#9cef54" stroke-opacity=".7"/><path d="m1074.15 669.876c13.46-96.97 55.63-155.064 88.74-189.351 29.86-30.925 39.92-43.848 67.6-84.918 50.32-74.671 86.87-167.196 48.03-228.166-24.59-38.604-56.63-46.177-122.92-74.0312-52.89-22.2116-128.79-60.4982-214.854-147.5686" stroke="#9cef54" stroke-opacity=".7"/><path d="m1088.76 669.651c7.09-93.898 45.73-151.724 75.7-185.663 27.79-31.467 36.5-46.75 63.55-89.999 47.45-75.848 82.32-161.981 46.69-222.23-23.89-40.391-55.25-51.374-121.44-82.0372-51.4-23.8157-125.91-63.1393-211.163-148.557" stroke="#9cef54" stroke-opacity=".7"/><path d="m1103.38 669.418c.73-90.825 35.81-148.482 62.65-181.974 25.73-32.091 33.11-49.621 59.51-95.081 44.67-76.942 77.89-156.887 45.34-216.294-23.15-42.24-53.88-56.492-119.96-90.0432-49.93-25.3468-123.02-65.756-207.474-149.5393" stroke="#9cef54" stroke-opacity=".7"/><path d="m1118 669.202c-5.64-87.753 25.84-145.345 49.61-178.287 23.66-32.81 29.77-52.439 55.46-100.164 41.97-77.975 73.58-151.899 43.98-210.355-22.35-44.152-52.52-61.544-118.47-98.0501-48.48-26.8395-120.14-68.397-203.785-150.5479" stroke="#9cef54" stroke-opacity=".7"/><path d="m1132.61 668.977c-12.01-84.683 15.82-142.315 36.57-174.598 21.6-33.607 26.46-55.235 51.41-105.246 39.36-78.943 69.41-146.99 42.63-204.419-21.49-46.107-51.19-66.53-116.98-106.0561-47.06-28.2694-117.27-71.03197-200.102-151.5262" stroke="#9cef54" stroke-opacity=".7"/><path d="m1147.24 668.752c-18.38-81.621 5.71-139.395 23.52-170.913 19.5-34.507 23.22-58.003 47.36-110.327 36.84-79.874 65.36-142.155 41.29-198.481-20.57-48.116-49.9-71.449-115.5-114.0619-45.65-29.6486-114.39-73.66479-196.413-152.5165" stroke="#9cef54" stroke-opacity=".7"/><path d="m1161.85 668.527c-24.75-78.538-4.48-136.577 10.48-167.225 17.34-35.507 20.04-60.759 43.31-115.408 34.4-80.778 61.43-137.382 39.94-192.545-19.53-50.169-48.64-76.308-114.01-122.068-44.27-30.9873-111.51-76.29772-192.726-153.5048" stroke="#9cef54" stroke-opacity=".7"/><path d="m1176.47 668.302c-31.12-75.465-14.8-133.849-2.56-163.536 15.08-36.602 16.9-63.482 39.26-120.492 32.03-81.659 57.6-132.646 38.59-186.609-18.41-52.253-47.43-81.106-112.53-130.0719-42.93-32.2876-108.62-78.9306-189.038-154.4952" stroke="#9cef54" stroke-opacity=".7"/><path d="m1191.09 668.078c-37.49-72.395-25.24-131.196-15.61-159.849 12.7-37.778 13.83-66.199 35.22-125.569 29.72-82.528 53.87-127.942 37.24-180.673-17.17-54.386-46.28-85.849-111.05-138.0778-41.61-33.5615-105.75-81.5676-185.343-155.4876" stroke="#9cef54" stroke-opacity=".7"/><path d="m1205.7 667.853c-43.85-69.323-35.81-128.592-28.65-156.152 10.14-39.016 10.82-68.91 31.17-130.657 27.49-83.393 50.27-123.247 35.89-174.735-15.78-56.536-45.18-90.544-109.57-146.0838-40.33-34.799-102.86-84.1985-181.656-156.474" stroke="#9cef54" stroke-opacity=".7"/><path d="m1220.32 667.628c-50.22-66.26-46.52-126.007-41.69-152.472 7.35-40.283 7.86-71.613 27.12-135.739 25.32-84.253 46.74-118.554 34.54-168.798-14.25-58.703-44.15-95.189-108.08-154.0898-39.09-36.0223-99.98-86.8314-177.969-157.4622" stroke="#9cef54" stroke-opacity=".7"/><path d="m1234.94 667.393c-56.59-63.178-50.05-123.686-54.74-148.784-7.66-41.051 4.96-74.317 23.08-140.822 23.18-85.124 43.3-113.837 33.19-162.85-12.56-60.879-43.2-99.797-106.6-162.0959-37.88-37.2274-97.1-89.4643-174.272-158.4531" stroke="#9cef54" stroke-opacity=".7"/><path d="m1249.56 667.178c-62.96-60.107-62.3-121.337-67.78-145.096-9.61-41.642 2.11-77.021 19.02-145.904 21.13-86.025 39.96-109.105 31.85-156.923-10.69-63.048-42.31-104.371-105.12-170.1026-36.71-38.4243-94.22-92.0972-170.595-159.4414" stroke="#9cef54" stroke-opacity=".7"/><path d="m1264.18 666.953c-69.34-57.035-74.78-118.697-80.83-141.407-11.28-42.392-.67-79.729 14.99-150.988 19.09-86.928 36.67-104.324 30.49-150.985-8.63-65.201-41.48-108.916-103.62-178.1085-35.58-39.61313-91.35-94.7321-166.912-160.4315" stroke="#9cef54" stroke-opacity=".7"/><path d="m1278.79 666.729c-75.7-53.963-90.53-115.049-93.87-137.722-6.55-44.66-3.4-82.447 10.94-156.069 17.11-87.858 33.45-99.487 29.15-145.049-6.38-67.318-40.75-113.434-102.15-186.1166-34.47-40.801994-88.46-97.3651-163.224-161.4174" stroke="#9cef54" stroke-opacity=".7"/><path d="m1293.41 666.504c-82.07-50.89-101.71-112-106.91-134.032-10.69-45.296-6.09-85.172 6.89-161.15 15.16-88.808 30.29-94.582 27.79-139.113-3.89-69.389-40.06-117.94-100.66-194.1205-33.4-41.99292-85.57-99.998-159.529-162.4105" stroke="#9cef54" stroke-opacity=".7"/><path d="m1308.03 666.279c-88.44-47.819-112.89-108.759-119.96-130.343-14.96-45.671-8.72-87.911 2.84-166.234 13.25-89.784 27.18-89.596 26.45-133.177-1.22-71.392-39.46-122.428-99.18-202.1264-32.35-43.18583-82.7-102.6289-155.844-163.3986" stroke="#9cef54" stroke-opacity=".7"/><path d="m1435 182.522c-54.9-22.146-84.49-51.353-101.56-75.247-14.23-19.9198-13.98-28.0684-29.08-42.9304-32.79-32.25-95.59-54.48954-126.03-26.775-14.99 13.6523-9.45 30.9533-16.62 63.7054-6.45 29.462-23.13 69.984-69.7 114.022" stroke="#fff" stroke-opacity=".2"/><path d="m1434.89 175.377c-53.4-19.033-82.7-46.509-99.76-68.871-14.35-18.8202-15.52-26.3462-31.56-40.9528-33.67-30.6415-92.64-51.9743-123.12-26.1148-15.71 13.3187-12.13 30.3238-20.54 62.9796-7.4 28.75-24.42 68.579-70.19 112.222" stroke="#fff" stroke-opacity=".2"/><path d="m1434.78 168.233c-51.9-15.92-80.92-41.674-97.95-62.496-14.51-17.7384-17.04-24.6249-34.05-38.9751-34.47-29.0686-89.79-49.5085-120.23-25.4556-16.44 12.9951-14.78 29.6784-24.44 62.2537-8.32 28.031-25.71 67.171-70.68 110.418" stroke="#fff" stroke-opacity=".2"/><path d="m1434.67 161.088c-50.4-12.808-79.18-36.844-96.15-56.126-14.68-16.6693-18.52-22.9046-36.54-36.9905-35.2-27.5363-87.02-47.0991-117.32-24.7963-17.22 12.6704-17.41 29.0181-28.36 61.5288-9.19 27.303-26.99 65.762-71.15 108.615" stroke="#fff" stroke-opacity=".2"/><path d="m1434.56 153.944c-48.9-9.694-77.46-32.015-94.35-49.746-14.88-15.6272-19.99-21.2042-39.02-35.0179-35.87-26.0435-84.33-44.7482-114.41-24.1361-18.03 12.3487-20.01 28.35-32.27 60.803-10.05 26.575-28.29 64.355-71.64 106.807" stroke="#fff" stroke-opacity=".2"/><path d="m1434.45 146.8c-47.39-6.582-75.79-27.188-92.54-43.371-15.12-14.5969-21.44-19.5126-41.51-33.0392-36.49-24.5964-81.72-42.4587-111.51-23.4778-18.87 12.019-22.57 27.6768-36.19 60.078-10.85 25.848-29.57 62.946-72.12 105.01" stroke="#fff" stroke-opacity=".2"/><path d="m1434.34 139.656c-45.89-3.464-74.15-22.35-90.74-36.996-15.38-13.5804-22.85-17.8369-43.99-31.0616-37.07-23.1917-79.17-40.2314-108.61-22.8176-19.74 11.6746-25.11 27.0028-40.1 59.3522-11.64 25.125-30.86 61.538-72.61 103.207" stroke="#fff" stroke-opacity=".2"/><path d="m1434.23 132.511c-44.39-.355-72.57-17.501-88.94-30.62-15.69-12.5718-24.26-16.1809-46.47-29.0839-37.61-21.8317-76.68-38.0666-105.72-22.1574-20.64 11.3113-27.61 26.3307-44.01 58.6263-12.38 24.406-32.13 60.127-73.08 101.405" stroke="#fff" stroke-opacity=".2"/><path d="m1434.12 125.367c-42.89 2.757-71.04-12.63-87.14-24.247-16.03-11.5653-25.63-14.5508-48.95-27.1033-38.11-20.5162-74.24-35.9661-102.81-21.4991-21.58 10.9242-30.08 25.6694-47.92 57.9014-13.12 23.697-33.43 58.723-73.59 99.602" stroke="#fff" stroke-opacity=".2"/><path d="m1434.01 118.226c-41.39 5.869-69.56-7.73-85.33-17.872-16.43-10.5557-27-12.9354-51.44-25.1257-38.59-19.2411-71.84-33.9249-99.91-20.8388-22.54 10.5055-32.52 25.019-51.84 57.1765-13.81 22.997-34.71 57.313-74.06 97.799" stroke="#fff" stroke-opacity=".2"/><path d="m1433.9 111.079c-39.89 8.982-68.13-2.793-83.53-11.4969-16.87-9.5305-28.35-11.3509-53.92-23.1472-39.04-18.0078-69.48-31.9452-97.01-20.1806-23.52 10.0502-34.92 24.3866-55.75 56.4517-14.49 22.311-36 55.905-74.54 95.995" stroke="#fff" stroke-opacity=".2"/><path d="m1433.79 103.935c-38.38 12.095-66.75 2.192-81.73-5.1219-17.35-8.4753-29.7-9.7938-56.41-21.1695-39.48-16.812-67.14-30.0209-94.1-19.5203-24.52 9.5493-37.3 23.7728-59.66 55.7247-15.15 21.639-37.29 54.499-75.03 94.195" stroke="#fff" stroke-opacity=".2"/><path d="m1433.68 96.7897c-36.88 15.2083-65.42 7.2343-79.93 1.2532-17.89-7.3736-31.02-8.2625-58.89-19.1907-39.91-15.6528-64.83-28.152-91.2-18.86-25.54 8.9979-39.64 23.1818-63.58 54.9998-15.78 20.98-38.57 53.089-75.5 92.391" stroke="#fff" stroke-opacity=".2"/><path d="m1433.57 89.6458c-35.38 18.3202-64.12 12.3362-78.12 7.628-18.47-6.2075-32.36-6.7609-61.38-17.212-40.33-14.5274-62.53-26.3306-88.3-18.2018-26.58 8.3892-41.96 22.6196-67.49 54.275-16.4 20.339-39.86 51.684-75.99 90.586" stroke="#fff" stroke-opacity=".2"/><path d="m1433.46 82.5019c-33.88 21.4341-62.85 17.5041-76.32 14.0027-19.07-4.9553-33.68-5.2869-63.86-15.2341-40.75-13.4336-60.23-24.5667-85.4-17.5416-27.63 7.7141-44.25 22.0851-71.4 53.5521-17 19.714-41.15 50.274-76.47 88.787" stroke="#fff" stroke-opacity=".2"/><path d="m1433.35 75.357c-32.38 24.5469-61.58 22.7403-74.52 20.3785-19.69-3.5952-35-3.8417-66.34-13.2554-41.18-12.3734-57.94-22.8453-82.5-16.8833-28.69 6.9677-46.53 21.5793-75.31 52.8232-17.61 19.109-42.44 48.867-76.96 86.985" stroke="#fff" stroke-opacity=".2"/><path d="m1433.24 68.213c-30.88 27.659-60.45 24.4617-72.72 26.7523-20.06 3.7477-36.32-2.4242-68.83-11.2766-41.6-11.3331-55.64-21.1665-79.59-16.2231-29.76 6.1372-48.78 21.113-79.23 52.0984-18.19 18.516-43.72 47.457-77.44 85.177" stroke="#fff" stroke-opacity=".2"/><path d="m1433.13 61.0691c-29.38 30.7712-59.3 30.4476-70.91 33.1271-20.36 4.696-37.65-1.0344-71.31-9.2988-42.05-10.3244-53.33-19.5302-76.7-15.5628-30.82 5.2245-51.01 20.6765-83.14 51.3744-18.78 17.943-45.01 46.05-77.92 83.379" stroke="#fff" stroke-opacity=".2"/><path d="m1433.02 53.9242c-27.87 33.8854-58.01 36.5481-69.11 39.5029-20.72 5.5146-38.97.3276-73.8-7.3251-42.48-9.3305-50.98-17.9226-73.79-14.9045-31.87 4.2178-53.23 20.2766-87.05 50.6475-19.36 17.388-46.3 44.644-78.41 81.577" stroke="#fff" stroke-opacity=".2"/><path d="m1432.91 46.7803c-26.37 36.9975-56.23 44.2473-67.31 45.8777-21.83 3.2042-40.29 1.6649-76.28-5.3454-42.94-8.3614-48.62-16.3497-70.89-14.2442-32.9 3.1141-55.44 19.9162-90.96 49.9256-19.95 16.847-47.59 43.232-78.9 79.774" stroke="#fff" stroke-opacity=".2"/><path d="m1432.8 39.6364c-24.87 40.1097-54.74 49.7104-65.51 52.2515-22.13 5.2235-41.62 2.9775-78.76-3.3656-43.4-7.4112-46.22-14.8065-67.99-13.585-33.91 1.9025-57.64 19.5797-94.88 49.1967-20.52 16.326-48.87 41.825-79.37 77.971" stroke="#fff" stroke-opacity=".2"/><path d="m1432.69 32.4915c-23.37 43.2228-53.15 55.1726-63.7 58.6272-22.32 7.3132-42.97 4.2654-81.25-1.3858-43.88-6.4777-43.79-13.2861-65.09-12.9258-34.89.5939-59.84 19.2837-98.79 48.4709-21.11 15.814-50.16 40.419-79.86 76.17" stroke="#fff" stroke-opacity=".2"/><path d="m170.522-118c-22.146 54.9004-51.353 84.4936-75.2466 101.5611-19.9202 14.22741-28.0689 13.97499-42.9308 29.0824-32.2501 32.7847-54.4896 95.5875-26.7751 126.0245 13.6523 14.994 30.9533 9.448 63.7053 16.619 29.4622 6.452 69.9842 23.134 114.0222 69.706" stroke="#fff" stroke-opacity=".2"/><path d="m163.377-117.89c-19.033 53.3996-46.509 82.6969-68.8707 99.7554-18.8205 14.35313-26.3465 15.52018-40.9531 31.567-30.6415 33.6627-51.9743 92.6426-26.1148 123.1226 13.3187 15.7 30.3238 12.129 62.9797 20.532 28.7499 7.398 68.5789 24.42 112.2219 70.19" stroke="#fff" stroke-opacity=".2"/><path d="m156.233-117.78c-15.92 51.8977-41.674 80.9218-62.4959 97.9526-17.7385 14.50859-24.625 17.03671-38.9752 34.0517-29.0687 34.4664-49.50857 89.7887-25.4556 120.2217 12.995 16.441 29.6784 14.783 62.2541 24.444 28.0306 8.315 67.1706 25.707 110.4176 70.677" stroke="#fff" stroke-opacity=".2"/><path d="m149.088-117.671c-12.808 50.3969-36.844 79.1765-56.1259 96.1508-16.6695 14.68283-22.9047 18.52453-36.9906 36.5402-27.5363 35.2019-47.09917 87.02-24.7963 117.32 12.6704 17.216 29.0181 17.41 61.5285 28.357 27.3033 9.193 65.7623 26.994 108.6153 71.157" stroke="#fff" stroke-opacity=".2"/><path d="m141.944-117.56c-9.694 48.8994-32.015 77.4632-49.7461 94.3475-15.6271 14.88273-21.2041 19.99542-35.0178 39.0188-26.0435 35.876-44.7482 84.3327-24.1361 114.4187 12.3487 18.025 28.35 20.008 60.803 32.27 26.575 10.041 64.355 28.281 106.807 71.64" stroke="#fff" stroke-opacity=".2"/><path d="m134.8-117.451c-6.582 47.3946-27.188 75.7881-43.3712 92.5457-14.5967 15.1144-19.5124 21.43078-33.0391 41.5034-24.5963 36.4957-42.4586 81.7171-23.4778 111.5159 12.0191 18.868 27.6769 22.569 60.0784 36.183 25.8477 10.856 62.9457 29.569 105.0097 72.124" stroke="#fff" stroke-opacity=".2"/><path d="m127.656-117.341c-3.464 45.8928-22.35 74.1557-36.9964 90.743-13.58 15.3797-17.8365 22.84926-31.0612 43.987-23.1918 37.0708-40.2314 79.1681-22.8176 108.615 11.6746 19.741 27.0028 25.109 59.3519 40.096 25.1253 11.64 61.5383 30.859 103.2073 72.607" stroke="#fff" stroke-opacity=".2"/><path d="m120.511-117.227c-.355 44.3908-17.501 72.5706-30.6205 88.9401-12.5714 15.6846-16.1805 24.25191-29.0835 46.4706-21.8317 37.6053-38.0666 76.6786-22.1573 105.7133 11.3113 20.645 26.3306 27.611 58.6262 44.009 24.4061 12.388 60.1271 32.138 101.4051 73.087" stroke="#fff" stroke-opacity=".2"/><path d="m113.367-117.121c2.757 42.8892-12.63 71.0372-24.2466 87.1375-11.5657 16.036-14.5512 25.62983-27.1037 48.9552-20.5162 38.1102-35.9661 74.2405-21.4991 102.8113 10.9242 21.579 25.6694 30.079 57.9017 47.922 23.6967 13.118 58.7227 33.429 99.6017 73.58" stroke="#fff" stroke-opacity=".2"/><path d="m106.226-117.011c5.869 41.3883-7.7305 69.5562-17.8718 85.3347-10.556 16.425-12.9356 26.99588-25.1259 51.4388-19.2412 38.5833-33.925 71.8411-20.8388 99.9095 10.5055 22.535 25.019 32.517 57.176 51.835 22.9975 13.817 57.3135 34.717 97.7995 74.059" stroke="#fff" stroke-opacity=".2"/><path d="m99.0785-116.901c8.9825 39.8918-2.7924 68.129-11.4964 83.5334-9.5305 16.8654-11.3509 28.34896-23.1472 53.9223-18.0078 39.0387-31.9452 69.4783-20.1806 97.0073 10.0502 23.517 24.3866 34.921 56.4517 55.748 22.311 14.491 55.905 36.004 95.995 74.543" stroke="#fff" stroke-opacity=".2"/><path d="m91.9346-116.791c12.0954 38.385 2.1926 66.7518-5.1216 81.7306-8.4753 17.3545-9.7938 29.69623-21.1694 56.406-16.8121 39.4801-30.0209 67.1451-19.5204 94.1064 9.5494 24.52 23.7729 37.295 55.7248 59.661 21.639 15.145 54.499 37.29 94.195 75.025" stroke="#fff" stroke-opacity=".2"/><path d="m84.7897-116.681c15.2084 36.8832 7.234 65.4183 1.2532 79.9279-7.3736 17.889-8.2625 31.0266-19.1907 58.8906-15.6529 39.9107-28.152 64.8307-18.8601 91.2045 8.998 25.539 23.1819 39.641 54.9999 63.573 20.98 15.781 53.089 38.577 92.391 75.51" stroke="#fff" stroke-opacity=".2"/><path d="m77.6458-116.572c18.3206 35.3834 12.3358 64.1224 7.6279 78.1261-6.2075 18.4641-6.7608 32.35505-17.2119 61.3722-14.5274 40.3354-26.3306 62.5313-18.2018 88.3037 8.3892 26.581 22.6196 41.959 54.275 67.486 20.339 16.403 51.684 39.866 90.586 75.994" stroke="#fff" stroke-opacity=".2"/><path d="m70.5018-116.462c21.4338 33.8816 17.504 62.8492 14.0028 76.3195-4.9553 19.0689-5.2869 33.67942-15.2342 63.8587-13.4335 40.758-24.5666 60.2368-17.5415 85.4018 7.7141 27.632 22.0851 44.253 53.5521 71.398 19.714 17.008 50.274 41.152 88.787 76.477" stroke="#fff" stroke-opacity=".2"/><path d="m63.357-116.352c24.5469 32.3847 22.7403 61.586 20.3785 74.5206-3.5952 19.6886-3.8417 35.00101-13.2554 66.3424-12.3734 41.1787-22.8453 57.9432-16.8833 82.5 6.9677 28.692 21.5793 46.524 52.8232 75.312 19.109 17.605 48.867 42.438 86.985 76.959" stroke="#fff" stroke-opacity=".2"/><path d="m56.213-116.237c27.659 30.878 24.4617 60.4514 26.7523 72.718 3.7477 20.0637-2.4242 36.32239-11.2766 68.8269-11.3331 41.6044-21.1665 55.6378-16.2231 79.5931 6.1372 29.754 21.113 48.776 52.0984 79.224 18.516 18.195 47.457 43.726 85.177 77.444" stroke="#fff" stroke-opacity=".2"/><path d="m49.0691-116.132c30.7712 29.3775 30.4475 59.3033 33.1271 70.9155 4.696 20.3528-1.0344 37.64393-9.2989 71.3105-10.3243 42.0449-19.5302 53.3255-15.5628 76.696 5.2246 30.815 20.6765 51.012 51.3745 83.138 17.943 18.78 46.05 45.012 83.379 77.927" stroke="#fff" stroke-opacity=".2"/><path d="m41.9242-116.022c33.8853 27.8756 36.5481 58.0133 39.5029 69.1128 5.5145 20.719.3276 38.96736-7.3251 73.7951-9.3306 42.4863-17.9227 50.9884-14.9045 73.7941 4.2178 31.867 20.2765 53.232 50.6475 87.05 17.387 19.361 44.644 46.301 81.577 78.411" stroke="#fff" stroke-opacity=".2"/><path d="m34.7803-115.912c36.9975 26.3738 44.2473 56.2294 45.8776 67.311 3.2043 21.8277 1.665 40.29581-5.3453 76.2787-8.3614 42.9407-16.3497 48.6246-14.2443 70.8928 3.1142 32.9015 19.9163 55.4405 49.9257 90.9645 16.847 19.942 43.232 47.587 79.774 78.893" stroke="#fff" stroke-opacity=".2"/><path d="m27.6363-115.803c40.1097 24.873 49.7105 54.7405 52.2515 65.5083 5.2236 22.1385 2.9775 41.62816-3.3656 78.7623-7.4112 43.405-14.8065 46.2271-13.585 67.9915 1.9025 33.9139 19.5797 57.6429 49.1968 94.8759 16.326 20.525 41.825 48.875 77.971 79.378" stroke="#fff" stroke-opacity=".2"/><path d="m20.4915-115.693c43.2228 23.3722 55.1726 53.1565 58.6272 63.7056 7.3132 22.3216 4.2654 42.96641-1.3858 81.2468-6.4777 43.8821-13.2861 43.79-12.9258 65.0901.5939 34.8935 19.2837 59.8365 48.4709 98.7895 15.814 21.107 40.419 50.16 76.17 79.861" stroke="#fff" stroke-opacity=".2"/></g></g></svg>