<svg fill="none" height="400" viewBox="0 0 1400 400" width="1400" xmlns="http://www.w3.org/2000/svg" xmlns:xlink="http://www.w3.org/1999/xlink"><linearGradient id="a" gradientUnits="userSpaceOnUse" x1="659.918" x2="673.055" y1="131.752" y2="108.668"><stop offset="0" stop-color="#9fef53"/><stop offset="1" stop-color="#54f4b2"/></linearGradient><clipPath id="b"><rect height="400" rx="8" width="1400"/></clipPath><clipPath id="c"><path d="m650 106h100v29h-100z"/></clipPath><mask id="d" height="29" maskUnits="userSpaceOnUse" width="100" x="650" y="106"><path d="m750 106h-100v29h100z" fill="#fff"/></mask><g clip-path="url(#b)"><rect fill="#151c24" height="400" rx="8" width="1400"/><g clip-path="url(#c)"><g mask="url(#d)"><path d="m664.5 135c-.982 0-1.961-.099-2.922-.295-.933-.191-1.845-.474-2.722-.845-.862-.365-1.687-.813-2.463-1.337-.77-.52-1.489-1.113-2.146-1.77-.657-.658-1.25-1.376-1.771-2.146-.524-.776-.972-1.601-1.337-2.463-.37-.877-.654-1.789-.845-2.722-.196-.962-.294-1.941-.294-2.922 0-.982.098-1.961.295-2.923.191-.933.474-1.844.845-2.722.365-.862.812-1.687 1.337-2.463.52-.77 1.113-1.488 1.77-2.146.658-.657 1.376-1.25 2.146-1.77.776-.524 1.601-.972 2.463-1.337.877-.371 1.789-.654 2.722-.845.962-.196 1.94-.295 2.922-.294.981-.001 1.96.098 2.922.294.933.191 1.845.474 2.722.845.862.365 1.687.813 2.463 1.337.77.521 1.488 1.113 2.146 1.771.657.657 1.25 1.375 1.77 2.145.524.776.972 1.601 1.337 2.464.371.877.654 1.788.845 2.721.196.962.295 1.941.295 2.923 0 .981-.099 1.96-.295 2.922-.191.933-.474 1.845-.845 2.722-.365.862-.813 1.687-1.337 2.463-.52.77-1.113 1.488-1.77 2.145-.658.658-1.376 1.251-2.146 1.771-.776.524-1.601.972-2.464 1.337-.877.371-1.788.654-2.721.845-.962.196-1.941.295-2.922.295zm0-20.017c-.738-.001-1.468.147-2.147.434-.656.277-1.251.678-1.754 1.182-.504.503-.905 1.098-1.182 1.754-.287.679-.435 1.409-.434 2.147-.001.738.147 1.468.434 2.147.277.656.678 1.251 1.182 1.754.503.503 1.098.905 1.754 1.182.679.287 1.409.435 2.147.433.738.002 1.468-.146 2.147-.433.656-.277 1.251-.679 1.754-1.182.504-.503.905-1.098 1.182-1.754.287-.679.435-1.409.433-2.147.002-.738-.146-1.468-.433-2.147-.277-.656-.678-1.251-1.182-1.754-.503-.504-1.098-.905-1.754-1.182-.679-.288-1.409-.435-2.147-.434z" fill="url(#a)"/><path d="m687.889 124.234c-.965-.899-1.447-2.046-1.447-3.441 0-1.394.482-2.531 1.447-3.411.946-.873 2.193-1.346 3.48-1.32.743-.006 1.477.155 2.15.469.646.298 1.209.747 1.643 1.31l-1.897 1.427c-.443-.599-1.075-.899-1.896-.899-.663-.01-1.306.231-1.799.675-.249.217-.446.486-.578.789-.132.302-.195.63-.184.96-.008.336.055.669.187.978.132.308.328.585.575.811.482.466 1.129.722 1.799.714.821 0 1.453-.306 1.896-.919l1.916 1.408c-.431.574-.999 1.031-1.652 1.329-.676.314-1.414.474-2.16.469-1.292.025-2.542-.46-3.48-1.349zm11.867-7.976v9.13h-2.366v-9.13zm-2.268-2.503c-.144-.131-.258-.291-.335-.47-.078-.179-.117-.371-.115-.566-.003-.193.037-.384.116-.56.08-.176.197-.332.344-.457.296-.27.684-.416 1.085-.41.395-.009.778.139 1.065.41.142.128.255.285.331.461.076.175.113.365.109.556.003.192-.034.383-.11.56s-.188.336-.33.466c-.141.137-.307.245-.49.317s-.379.108-.575.104c-.404.009-.797-.138-1.095-.411zm7.546 8.407v3.226h-2.384v-9.13h2.384v2.15c.222-.782.568-1.368 1.036-1.759.428-.376.976-.584 1.545-.587.522-.015 1.039.099 1.505.332l-.41 2.151c-.44-.181-.913-.268-1.388-.254-1.525 0-2.288 1.29-2.288 3.871zm6.511 2.072c-.965-.899-1.447-2.046-1.447-3.441 0-1.394.482-2.531 1.447-3.411.946-.873 2.193-1.346 3.48-1.32.743-.006 1.477.155 2.15.469.645.298 1.209.747 1.642 1.31l-1.896 1.427c-.443-.599-1.075-.899-1.896-.899-.663-.01-1.306.231-1.799.675-.249.217-.446.486-.578.789-.132.302-.195.63-.184.96-.009.336.055.669.187.978.131.308.328.585.575.811.482.466 1.129.722 1.799.714.821 0 1.453-.306 1.896-.919l1.916 1.408c-.431.574-.999 1.031-1.652 1.329-.677.314-1.415.474-2.16.469-1.293.025-2.542-.46-3.48-1.349zm15.503-3.108v-4.868h2.385v9.13h-2.385v-1.291c-.244.466-.622.847-1.085 1.095-.438.251-.932.385-1.437.391-1.108 0-1.984-.339-2.63-1.016-.644-.678-.967-1.649-.967-2.913v-5.396h2.404v4.965c0 .691.17 1.203.509 1.535.161.162.353.29.565.375.211.086.438.128.666.124.519.015 1.023-.17 1.408-.518.378-.346.567-.883.567-1.613zm5.279 4.262v-14.096h2.385v14.096zm13.743-9.13-5.65 13.587h-2.522l2.092-5.161-3.558-8.426h2.542l2.268 5.689 2.287-5.689zm1.291 8.895c-.145-.134-.26-.298-.338-.48-.077-.182-.116-.378-.112-.576-.004-.197.035-.394.112-.575.078-.182.193-.346.338-.48.142-.14.31-.249.494-.323.185-.074.383-.11.581-.107.409-.009.805.142 1.105.42.149.134.267.298.347.482.079.184.117.383.112.583.005.201-.033.4-.112.584-.08.184-.198.348-.347.482-.3.278-.696.428-1.105.42-.198.003-.396-.033-.581-.107-.184-.074-.352-.183-.494-.323z" fill="#fff"/></g></g><path d="m522.133 194.891h5.859c-.187 2.234-.812 4.226-1.875 5.976-1.062 1.735-2.555 3.102-4.476 4.102-1.922 1-4.258 1.5-7.008 1.5-2.11 0-4.008-.375-5.695-1.125-1.688-.766-3.133-1.844-4.336-3.235-1.204-1.406-2.125-3.101-2.766-5.086-.625-1.984-.938-4.203-.938-6.656v-2.836c0-2.453.321-4.672.961-6.656.657-1.984 1.594-3.68 2.813-5.086 1.219-1.422 2.68-2.508 4.383-3.258 1.718-.75 3.648-1.125 5.789-1.125 2.718 0 5.015.5 6.89 1.5s3.328 2.383 4.36 4.149c1.047 1.765 1.687 3.789 1.922 6.07h-5.86c-.156-1.469-.5-2.727-1.031-3.773-.516-1.047-1.281-1.844-2.297-2.391-1.016-.563-2.344-.844-3.984-.844-1.344 0-2.516.25-3.516.75s-1.836 1.235-2.508 2.203c-.672.969-1.179 2.164-1.523 3.586-.328 1.406-.492 3.016-.492 4.828v2.883c0 1.719.148 3.281.445 4.688.312 1.39.781 2.586 1.406 3.586.641 1 1.453 1.773 2.438 2.32.984.547 2.164.82 3.539.82 1.672 0 3.023-.265 4.055-.797 1.046-.531 1.835-1.304 2.367-2.32.547-1.031.906-2.289 1.078-3.773zm25.898 5.132v-19.382h5.672v25.359h-5.344zm.797-5.273 1.899-.047c0 1.703-.188 3.274-.563 4.711-.375 1.422-.953 2.664-1.734 3.727-.782 1.047-1.782 1.867-3 2.461-1.219.578-2.68.867-4.383.867-1.235 0-2.367-.18-3.399-.539-1.031-.36-1.921-.914-2.671-1.664-.735-.75-1.305-1.727-1.711-2.93-.407-1.203-.61-2.641-.61-4.313v-16.382h5.649v16.429c0 .922.109 1.696.328 2.321.219.609.515 1.101.89 1.476s.813.641 1.313.797 1.031.234 1.594.234c1.609 0 2.875-.312 3.797-.937.937-.641 1.601-1.5 1.992-2.578.406-1.078.609-2.289.609-3.633zm24.891 4.383c0-.563-.141-1.071-.422-1.524-.281-.468-.82-.89-1.617-1.265-.782-.375-1.938-.719-3.469-1.032-1.344-.296-2.578-.648-3.703-1.054-1.11-.422-2.063-.93-2.86-1.524-.796-.593-1.414-1.296-1.851-2.109-.438-.813-.656-1.75-.656-2.813 0-1.031.226-2.007.679-2.929s1.102-1.735 1.946-2.438c.843-.703 1.867-1.257 3.07-1.664 1.219-.406 2.578-.609 4.078-.609 2.125 0 3.945.359 5.461 1.078 1.531.703 2.703 1.664 3.516 2.883.812 1.203 1.218 2.562 1.218 4.078h-5.648c0-.672-.172-1.297-.516-1.875-.328-.594-.828-1.07-1.5-1.43-.672-.375-1.515-.562-2.531-.562-.969 0-1.773.156-2.414.468-.625.297-1.094.688-1.406 1.172-.297.485-.446 1.016-.446 1.594 0 .422.079.805.235 1.149.172.328.453.632.844.914.39.265.921.515 1.593.75.688.234 1.547.461 2.578.679 1.938.407 3.602.93 4.993 1.571 1.406.625 2.484 1.437 3.234 2.437.75.984 1.125 2.234 1.125 3.75 0 1.125-.242 2.156-.727 3.094-.468.922-1.156 1.726-2.062 2.414-.906.672-1.992 1.195-3.258 1.57-1.25.375-2.656.563-4.219.563-2.296 0-4.242-.407-5.836-1.219-1.593-.828-2.804-1.883-3.632-3.164-.813-1.297-1.219-2.641-1.219-4.031h5.461c.062 1.047.351 1.883.867 2.507.531.61 1.187 1.055 1.969 1.336.797.266 1.617.399 2.461.399 1.015 0 1.867-.133 2.554-.399.688-.281 1.211-.656 1.571-1.125.359-.484.539-1.031.539-1.64zm22.101-18.492v4.125h-14.297v-4.125zm-10.172-6.211h5.649v24.562c0 .781.109 1.383.328 1.805.234.406.555.68.961.82.406.141.883.211 1.43.211.39 0 .765-.023 1.125-.07.359-.047.648-.094.867-.141l.023 4.313c-.469.14-1.015.265-1.64.375-.61.109-1.313.164-2.11.164-1.297 0-2.445-.227-3.445-.68-1-.469-1.781-1.227-2.344-2.273-.562-1.047-.844-2.438-.844-4.172zm12.891 19.172v-.54c0-1.828.266-3.523.797-5.085.531-1.579 1.297-2.946 2.297-4.102 1.015-1.172 2.25-2.078 3.703-2.719 1.469-.656 3.125-.984 4.969-.984 1.859 0 3.515.328 4.968.984 1.469.641 2.711 1.547 3.727 2.719 1.016 1.156 1.789 2.523 2.32 4.102.532 1.562.797 3.257.797 5.085v.54c0 1.828-.265 3.523-.797 5.086-.531 1.562-1.304 2.929-2.32 4.101-1.016 1.156-2.25 2.063-3.703 2.719-1.453.64-3.102.961-4.945.961-1.86 0-3.524-.321-4.993-.961-1.453-.656-2.687-1.563-3.703-2.719-1.015-1.172-1.789-2.539-2.32-4.101-.531-1.563-.797-3.258-.797-5.086zm5.649-.54v.54c0 1.14.117 2.218.351 3.234s.602 1.906 1.102 2.672c.5.765 1.14 1.367 1.921 1.804.782.438 1.711.657 2.79.657 1.046 0 1.953-.219 2.718-.657.782-.437 1.422-1.039 1.922-1.804.5-.766.867-1.656 1.102-2.672.25-1.016.375-2.094.375-3.234v-.54c0-1.124-.125-2.187-.375-3.187-.235-1.016-.61-1.914-1.125-2.695-.5-.782-1.141-1.391-1.922-1.828-.766-.454-1.68-.68-2.742-.68-1.063 0-1.985.226-2.766.68-.766.437-1.398 1.046-1.898 1.828-.5.781-.868 1.679-1.102 2.695-.234 1-.351 2.063-.351 3.187zm28.312-7.265v20.203h-5.648v-25.359h5.32zm-.914 6.586-1.922-.024c0-1.75.219-3.367.656-4.851.438-1.485 1.078-2.774 1.922-3.867.844-1.11 1.891-1.961 3.141-2.555 1.265-.609 2.726-.914 4.383-.914 1.156 0 2.211.172 3.164.516.968.328 1.804.851 2.508 1.57.718.719 1.265 1.64 1.64 2.765.391 1.125.586 2.485.586 4.079v16.898h-5.648v-16.406c0-1.235-.188-2.203-.563-2.906-.359-.704-.883-1.204-1.57-1.5-.672-.313-1.477-.469-2.414-.469-1.063 0-1.969.203-2.719.609-.734.406-1.336.961-1.805 1.664-.468.703-.812 1.516-1.031 2.438s-.328 1.906-.328 2.953zm15.726-1.5-2.648.586c0-1.531.211-2.977.633-4.336.437-1.375 1.07-2.578 1.898-3.61.844-1.046 1.883-1.867 3.117-2.461 1.235-.593 2.649-.89 4.243-.89 1.297 0 2.453.18 3.468.539 1.032.344 1.907.891 2.625 1.641.719.75 1.266 1.726 1.641 2.929.375 1.188.563 2.625.563 4.313v16.406h-5.672v-16.43c0-1.281-.188-2.273-.563-2.976-.359-.703-.875-1.188-1.547-1.453-.672-.282-1.476-.422-2.414-.422-.875 0-1.648.164-2.32.492-.656.312-1.211.758-1.664 1.336-.453.562-.797 1.211-1.031 1.945-.219.735-.329 1.531-.329 2.391zm32.532 15.586c-1.875 0-3.571-.305-5.086-.914-1.5-.625-2.781-1.493-3.844-2.602-1.047-1.109-1.852-2.414-2.414-3.914s-.844-3.117-.844-4.851v-.938c0-1.984.289-3.781.867-5.391.579-1.609 1.383-2.984 2.415-4.125 1.031-1.156 2.25-2.039 3.656-2.648s2.929-.914 4.57-.914c1.813 0 3.398.305 4.758.914 1.359.609 2.484 1.469 3.375 2.578.906 1.094 1.578 2.398 2.015 3.914.454 1.516.68 3.188.68 5.016v2.414h-19.594v-4.055h14.016v-.445c-.031-1.016-.234-1.969-.609-2.86-.36-.89-.914-1.609-1.664-2.156s-1.75-.82-3-.82c-.938 0-1.774.203-2.508.609-.719.391-1.321.961-1.805 1.711s-.859 1.656-1.125 2.719c-.25 1.047-.375 2.227-.375 3.539v.938c0 1.109.149 2.14.445 3.093.313.938.766 1.758 1.36 2.461s1.312 1.258 2.156 1.664c.844.391 1.805.586 2.883.586 1.359 0 2.57-.273 3.633-.82 1.062-.547 1.984-1.32 2.765-2.32l2.977 2.882c-.547.797-1.258 1.563-2.133 2.297-.875.719-1.945 1.305-3.211 1.758-1.25.453-2.703.68-4.359.68zm20.226-21v20.531h-5.648v-25.359h5.39zm7.758-4.992-.047 5.25c-.343-.063-.719-.11-1.125-.141-.39-.031-.781-.047-1.172-.047-.968 0-1.82.141-2.554.422-.735.266-1.352.656-1.852 1.172-.484.5-.859 1.109-1.125 1.828-.265.719-.422 1.523-.469 2.414l-1.289.094c0-1.594.157-3.071.469-4.43.313-1.359.781-2.555 1.406-3.586.641-1.031 1.438-1.836 2.391-2.414.969-.578 2.086-.867 3.351-.867.344 0 .711.031 1.102.094.406.062.711.132.914.211zm34.008 16.734c0-.703-.109-1.328-.328-1.875-.203-.547-.57-1.047-1.102-1.5-.531-.453-1.281-.891-2.25-1.313-.953-.437-2.172-.882-3.656-1.335-1.625-.5-3.125-1.055-4.5-1.665-1.359-.625-2.547-1.343-3.562-2.156-1.016-.828-1.805-1.773-2.368-2.836-.562-1.078-.843-2.32-.843-3.726 0-1.391.289-2.657.867-3.797.594-1.141 1.429-2.125 2.508-2.953 1.093-.844 2.382-1.493 3.867-1.946 1.484-.468 3.125-.703 4.922-.703 2.531 0 4.711.469 6.539 1.406 1.843.938 3.258 2.196 4.242 3.774 1 1.578 1.5 3.32 1.5 5.226h-5.836c0-1.124-.242-2.117-.727-2.976-.468-.875-1.187-1.563-2.156-2.063-.953-.5-2.164-.75-3.633-.75-1.39 0-2.547.211-3.468.633-.922.422-1.61.992-2.063 1.711s-.68 1.531-.68 2.438c0 .64.149 1.226.446 1.757.297.516.75 1 1.359 1.454.609.437 1.375.851 2.297 1.242.922.39 2.008.765 3.258 1.125 1.89.562 3.539 1.187 4.945 1.875 1.406.672 2.578 1.437 3.516 2.297.937.859 1.64 1.836 2.109 2.929.469 1.078.703 2.305.703 3.68 0 1.438-.289 2.734-.867 3.891-.578 1.14-1.406 2.117-2.484 2.929-1.063.797-2.344 1.414-3.844 1.852-1.485.422-3.141.633-4.969.633-1.64 0-3.258-.219-4.851-.657-1.579-.437-3.016-1.101-4.313-1.992-1.297-.906-2.328-2.031-3.094-3.375-.765-1.359-1.148-2.945-1.148-4.757h5.883c0 1.109.187 2.054.562 2.835.391.782.93 1.422 1.617 1.922.688.485 1.485.844 2.391 1.078.922.235 1.906.352 2.953.352 1.375 0 2.524-.195 3.445-.586.938-.391 1.641-.937 2.11-1.641.469-.703.703-1.515.703-2.437zm25.805 2.812v-19.382h5.671v25.359h-5.343zm.797-5.273 1.898-.047c0 1.703-.188 3.274-.563 4.711-.375 1.422-.953 2.664-1.734 3.727-.781 1.047-1.781 1.867-3 2.461-1.219.578-2.68.867-4.383.867-1.234 0-2.367-.18-3.398-.539-1.031-.36-1.922-.914-2.672-1.664-.734-.75-1.305-1.727-1.711-2.93s-.609-2.641-.609-4.313v-16.382h5.648v16.429c0 .922.109 1.696.328 2.321.219.609.516 1.101.891 1.476s.812.641 1.312.797 1.032.234 1.594.234c1.609 0 2.875-.312 3.797-.937.937-.641 1.602-1.5 1.992-2.578.406-1.078.61-2.289.61-3.633zm21.023 7.219c.922 0 1.75-.18 2.484-.539.75-.375 1.352-.891 1.805-1.547.469-.656.727-1.414.773-2.274h5.321c-.032 1.641-.516 3.133-1.453 4.477-.938 1.344-2.18 2.414-3.727 3.211-1.547.781-3.258 1.172-5.133 1.172-1.937 0-3.625-.328-5.062-.985-1.438-.672-2.633-1.593-3.586-2.765s-1.672-2.524-2.156-4.055c-.469-1.531-.704-3.172-.704-4.922v-.82c0-1.75.235-3.391.704-4.922.484-1.547 1.203-2.906 2.156-4.078s2.148-2.086 3.586-2.742c1.437-.672 3.117-1.008 5.039-1.008 2.031 0 3.812.406 5.344 1.219 1.531.797 2.734 1.914 3.609 3.351.891 1.422 1.351 3.078 1.383 4.969h-5.321c-.046-.938-.281-1.781-.703-2.531-.406-.766-.984-1.375-1.734-1.828-.734-.454-1.617-.68-2.648-.68-1.141 0-2.086.234-2.836.703-.75.453-1.336 1.078-1.758 1.875-.422.781-.727 1.664-.914 2.648-.172.969-.258 1.977-.258 3.024v.82c0 1.047.086 2.063.258 3.047s.468 1.867.89 2.649c.438.765 1.032 1.382 1.782 1.851.75.453 1.703.68 2.859.68zm25.078 0c.922 0 1.75-.18 2.484-.539.75-.375 1.352-.891 1.805-1.547.469-.656.727-1.414.774-2.274h5.32c-.031 1.641-.516 3.133-1.453 4.477-.938 1.344-2.18 2.414-3.727 3.211-1.547.781-3.258 1.172-5.133 1.172-1.937 0-3.625-.328-5.062-.985-1.438-.672-2.633-1.593-3.586-2.765s-1.672-2.524-2.156-4.055c-.469-1.531-.703-3.172-.703-4.922v-.82c0-1.75.234-3.391.703-4.922.484-1.547 1.203-2.906 2.156-4.078s2.148-2.086 3.586-2.742c1.437-.672 3.117-1.008 5.039-1.008 2.031 0 3.812.406 5.344 1.219 1.531.797 2.734 1.914 3.609 3.351.891 1.422 1.352 3.078 1.383 4.969h-5.32c-.047-.938-.282-1.781-.704-2.531-.406-.766-.984-1.375-1.734-1.828-.734-.454-1.617-.68-2.648-.68-1.141 0-2.086.234-2.836.703-.75.453-1.336 1.078-1.758 1.875-.422.781-.727 1.664-.914 2.648-.172.969-.258 1.977-.258 3.024v.82c0 1.047.086 2.063.258 3.047s.469 1.867.89 2.649c.438.765 1.032 1.382 1.782 1.851.75.453 1.703.68 2.859.68zm25.899 4.5c-1.876 0-3.571-.305-5.086-.914-1.5-.625-2.782-1.493-3.844-2.602-1.047-1.109-1.852-2.414-2.414-3.914-.563-1.5-.844-3.117-.844-4.851v-.938c0-1.984.289-3.781.867-5.391.578-1.609 1.383-2.984 2.414-4.125 1.031-1.156 2.25-2.039 3.657-2.648 1.406-.609 2.929-.914 4.57-.914 1.812 0 3.398.305 4.758.914 1.359.609 2.484 1.469 3.375 2.578.906 1.094 1.578 2.398 2.015 3.914.453 1.516.68 3.188.68 5.016v2.414h-19.594v-4.055h14.016v-.445c-.031-1.016-.235-1.969-.61-2.86-.359-.89-.914-1.609-1.664-2.156s-1.75-.82-3-.82c-.937 0-1.773.203-2.507.609-.719.391-1.321.961-1.805 1.711s-.86 1.656-1.125 2.719c-.25 1.047-.375 2.227-.375 3.539v.938c0 1.109.148 2.14.445 3.093.313.938.766 1.758 1.36 2.461.593.703 1.312 1.258 2.156 1.664.844.391 1.805.586 2.883.586 1.359 0 2.57-.273 3.632-.82 1.063-.547 1.985-1.32 2.766-2.32l2.977 2.882c-.547.797-1.258 1.563-2.133 2.297-.875.719-1.946 1.305-3.211 1.758-1.25.453-2.703.68-4.359.68zm28.781-7.336c0-.563-.141-1.071-.422-1.524-.281-.468-.82-.89-1.617-1.265-.782-.375-1.938-.719-3.469-1.032-1.344-.296-2.578-.648-3.703-1.054-1.11-.422-2.063-.93-2.86-1.524-.796-.593-1.414-1.296-1.851-2.109-.438-.813-.656-1.75-.656-2.813 0-1.031.226-2.007.679-2.929s1.102-1.735 1.946-2.438c.843-.703 1.867-1.257 3.07-1.664 1.219-.406 2.578-.609 4.078-.609 2.125 0 3.945.359 5.461 1.078 1.531.703 2.703 1.664 3.516 2.883.812 1.203 1.218 2.562 1.218 4.078h-5.648c0-.672-.172-1.297-.516-1.875-.328-.594-.828-1.07-1.5-1.43-.672-.375-1.515-.562-2.531-.562-.969 0-1.773.156-2.414.468-.625.297-1.094.688-1.406 1.172-.297.485-.446 1.016-.446 1.594 0 .422.079.805.235 1.149.172.328.453.632.844.914.39.265.921.515 1.593.75.688.234 1.547.461 2.578.679 1.938.407 3.602.93 4.993 1.571 1.406.625 2.484 1.437 3.234 2.437.75.984 1.125 2.234 1.125 3.75 0 1.125-.242 2.156-.727 3.094-.468.922-1.156 1.726-2.062 2.414-.906.672-1.992 1.195-3.258 1.57-1.25.375-2.656.563-4.219.563-2.296 0-4.242-.407-5.836-1.219-1.593-.828-2.804-1.883-3.632-3.164-.813-1.297-1.219-2.641-1.219-4.031h5.461c.062 1.047.351 1.883.867 2.507.531.61 1.187 1.055 1.969 1.336.797.266 1.617.399 2.461.399 1.015 0 1.867-.133 2.554-.399.688-.281 1.211-.656 1.571-1.125.359-.484.539-1.031.539-1.64zm24.703 0c0-.563-.141-1.071-.422-1.524-.281-.468-.82-.89-1.617-1.265-.781-.375-1.938-.719-3.469-1.032-1.344-.296-2.578-.648-3.703-1.054-1.109-.422-2.063-.93-2.859-1.524-.797-.593-1.414-1.296-1.852-2.109s-.656-1.75-.656-2.813c0-1.031.226-2.007.679-2.929.454-.922 1.102-1.735 1.946-2.438.843-.703 1.867-1.257 3.07-1.664 1.219-.406 2.578-.609 4.078-.609 2.125 0 3.945.359 5.461 1.078 1.531.703 2.703 1.664 3.516 2.883.812 1.203 1.218 2.562 1.218 4.078h-5.648c0-.672-.172-1.297-.516-1.875-.328-.594-.828-1.07-1.5-1.43-.671-.375-1.515-.562-2.531-.562-.969 0-1.773.156-2.414.468-.625.297-1.094.688-1.406 1.172-.297.485-.445 1.016-.445 1.594 0 .422.078.805.234 1.149.172.328.453.632.844.914.39.265.922.515 1.593.75.688.234 1.547.461 2.579.679 1.937.407 3.601.93 4.992 1.571 1.406.625 2.484 1.437 3.234 2.437.75.984 1.125 2.234 1.125 3.75 0 1.125-.242 2.156-.726 3.094-.469.922-1.157 1.726-2.063 2.414-.906.672-1.992 1.195-3.258 1.57-1.25.375-2.656.563-4.218.563-2.297 0-4.243-.407-5.836-1.219-1.594-.828-2.805-1.883-3.633-3.164-.813-1.297-1.219-2.641-1.219-4.031h5.461c.062 1.047.351 1.883.867 2.507.531.61 1.188 1.055 1.969 1.336.797.266 1.617.399 2.461.399 1.015 0 1.867-.133 2.554-.399.688-.281 1.211-.656 1.571-1.125.359-.484.539-1.031.539-1.64zm-296.672 62.867h-7.289l.047-4.664h7.242c2.109 0 3.875-.461 5.297-1.383 1.437-.922 2.515-2.242 3.234-3.961.735-1.719 1.102-3.765 1.102-6.14v-1.852c0-1.844-.211-3.477-.633-4.898-.406-1.422-1.016-2.618-1.828-3.586-.797-.969-1.781-1.704-2.953-2.204-1.157-.5-2.492-.75-4.008-.75h-7.641v-4.687h7.641c2.266 0 4.336.383 6.211 1.148 1.875.75 3.492 1.836 4.851 3.258 1.375 1.422 2.43 3.125 3.165 5.11.734 1.984 1.101 4.203 1.101 6.656v1.805c0 2.453-.367 4.671-1.101 6.656-.735 1.984-1.79 3.687-3.165 5.109-1.375 1.406-3.015 2.492-4.921 3.258-1.891.75-4.008 1.125-6.352 1.125zm-4.031-34.125v34.125h-5.883v-34.125zm39.211 29.039v-12.094c0-.906-.164-1.687-.492-2.343-.329-.657-.829-1.165-1.5-1.524-.657-.359-1.485-.539-2.485-.539-.922 0-1.719.156-2.391.469-.671.312-1.195.734-1.57 1.265-.375.532-.562 1.133-.562 1.805h-5.625c0-1 .242-1.969.726-2.906.485-.938 1.188-1.774 2.11-2.508.921-.734 2.023-1.312 3.304-1.734 1.282-.422 2.719-.633 4.313-.633 1.906 0 3.594.32 5.062.961 1.485.64 2.649 1.609 3.492 2.906.86 1.281 1.29 2.891 1.29 4.828v11.274c0 1.156.078 2.195.234 3.117.172.906.414 1.695.726 2.367v.375h-5.789c-.265-.609-.476-1.383-.632-2.32-.141-.953-.211-1.875-.211-2.766zm.82-10.336.047 3.492h-4.055c-1.047 0-1.969.102-2.765.305-.797.187-1.461.469-1.993.844-.531.375-.929.828-1.195 1.359s-.398 1.133-.398 1.805.156 1.289.468 1.851c.313.547.766.977 1.36 1.289.609.313 1.343.469 2.203.469 1.156 0 2.164-.234 3.023-.703.875-.484 1.563-1.07 2.063-1.758.5-.703.765-1.367.797-1.992l1.828 2.508c-.188.641-.508 1.328-.961 2.062-.453.735-1.047 1.438-1.781 2.11-.719.656-1.586 1.195-2.602 1.617-1 .422-2.156.633-3.469.633-1.656 0-3.132-.328-4.429-.985-1.297-.672-2.313-1.57-3.047-2.695-.735-1.141-1.102-2.43-1.102-3.867 0-1.344.25-2.531.75-3.563.516-1.047 1.266-1.921 2.25-2.625 1-.703 2.219-1.234 3.656-1.593 1.438-.375 3.079-.563 4.922-.563zm24.984 8.555c0-.563-.14-1.071-.422-1.524-.281-.468-.82-.89-1.617-1.265-.781-.375-1.937-.719-3.468-1.032-1.344-.296-2.579-.648-3.704-1.054-1.109-.422-2.062-.93-2.859-1.524-.797-.593-1.414-1.296-1.852-2.109-.437-.813-.656-1.75-.656-2.813 0-1.031.227-2.007.68-2.929s1.102-1.735 1.945-2.438c.844-.703 1.867-1.257 3.071-1.664 1.218-.406 2.578-.609 4.078-.609 2.125 0 3.945.359 5.461 1.078 1.531.703 2.703 1.664 3.515 2.883.813 1.203 1.219 2.562 1.219 4.078h-5.648c0-.672-.172-1.297-.516-1.875-.328-.594-.828-1.07-1.5-1.43-.672-.375-1.516-.562-2.531-.562-.969 0-1.774.156-2.414.468-.625.297-1.094.688-1.407 1.172-.297.485-.445 1.016-.445 1.594 0 .422.078.805.234 1.149.172.328.454.632.844.914.391.265.922.515 1.594.75.687.234 1.547.461 2.578.679 1.938.407 3.602.93 4.992 1.571 1.406.625 2.485 1.437 3.235 2.437.75.984 1.125 2.234 1.125 3.75 0 1.125-.243 2.156-.727 3.094-.469.922-1.156 1.726-2.062 2.414-.907.672-1.993 1.195-3.258 1.57-1.25.375-2.657.563-4.219.563-2.297 0-4.242-.407-5.836-1.219-1.594-.828-2.805-1.883-3.633-3.164-.812-1.297-1.219-2.641-1.219-4.031h5.461c.063 1.047.352 1.883.868 2.507.531.61 1.187 1.055 1.968 1.336.797.266 1.618.399 2.461.399 1.016 0 1.868-.133 2.555-.399.687-.281 1.211-.656 1.57-1.125.36-.484.539-1.031.539-1.64zm16.055-29.133v36h-5.625v-36zm-.984 22.383-1.828-.024c.015-1.75.257-3.367.726-4.851.485-1.485 1.156-2.774 2.016-3.867.875-1.11 1.922-1.961 3.14-2.555 1.219-.609 2.571-.914 4.055-.914 1.25 0 2.375.172 3.375.516 1.016.343 1.891.898 2.625 1.664.734.75 1.289 1.734 1.664 2.953.391 1.203.586 2.672.586 4.406v16.289h-5.672v-16.336c0-1.219-.18-2.187-.539-2.906-.344-.719-.851-1.235-1.523-1.547-.672-.328-1.492-.492-2.461-.492-1.016 0-1.914.203-2.696.609-.765.406-1.406.961-1.921 1.664-.516.703-.907 1.516-1.172 2.438-.25.922-.375 1.906-.375 2.953zm22.101-22.383h5.649v30.586l-.539 5.414h-5.11zm22.196 23.086v.492c0 1.875-.211 3.602-.633 5.18-.407 1.562-1.031 2.922-1.875 4.078-.828 1.156-1.86 2.055-3.094 2.695-1.219.625-2.633.938-4.242.938-1.578 0-2.953-.297-4.125-.891s-2.156-1.437-2.953-2.531c-.782-1.094-1.414-2.399-1.899-3.914-.484-1.516-.828-3.188-1.031-5.016v-1.57c.203-1.844.547-3.516 1.031-5.016.485-1.515 1.117-2.82 1.899-3.914.797-1.109 1.773-1.961 2.929-2.555 1.172-.593 2.539-.89 4.102-.89 1.625 0 3.055.312 4.289.937 1.25.625 2.289 1.516 3.117 2.672.828 1.141 1.445 2.5 1.852 4.078.422 1.579.633 3.321.633 5.227zm-5.649.492v-.492c0-1.141-.094-2.211-.281-3.211-.188-1.016-.5-1.906-.938-2.672-.422-.765-1-1.367-1.734-1.805-.719-.453-1.617-.679-2.695-.679-1 0-1.86.172-2.578.515-.719.344-1.321.813-1.805 1.407-.484.593-.867 1.281-1.149 2.062-.265.781-.445 1.625-.539 2.531v4.243c.141 1.171.438 2.25.891 3.234.469.969 1.125 1.75 1.969 2.344.844.578 1.929.867 3.258.867 1.046 0 1.929-.211 2.648-.633s1.289-1.008 1.711-1.758c.437-.765.75-1.656.937-2.672.204-1.015.305-2.109.305-3.281zm9.352.024v-.54c0-1.828.265-3.523.797-5.085.531-1.579 1.296-2.946 2.296-4.102 1.016-1.172 2.25-2.078 3.704-2.719 1.468-.656 3.125-.984 4.968-.984 1.86 0 3.516.328 4.969.984 1.469.641 2.711 1.547 3.727 2.719 1.015 1.156 1.789 2.523 2.32 4.102.531 1.562.797 3.257.797 5.085v.54c0 1.828-.266 3.523-.797 5.086-.531 1.562-1.305 2.929-2.32 4.101-1.016 1.156-2.25 2.063-3.704 2.719-1.453.64-3.101.961-4.945.961-1.859 0-3.523-.321-4.992-.961-1.453-.656-2.687-1.563-3.703-2.719-1.016-1.172-1.789-2.539-2.32-4.101-.532-1.563-.797-3.258-.797-5.086zm5.648-.54v.54c0 1.14.117 2.218.352 3.234.234 1.016.601 1.906 1.101 2.672.5.765 1.141 1.367 1.922 1.804.781.438 1.711.657 2.789.657 1.047 0 1.953-.219 2.719-.657.781-.437 1.422-1.039 1.922-1.804.5-.766.867-1.656 1.101-2.672.25-1.016.375-2.094.375-3.234v-.54c0-1.124-.125-2.187-.375-3.187-.234-1.016-.609-1.914-1.125-2.695-.5-.782-1.14-1.391-1.922-1.828-.765-.454-1.679-.68-2.742-.68-1.062 0-1.984.226-2.765.68-.766.437-1.399 1.046-1.899 1.828-.5.781-.867 1.679-1.101 2.695-.235 1-.352 2.063-.352 3.187zm36.961 7.852v-12.094c0-.906-.164-1.687-.492-2.343-.328-.657-.828-1.165-1.5-1.524-.656-.359-1.484-.539-2.484-.539-.922 0-1.719.156-2.391.469-.672.312-1.195.734-1.57 1.265-.375.532-.563 1.133-.563 1.805h-5.625c0-1 .242-1.969.727-2.906.484-.938 1.187-1.774 2.109-2.508s2.023-1.312 3.305-1.734c1.281-.422 2.718-.633 4.312-.633 1.906 0 3.594.32 5.063.961 1.484.64 2.648 1.609 3.492 2.906.859 1.281 1.289 2.891 1.289 4.828v11.274c0 1.156.078 2.195.234 3.117.172.906.414 1.695.727 2.367v.375h-5.789c-.266-.609-.477-1.383-.633-2.32-.141-.953-.211-1.875-.211-2.766zm.82-10.336.047 3.492h-4.054c-1.047 0-1.969.102-2.766.305-.797.187-1.461.469-1.992.844s-.93.828-1.196 1.359c-.265.531-.398 1.133-.398 1.805s.156 1.289.469 1.851c.312.547.765.977 1.359 1.289.609.313 1.344.469 2.203.469 1.156 0 2.164-.234 3.024-.703.875-.484 1.562-1.07 2.062-1.758.5-.703.766-1.367.797-1.992l1.828 2.508c-.187.641-.508 1.328-.961 2.062-.453.735-1.047 1.438-1.781 2.11-.719.656-1.586 1.195-2.602 1.617-1 .422-2.156.633-3.468.633-1.657 0-3.133-.328-4.43-.985-1.297-.672-2.313-1.57-3.047-2.695-.734-1.141-1.101-2.43-1.101-3.867 0-1.344.25-2.531.75-3.563.515-1.047 1.265-1.921 2.25-2.625 1-.703 2.218-1.234 3.656-1.593 1.437-.375 3.078-.563 4.922-.563zm16.43-5.109v20.531h-5.648v-25.359h5.39zm7.758-4.992-.047 5.25c-.344-.063-.719-.11-1.125-.141-.391-.031-.781-.047-1.172-.047-.969 0-1.82.141-2.555.422-.734.266-1.351.656-1.851 1.172-.484.5-.86 1.109-1.125 1.828-.266.719-.422 1.523-.469 2.414l-1.289.094c0-1.594.156-3.071.469-4.43.312-1.359.781-2.555 1.406-3.586.641-1.031 1.438-1.836 2.391-2.414.968-.578 2.086-.867 3.351-.867.344 0 .711.031 1.102.094.406.062.711.132.914.211zm18.539 20.273v-30.75h5.672v36h-5.133zm-16.5-7.148v-.493c0-1.921.227-3.671.68-5.25.453-1.593 1.109-2.961 1.968-4.101.86-1.156 1.907-2.039 3.141-2.649 1.234-.625 2.625-.937 4.172-.937 1.531 0 2.875.297 4.031.89 1.156.594 2.141 1.446 2.953 2.555.813 1.094 1.461 2.406 1.946 3.938.484 1.515.828 3.203 1.031 5.062v1.571c-.203 1.812-.547 3.468-1.031 4.968-.485 1.5-1.133 2.797-1.946 3.891-.812 1.094-1.804 1.937-2.976 2.531-1.157.594-2.508.891-4.055.891-1.531 0-2.914-.321-4.148-.961-1.219-.641-2.258-1.539-3.118-2.696-.859-1.156-1.515-2.515-1.968-4.078-.453-1.578-.68-3.289-.68-5.132zm5.648-.493v.493c0 1.156.102 2.234.305 3.234.219 1 .555 1.883 1.008 2.648.453.75 1.039 1.344 1.758 1.782.734.422 1.609.632 2.625.632 1.281 0 2.336-.281 3.164-.843.828-.563 1.476-1.321 1.945-2.274.484-.969.813-2.047.984-3.234v-4.242c-.093-.922-.289-1.782-.586-2.578-.281-.797-.664-1.493-1.148-2.086-.484-.61-1.086-1.079-1.805-1.407-.703-.343-1.539-.515-2.507-.515-1.032 0-1.907.219-2.625.656-.719.437-1.313 1.039-1.782 1.805-.453.765-.789 1.656-1.007 2.672-.219 1.015-.329 2.101-.329 3.257z" fill="#fff"/><path d="m700.5 300v100" stroke="#395370"/><g stroke-miterlimit="10"><path d="m-223-90.8972c135.8499 54.7985 209.0778 127.0712 251.3107 186.1953 35.2056 49.2919 34.581 69.4559 71.9643 106.2319 81.125 79.802 236.528 134.833 311.845 66.254 37.102-33.782 23.378-76.593 41.124-157.637 15.965-72.9051 57.243-173.1746 172.486-282.147" stroke="#9cef54" stroke-opacity=".7"/><path d="m-222.728-73.2172c132.1363 47.095 204.6318 115.0861 246.8427 170.4186 35.5166 46.5706 38.4045 65.1936 78.1123 101.3376 83.297 75.822 229.241 128.609 304.664 64.621 38.85-32.957 30.013-75.036 50.806-155.843 18.307-71.1406 60.427-169.6955 173.683-277.691" stroke="#9cef54" stroke-opacity=".7"/><path d="m-222.456-55.5398c128.4205 39.394 200.24 103.1207 242.3823 154.6443 35.9012 43.8935 42.157 60.9345 84.2597 96.4435 85.287 71.93 222.18 122.508 297.488 62.989 40.682-32.156 36.579-73.438 60.486-154.046 20.575-69.3606 63.611-166.2132 174.888-273.226" stroke="#9cef54" stroke-opacity=".7"/><path d="m-222.185-37.8599c124.7052 31.6931 195.9197 91.17 237.9224 138.8819 36.3323 41.249 45.8385 56.678 90.4176 91.533 87.107 68.138 215.329 116.546 290.306 61.358 42.6-31.353 43.08-71.805 70.169-152.251 22.747-67.5627 66.795-162.7277 176.076-268.766" stroke="#9cef54" stroke-opacity=".7"/><path d="m-221.912-20.1824c121.001 23.98718 191.6819 79.2216 233.4617 123.0954 36.827 38.669 49.4783 52.469 96.5513 86.651 88.774 64.444 208.679 110.729 283.126 59.724 44.604-30.556 49.511-70.151 79.852-150.4554 24.846-65.7597 69.982-159.2443 177.272-264.2926" stroke="#9cef54" stroke-opacity=".7"/><path d="m-221.64-2.50484c117.276 16.28624 187.5347 67.27584 229.00099 107.32184 37.40021 36.119 53.03001 48.283 102.69901 81.754 90.308 60.863 202.208 105.063 275.945 58.095 46.688-29.741 55.847-68.486 89.534-148.6624 26.862-63.9594 73.166-155.7588 178.469-259.8446" stroke="#9cef54" stroke-opacity=".7"/><path d="m-221.369 15.1725c113.56 8.573 183.4964 55.3055 224.54133 91.5475 38.05667 33.603 56.54007 44.136 108.84467 76.86 91.731 57.388 195.9 99.552 268.766 56.462 48.848-28.889 62.132-66.818 99.216-146.8652 28.803-62.1712 76.361-152.2756 179.665-255.3838" stroke="#9cef54" stroke-opacity=".7"/><path d="m-221.087 32.8525c109.844.8793 179.5743 43.3058 220.08042 75.7705 38.81108 31.108 60.01088 40.038 114.99058 71.966 93.054 54.022 189.74 94.195 261.586 54.828 51.085-27.989 68.322-65.154 108.899-145.0692 30.654-60.393 79.525-148.7828 180.853-250.9238" stroke="#9cef54" stroke-opacity=".7"/><path d="m-220.825 50.53c106.129-6.8216 175.7804 31.2547 215.62024 59.999 39.68066 28.619 63.42046 36.006 121.13876 67.067 94.303 50.767 183.707 88.998 254.404 53.199 53.398-27.032 74.431-63.518 118.582-143.2763 32.459-58.6367 82.719-145.307 182.073-246.4637" stroke="#9cef54" stroke-opacity=".7"/><path d="m-220.553 68.2001c102.415-14.5226 172.1155 19.13 211.15932 44.2239 40.64328 26.121 66.80068 32.009 127.28468 62.174 95.473 47.612 177.769 83.947 247.225 51.565 55.761-25.995 80.461-61.909 128.264-141.4808 34.189-56.9074 85.906-141.8215 183.256-242.0032" stroke="#9cef54" stroke-opacity=".7"/><path d="m-220.281 85.8875c98.712-22.2261 168.5844 6.9098 206.7023 28.4475 41.7333 23.583 70.149 28.088 133.4297 57.277 96.6 44.56 171.923 79.048 240.043 49.937 58.191-24.869 86.411-60.344 137.947-139.6884 35.857-55.2075 89.09-138.336 184.454-237.5376" stroke="#9cef54" stroke-opacity=".7"/><path d="m-220.009 103.565c94.984-29.9296 165.1768-5.4256 202.2414 12.673 42.9433 20.972 73.4827 24.235 139.5756 52.384 97.693 41.601 166.149 74.286 232.864 48.302 60.675-23.629 92.287-58.825 147.629-137.8901 37.476-53.5444 92.275-134.8554 185.649-233.0819" stroke="#9cef54" stroke-opacity=".7"/><path d="m-219.737 121.245c91.268-37.6331 161.8771-17.901 197.7807-3.101 44.266 18.246 76.7747 20.445 145.7233 47.487 98.758 38.733 160.423 69.661 225.685 46.669 63.195-22.266 98.09-57.363 157.309-136.0952 39.049-51.9155 95.459-131.3698 186.847-228.6218" stroke="#9cef54" stroke-opacity=".7"/><path d="m-219.466 138.922c87.555-45.3336 158.6691-30.524 193.3211-18.875 45.689 15.36 80.0618 16.73 151.8639 42.591 99.809 35.947 154.733 65.154 218.506 45.04 65.774-20.759 103.826-55.972 166.992-134.3022 40.589-50.3283 98.648-127.8917 188.047-224.1538" stroke="#9cef54" stroke-opacity=".7"/><path d="m-219.194 156.6c83.839-53.038 155.5191-43.313 188.8508-34.65 47.1857 12.262 83.3392 13.083 158.0172 37.697 100.855 33.241 149.055 60.79 211.324 43.406 68.376-19.088 109.504-54.649 176.674-132.5137 42.086-48.7827 101.83-124.4013 189.24-219.7013" stroke="#9cef54" stroke-opacity=".7"/><path d="m-218.922 174.28c80.135-60.741 152.3931-56.271 184.3997-50.427 48.719 8.897 86.6092 9.507 164.1623 32.801 101.896 30.617 143.38 56.53 204.145 41.777 70.997-17.241 115.123-53.397 186.357-130.711 43.565-47.2836 105.014-120.9182 190.435-215.241" stroke="#9cef54" stroke-opacity=".7"/><path d="m-218.638 191.957c76.408-68.441 149.5865-60.53 179.9398-66.198 49.6473-9.273 89.8791 5.999 170.3112 27.904 102.949 28.043 137.674 52.376 196.95 40.144 73.627-15.187 120.696-52.244 196.04-128.9159 45.023-45.8189 108.198-117.4327 191.633-210.7701" stroke="#9cef54" stroke-opacity=".7"/><path d="m-218.378 209.635c72.694-76.143 146.7452-75.342 175.4794-81.973 50.36255-11.62 93.149 2.56 176.4566 23.01 104.039 25.548 131.953 48.327 189.783 38.51 76.251-12.928 126.227-51.163 205.723-127.125 46.47-44.4006 111.382-113.9495 192.828-206.32" stroke="#9cef54" stroke-opacity=".7"/><path d="m-218.106 227.315c68.978-83.849 143.5533-90.438 171.0187-97.749 51.26884-13.646 96.4239-.811 182.6043 18.125 105.132 23.089 126.17 44.35 182.602 36.881 78.854-10.437 131.723-50.174 215.405-125.3269 47.908-43.0241 114.569-110.469 194.026-201.8591" stroke="#9cef54" stroke-opacity=".7"/><path d="m-217.834 244.992c65.262-91.55 139.1394-109.489 166.5607-113.523 54.01223-7.929 99.7111-4.12 188.7503 13.227 106.256 20.69 120.32 40.457 175.422 35.247 81.414-7.706 137.188-49.283 225.09-123.5393 49.346-41.6892 117.754-106.9785 195.219-197.3987" stroke="#9cef54" stroke-opacity=".7"/><path d="m-217.562 262.67c61.546-99.251 135.4525-123.008 162.0974-129.296 54.781279-12.925 103.0079-7.367 194.8956 8.329 107.405 18.338 114.388 36.638 168.243 33.615 83.92-4.707 142.638-48.449 234.77-121.7359 50.787-40.3983 120.938-103.4954 196.419-192.9381" stroke="#9cef54" stroke-opacity=".7"/><path d="m-217.291 280.349c57.834-106.954 131.5342-136.523 157.6377-145.072 55.23446-18.096 106.3196-10.554 201.0433 3.43 108.586 16.029 108.358 32.876 161.065 31.984 86.342-1.469 148.065-47.717 244.452-119.9406 52.229-39.132 124.119-100.0148 197.614-188.4804" stroke="#9cef54" stroke-opacity=".7"/><path d="m332.913-90.3536c-33.166 82.22185-76.908 126.5424-112.693 152.1035-29.833 21.3078-42.037 20.9298-64.295 43.5551-48.3 49.101-81.607 143.157-40.1 188.742 20.446 22.456 46.357 14.149 95.408 24.89 44.125 9.663 104.812 34.646 170.767 104.395" stroke="#fff" stroke-opacity=".2"/><path d="m322.213-90.1891c-28.504 79.9744-69.655 123.8517-103.145 149.3995-28.186 21.4961-39.458 23.2439-61.333 47.2766-45.891 50.415-77.8398 138.746-39.111 184.395 19.947 23.514 45.414 18.165 94.322 30.75 43.057 11.08 102.707 36.573 168.07 105.12" stroke="#fff" stroke-opacity=".2"/><path d="m311.514-90.0248c-23.843 77.7255-62.413 121.1936-93.597 146.6999-26.567 21.7288-36.88 25.5151-58.372 50.9979-43.535 51.619-74.1468 134.472-38.124 180.051 19.462 24.623 44.448 22.14 93.236 36.609 41.979 12.453 100.598 38.5 165.367 105.85" stroke="#fff" stroke-opacity=".2"/><path d="m300.813-89.8602c-19.182 75.4765-55.18 118.5784-84.057 144.0002-24.966 21.9898-34.304 27.7433-55.4 54.725-41.24 52.72-70.538 130.325-37.136 175.704 18.976 25.784 43.459 26.074 92.149 42.469 40.891 13.768 98.489 40.428 162.667 106.569" stroke="#fff" stroke-opacity=".2"/><path d="m290.114-89.6951c-14.518 73.2351-47.948 116.0138-74.503 141.3006-23.404 22.2893-31.756 29.9463-52.444 58.4365-39.004 53.73-67.0176 126.301-36.148 171.36 18.494 26.996 42.459 29.966 91.062 48.329 39.801 15.039 96.381 42.356 159.961 107.292" stroke="#fff" stroke-opacity=".2"/><path d="m279.415-89.5308c-9.857 70.9802-40.718 113.504-64.955 138.601-21.861 22.6362-29.223 32.0959-49.482 62.1578-36.836 54.658-63.588 122.384-35.161 167.013 18 28.258 41.45 33.801 89.977 54.19 38.71 16.258 94.271 44.283 157.268 108.017" stroke="#fff" stroke-opacity=".2"/><path d="m268.715-89.3663c-5.188 68.7312-33.473 111.0593-55.408 135.9014-20.338 23.0334-26.713 34.2203-46.519 65.8769-34.733 55.52-60.253 118.567-34.173 162.668 17.485 29.566 40.441 37.605 88.889 60.05 37.628 17.433 92.163 46.217 154.569 108.741" stroke="#fff" stroke-opacity=".2"/><path d="m258.015-89.196c-.532 66.4822-26.211 108.6858-45.859 133.2017-18.828 23.4901-24.233 36.321-43.558 69.5973-32.696 56.32-57.01 114.838-33.184 158.322 16.941 30.919 39.435 41.351 87.802 65.91 36.553 18.554 90.05 48.132 151.87 109.46" stroke="#fff" stroke-opacity=".2"/><path d="m247.316-89.0374c4.129 64.2334-18.917 106.3895-36.314 130.5022-17.321 24.0163-21.792 38.3846-40.592 73.3182-30.726 57.076-53.864 111.187-32.198 153.976 16.361 32.318 38.444 45.048 86.717 71.77 35.489 19.646 87.946 50.065 149.17 110.198" stroke="#fff" stroke-opacity=".2"/><path d="m236.621-88.8729c8.79 61.9859-11.578 104.1716-26.766 127.8025-15.81 24.599-19.374 40.4305-37.631 77.0374-28.816 57.785-50.807 107.593-31.209 149.631 15.734 33.749 37.47 48.698 85.63 77.631 34.443 20.692 85.836 51.993 146.47 110.914" stroke="#fff" stroke-opacity=".2"/><path d="m225.916-88.708c13.452 59.7444-4.182 102.0339-17.217 125.1044-14.274 25.2587-17 42.457-34.667 80.7576-26.969 58.466-47.843 104.054-30.224 145.284 15.052 35.219 36.523 52.299 84.545 83.491 33.414 21.702 83.727 53.921 143.768 111.638" stroke="#fff" stroke-opacity=".2"/><path d="m215.217-88.5433c18.114 57.488 3.284 99.9717-7.671 122.4048-12.693 25.991-14.667 44.4747-31.704 84.4765-25.179 59.128-44.961 100.561-29.235 140.939 14.302 36.723 35.604 55.856 83.457 89.351 32.407 22.682 81.62 55.849 141.071 112.363" stroke="#fff" stroke-opacity=".2"/><path d="m204.516-88.379c22.777 55.239 10.834 97.97478 1.877 119.7051-11.043 26.7916-12.374 46.4672-28.741 88.1979-23.443 59.772-42.162 97.094-28.246 136.594 13.476 38.248 34.719 59.367 82.37 95.21 31.422 23.633 79.511 57.775 138.371 113.087" stroke="#fff" stroke-opacity=".2"/><path d="m193.817-88.2144c27.438 52.9917 18.475 96.0328 11.424 117.0056-9.296 27.6529-10.125 48.4567-25.777 91.9148-21.757 60.408-39.435 93.65-27.26 132.248 12.564 39.809 33.876 62.84 81.285 101.07 30.46 24.567 77.405 59.706 135.667 113.814" stroke="#fff" stroke-opacity=".2"/><path d="m183.118-88.0499c32.1 50.7427 26.215 94.12626 20.971 114.3-7.421 28.5587-7.918 50.4402-22.815 95.6389-20.119 61.041-36.793 90.214-26.271 127.901 11.553 41.384 33.075 66.277 80.202 106.931 29.526 25.472 75.293 61.632 132.972 114.536" stroke="#fff" stroke-opacity=".2"/><path d="m172.417-87.8856c36.763 48.5011 34.058 92.2346 30.52 111.6063-5.384 29.4867-5.753 52.4194-19.852 99.3583-18.531 61.671-34.214 86.779-25.285 123.556 10.435 42.97 32.318 69.677 79.112 112.791 28.618 26.368 73.184 63.559 130.272 115.259" stroke="#fff" stroke-opacity=".2"/><path d="m161.718-87.7136c41.424 46.2448 36.636 90.53567 40.066 108.9067 5.613 30.0486-3.63 54.3985-16.888 103.0789-16.973 62.309-31.7 83.326-24.297 119.203 9.192 44.562 31.62 73.049 78.025 118.651 27.732 27.25 71.075 65.486 127.567 115.984" stroke="#fff" stroke-opacity=".2"/><path d="m151.019-87.5559c46.085 43.9973 45.6 88.81599 49.613 106.2071 7.033 30.4815-1.549 56.3776-13.927 106.7988-15.462 62.969-29.249 79.863-23.307 114.865 7.824 46.15 30.966 76.397 76.941 124.511 26.873 28.126 68.967 67.413 124.873 116.708" stroke="#fff" stroke-opacity=".2"/><path d="m140.318-87.3916c50.749 41.7484 54.737 86.88431 59.162 103.5075 8.259 31.03.491 58.3597-10.97 110.5201-13.974 63.629-26.842 76.363-22.322 110.518 6.317 47.726 30.367 79.724 75.853 130.371 26.04 28.996 66.86 69.342 122.174 117.433" stroke="#fff" stroke-opacity=".2"/><path d="m129.619-87.2272c55.41 39.4995 66.268 84.21289 68.709 100.8094 4.799 32.6904 2.494 60.3492-8.005 114.2388-12.523 64.311-24.486 72.823-21.333 106.173 4.664 49.275 29.828 83.032 74.771 136.234 25.232 29.866 64.747 71.269 119.474 118.154" stroke="#fff" stroke-opacity=".2"/><path d="m118.92-87.0626c60.071 37.2505 74.449 81.98169 78.255 98.1082 7.823 33.1559 4.459 62.3447-5.041 117.9584-11.099 65.006-22.175 69.233-20.345 101.828 2.849 50.792 29.323 86.33 73.679 142.092 24.451 30.738 62.64 73.197 116.775 118.881" stroke="#fff" stroke-opacity=".2"/><path d="m108.219-86.8982c64.733 35.0031 82.63 79.60974 87.804 95.40864 10.953 33.43016 6.388 64.34896-2.076 121.67956-9.701 65.721-19.898 65.583-19.358 97.483.89 52.258 28.88 89.615 72.593 147.952 23.684 31.612 60.533 75.123 114.076 119.605" stroke="#fff" stroke-opacity=".2"/><path d="m1038.16 691c45.31-112.328 105.07-172.877 153.95-207.798 40.76-29.109 57.43-28.593 87.84-59.503 65.99-67.079 111.49-195.575 54.78-257.852-27.93-30.677-63.33-19.329-130.34-34.003-60.28-13.201-143.19-47.3313-233.295-142.6205" stroke="#9cef54" stroke-opacity=".7"/><path d="m1052.77 690.775c38.95-109.257 95.16-169.201 140.92-204.103 38.5-29.367 53.9-31.755 83.79-64.587 62.69-68.875 106.34-189.55 53.43-251.913-27.25-32.124-62.04-24.817-128.86-42.009-58.82-15.138-140.31-49.9651-229.61-143.6117" stroke="#9cef54" stroke-opacity=".7"/><path d="m1067.39 690.551c32.57-106.186 85.27-165.57 127.87-200.416 36.29-29.685 50.38-34.857 79.74-69.671 59.48-70.519 101.3-183.71 52.09-245.978-26.59-33.639-60.73-30.247-127.38-50.014-57.35-17.012-137.43-52.5972-225.915-144.6073" stroke="#9cef54" stroke-opacity=".7"/><path d="m1082.01 690.326c26.21-103.113 75.38-161.997 114.84-196.727 34.1-30.042 46.86-37.902 75.68-74.763 56.34-72.024 96.37-178.045 50.73-240.04-25.92-35.225-59.37-35.622-125.89-58.02-55.86-18.809-134.55-55.2301-222.226-145.5896" stroke="#9cef54" stroke-opacity=".7"/><path d="m1096.63 690.101c19.83-100.051 65.5-158.494 101.78-193.039 31.97-30.451 43.38-40.912 71.65-79.834 53.28-73.404 91.55-172.547 49.38-234.105-25.27-36.881-58.01-40.938-124.41-66.025-54.37-20.545-131.67-57.8655-218.527-146.5785" stroke="#9cef54" stroke-opacity=".7"/><path d="m1111.24 689.876c13.47-96.97 55.63-155.065 88.74-189.351 29.87-30.925 39.93-43.848 67.6-84.918 50.33-74.671 86.87-167.196 48.04-228.166-24.59-38.604-56.63-46.177-122.92-74.031-52.89-22.2119-128.79-60.4985-214.858-147.5689" stroke="#9cef54" stroke-opacity=".7"/><path d="m1125.86 689.651c7.09-93.898 45.73-151.724 75.7-185.663 27.78-31.467 36.49-46.75 63.55-89.999 47.45-75.848 82.31-161.981 46.68-222.23-23.88-40.391-55.24-51.374-121.43-82.037-51.41-23.8159-125.91-63.1395-211.167-148.5572" stroke="#9cef54" stroke-opacity=".7"/><path d="m1140.48 689.418c.73-90.825 35.81-148.482 62.65-181.974 25.72-32.091 33.11-49.621 59.51-95.081 44.66-76.942 77.88-156.887 45.33-216.294-23.14-42.24-53.87-56.492-119.95-90.043-49.94-25.347-123.02-65.7562-207.478-149.5395" stroke="#9cef54" stroke-opacity=".7"/><path d="m1155.1 689.202c-5.64-87.753 25.84-145.345 49.61-178.287 23.66-32.81 29.77-52.44 55.45-100.164 41.98-77.975 73.59-151.899 43.99-210.356-22.35-44.152-52.52-61.543-118.47-98.049-48.48-26.8397-120.15-68.3972-203.79-150.5482" stroke="#9cef54" stroke-opacity=".7"/><path d="m1169.71 688.977c-12.01-84.683 15.81-142.315 36.56-174.598 21.6-33.607 26.47-55.235 51.41-105.246 39.37-78.943 69.41-146.99 42.64-204.419-21.5-46.107-51.19-66.53-116.99-106.0561-47.05-28.2694-117.26-71.032-200.097-151.5262" stroke="#9cef54" stroke-opacity=".7"/><path d="m1184.33 688.751c-18.38-81.62 5.71-139.394 23.52-170.912 19.5-34.507 23.23-58.003 47.36-110.327 36.85-79.875 65.36-142.155 41.29-198.481-20.56-48.116-49.89-71.449-115.5-114.062-45.65-29.6486-114.38-73.6648-196.408-152.5165" stroke="#9cef54" stroke-opacity=".7"/><path d="m1198.95 688.527c-24.75-78.538-4.49-136.577 10.48-167.225 17.34-35.507 20.04-60.759 43.31-115.408 34.4-80.778 61.42-137.382 39.94-192.545-19.54-50.169-48.64-76.308-114.02-122.068-44.27-30.9873-111.5-76.2977-192.721-153.5048" stroke="#9cef54" stroke-opacity=".7"/><path d="m1213.57 688.302c-31.12-75.465-14.8-133.849-2.57-163.536 15.09-36.602 16.91-63.482 39.27-120.492 32.02-81.659 57.6-132.646 38.59-186.609-18.41-52.253-47.44-81.106-112.54-130.0719-42.92-32.2876-108.62-78.93063-189.032-154.4952" stroke="#9cef54" stroke-opacity=".7"/><path d="m1228.18 688.078c-37.48-72.395-25.24-131.196-15.6-159.849 12.7-37.778 13.83-66.199 35.21-125.569 29.73-82.528 53.88-127.941 37.24-180.673-17.16-54.385-46.28-85.849-111.04-138.0777-41.62-33.5615-105.75-81.56759-185.347-155.4876" stroke="#9cef54" stroke-opacity=".7"/><path d="m1242.8 687.853c-43.85-69.323-35.81-128.592-28.65-156.152 10.14-39.016 10.82-68.91 31.17-130.657 27.48-83.393 50.26-123.247 35.89-174.735-15.78-56.536-45.19-90.544-109.57-146.0838-40.34-34.799-102.86-84.19851-181.661-156.474" stroke="#9cef54" stroke-opacity=".7"/><path d="m1257.42 687.628c-50.23-66.26-46.53-126.007-41.7-152.472 7.36-40.283 7.86-71.613 27.12-135.739 25.32-84.253 46.75-118.554 34.55-168.798-14.26-58.703-44.15-95.189-108.08-154.0898-39.1-36.0223-99.98-86.8314-177.974-157.4623" stroke="#9cef54" stroke-opacity=".7"/><path d="m1272.04 687.393c-56.6-63.178-50.05-123.686-54.74-148.784-7.67-41.051 4.96-74.317 23.07-140.822 23.19-85.124 43.31-113.837 33.19-162.85-12.55-60.879-43.19-99.797-106.59-162.096-37.89-37.2274-97.1-89.4644-174.277-158.4527" stroke="#9cef54" stroke-opacity=".7"/><path d="m1286.65 687.178c-62.96-60.107-62.29-121.337-67.78-145.096-9.61-41.642 2.12-77.021 19.03-145.904 21.12-86.025 39.96-109.105 31.84-156.923-10.69-63.048-42.3-104.371-105.11-170.1026-36.72-38.4243-94.22-92.0972-170.6-159.4411" stroke="#9cef54" stroke-opacity=".7"/><path d="m1301.27 686.953c-69.33-57.035-74.78-118.697-80.82-141.407-11.29-42.392-.67-79.729 14.98-150.988 19.09-86.928 36.67-104.324 30.5-150.985-8.63-65.201-41.49-108.916-103.63-178.1085-35.57-39.6131-91.34-94.7321-166.907-160.4314" stroke="#9cef54" stroke-opacity=".7"/><path d="m1315.89 686.729c-75.7-53.963-90.53-115.049-93.87-137.722-6.56-44.66-3.41-82.447 10.94-156.069 17.1-87.858 33.45-99.488 29.14-145.049-6.37-67.318-40.75-113.434-102.15-186.1167-34.47-40.802-88.45-97.3651-163.218-161.4178" stroke="#9cef54" stroke-opacity=".7"/><path d="m1330.5 686.504c-82.06-50.89-101.71-112-106.9-134.032-10.69-45.296-6.1-85.172 6.88-161.15 15.17-88.808 30.3-94.582 27.8-139.113-3.9-69.389-40.06-117.94-100.66-194.1205-33.4-41.9929-85.58-99.998-159.533-162.4105" stroke="#9cef54" stroke-opacity=".7"/><path d="m1345.12 686.279c-88.43-47.819-112.88-108.759-119.95-130.343-14.96-45.671-8.73-87.911 2.83-166.234 13.26-89.784 27.19-89.596 26.45-133.177-1.21-71.392-39.45-122.428-99.17-202.1264-32.36-43.1858-82.7-102.6289-155.848-163.3986" stroke="#9cef54" stroke-opacity=".7"/><path d="m1797.23 420.227c-143.67-57.953-221.12-134.387-265.78-196.916-37.23-52.13-36.57-73.455-76.11-112.348-85.79-84.3971-250.15-142.5969-329.8-70.0693-39.24 35.7276-24.72 81.0033-43.49 166.7143-16.89 77.102-60.54 183.145-182.419 298.392" stroke="#fff" stroke-opacity=".2"/><path d="m1796.94 401.53c-139.74-49.807-216.41-121.713-261.05-180.232-37.57-49.252-40.62-68.947-82.61-107.172-88.1-80.1876-242.44-136.0145-322.21-68.3414-41.09 34.8546-31.74 79.3564-53.73 164.8154-19.36 75.237-63.91 179.467-183.685 293.68" stroke="#fff" stroke-opacity=".2"/><path d="m1796.65 382.834c-135.81-41.662-211.77-109.058-256.33-163.548-37.97-46.421-44.59-64.443-89.12-101.997-90.19-76.0714-234.97-129.5618-314.61-66.6162-43.03 34.0075-38.69 77.6672-63.97 162.9162-21.76 73.354-67.27 175.783-184.959 288.958" stroke="#fff" stroke-opacity=".2"/><path d="m1796.37 364.136c-131.89-33.518-207.2-96.419-251.62-146.879-38.43-43.623-48.48-59.94-95.63-96.803-92.12-72.0609-227.73-123.25607-307.02-64.8905-45.05 33.1579-45.56 75.9395-74.21 161.0175-24.06 71.453-70.64 172.097-186.213 284.241" stroke="#fff" stroke-opacity=".2"/><path d="m1796.08 345.441c-127.97-25.368-202.72-83.783-246.91-130.184-38.94-40.895-52.32-55.49-102.11-91.64-93.88-68.1545-220.69-117.10382-299.42-63.1627-47.18 32.3159-52.37 74.1907-84.45 159.1187-26.28 69.546-74.015 168.414-187.482 279.51" stroke="#fff" stroke-opacity=".2"/><path d="m1795.79 326.746c-124.03-17.224-198.33-71.15-242.18-113.501-39.56-38.199-56.09-51.063-108.62-86.462-95.5-64.3676-213.85-111.1124-291.83-61.4404-49.38 31.4534-59.06 72.4294-94.69 157.2224-28.41 67.642-77.379 164.727-188.745 274.806" stroke="#fff" stroke-opacity=".2"/><path d="m1795.5 308.051c-120.09-9.067-194.06-58.49-237.46-96.819-40.25-35.538-59.8-46.677-115.12-81.286-97.01-60.6916-207.18-105.2838-284.24-59.7125-51.66 30.5515-65.71 70.6655-104.93 155.3215-30.46 65.751-80.754 161.043-190.007 270.089" stroke="#fff" stroke-opacity=".2"/><path d="m1795.21 289.352c-116.17-.929-189.92-45.799-232.76-80.133-41.04-32.899-63.46-42.343-121.61-76.11-98.41-57.1325-200.66-99.6186-276.65-57.9848-54.02 29.6008-72.25 68.9058-115.16 153.4228-32.42 63.87-84.109 157.349-191.271 265.371" stroke="#fff" stroke-opacity=".2"/><path d="m1794.93 270.657c-112.24 7.214-185.9-33.054-228.04-63.453-41.96-30.267-67.07-38.08-128.11-70.929-99.73-53.6903-194.28-94.1222-269.05-56.2627-56.47 28.5887-78.72 67.1757-125.41 151.5267-34.33 62.013-87.484 153.673-192.558 260.654" stroke="#fff" stroke-opacity=".2"/><path d="m1794.64 251.97c-108.31 15.358-182.02-20.232-223.32-46.771-42.98-27.625-70.64-33.852-134.61-65.754-100.97-50.353-188-88.7799-261.46-54.534-58.97 27.492-85.09 65.474-135.65 149.627-36.16 60.184-90.852 149.988-193.807 255.938" stroke="#fff" stroke-opacity=".2"/><path d="m1794.35 233.264c-104.39 23.506-178.29-7.308-218.6-30.086-44.14-24.941-74.19-29.704-141.11-60.575-102.17-47.1255-181.82-83.5992-253.87-52.8116-61.54 26.3006-91.38 63.8186-145.89 147.7316-37.918 58.386-94.217 146.301-195.071 251.214" stroke="#fff" stroke-opacity=".2"/><path d="m1794.07 214.568c-100.46 31.653-174.69 5.738-213.89-13.403-45.41-22.179-77.71-25.63-147.61-55.399-103.32-43.996-175.72-78.5635-246.27-51.0839-64.17 24.9899-97.6 62.2129-156.13 145.8299-39.637 56.627-97.59 142.62-196.341 246.503" stroke="#fff" stroke-opacity=".2"/><path d="m1793.78 195.871c-96.52 39.8-171.2 18.931-209.17 3.279-46.81-19.296-81.19-21.622-154.11-50.221-104.45-40.963-169.66-73.6725-238.68-49.3559-66.84 23.5469-103.74 60.6659-166.37 143.9309-41.297 54.905-100.955 138.934-197.605 241.786" stroke="#fff" stroke-opacity=".2"/><path d="m1793.49 177.175c-92.59 47.944-167.8 32.282-204.45 19.962-48.32-16.245-84.67-17.693-160.61-45.043-105.55-38.017-163.64-68.906-231.08-47.633-69.57 21.954-109.81 59.194-176.61 142.035-42.928 53.226-104.33 135.255-198.877 237.06" stroke="#fff" stroke-opacity=".2"/><path d="m1793.2 158.48c-88.66 56.091-164.47 45.807-199.72 36.645-49.9-12.968-88.14-13.836-167.12-39.867-106.66-35.155-157.63-64.2904-223.49-45.906-72.31 20.188-115.81 57.796-186.84 140.144-44.514 51.591-107.698 131.564-200.141 232.351" stroke="#fff" stroke-opacity=".2"/><path d="m1792.92 139.782c-84.75 64.238-161.17 59.511-195.02 53.33-51.52-9.409-91.6-10.054-173.62-34.689-107.76-32.381-151.63-59.7852-215.89-44.183-75.09 18.234-121.76 56.472-197.09 138.237-46.075 50.007-111.062 127.881-201.402 227.634" stroke="#fff" stroke-opacity=".2"/><path d="m1792.62 121.086c-80.81 72.383-158.2 64.016-190.3 70.01-52.51 9.808-95.06-6.344-180.12-29.51-108.88-29.659-145.6-55.392-208.29-42.455-77.87 16.06-127.65 55.251-207.33 136.338-47.614 48.457-114.427 124.194-202.666 222.906" stroke="#fff" stroke-opacity=".2"/><path d="m1792.34 102.391c-76.88 80.527-155.19 79.68-185.58 86.692-53.26 12.29-98.51-2.707-186.62-24.334-110.03-27.019-139.55-51.11-200.71-40.728-80.64 13.673-133.49 54.11-217.57 134.445-49.143 46.957-117.793 120.511-203.928 218.2" stroke="#fff" stroke-opacity=".2"/><path d="m1792.05 83.6932c-72.95 88.6768-151.82 95.6448-180.86 103.3778-54.22 14.431-101.98.857-193.12-19.17-111.19-24.417-133.44-46.903-193.12-39.004-83.39 11.038-139.3 53.063-227.805 132.543-50.666 45.501-121.166 116.83-205.197 213.482" stroke="#fff" stroke-opacity=".2"/><path d="m1791.77 64.998c-69.02 96.821-147.15 115.793-176.15 120.06-57.13 8.385-105.46 4.357-199.62-13.989-112.38-21.881-127.25-42.786-185.53-37.276-86.1 8.149-145.08 52.12-238.046 130.652-52.187 44.09-124.534 113.138-206.46 208.765" stroke="#fff" stroke-opacity=".2"/><path d="m1791.48 46.3027c-65.09 104.9653-143.25 130.0903-171.43 136.7403-57.94 13.669-108.94 7.792-206.12-8.808-113.59-19.395-120.97-38.748-177.93-35.551-88.75 4.978-150.85 51.239-248.288 128.745-53.711 42.725-127.901 109.455-207.729 204.048" stroke="#fff" stroke-opacity=".2"/><path d="m1791.19 27.6048c-61.16 113.1122-139.11 144.3842-166.71 153.4252-58.42 19.138-112.44 11.162-212.62-3.627-114.84-16.952-114.6-34.769-170.34-33.826-91.31 1.554-156.59 50.465-258.527 126.847-55.236 41.385-131.266 105.774-208.993 199.333" stroke="#fff" stroke-opacity=".2"/></g></g></svg>