<svg width="1400" height="200" viewBox="0 0 1400 200" fill="none" xmlns="http://www.w3.org/2000/svg">
<g clip-path="url(#clip0_2_736)">
<rect width="1400" height="200" fill="#151C24"/>
<g clip-path="url(#clip1_2_736)">
<mask id="mask0_2_736" style="mask-type:luminance" maskUnits="userSpaceOnUse" x="650" y="10" width="100" height="29">
<path d="M750 10H650V39H750V10Z" fill="white"/>
</mask>
<g mask="url(#mask0_2_736)">
<path d="M664.5 38.9998C663.518 39.0001 662.539 38.9013 661.578 38.7052C660.645 38.5141 659.733 38.2311 658.856 37.8603C657.994 37.4952 657.169 37.0475 656.393 36.5234C655.623 36.0028 654.904 35.41 654.247 34.7528C653.59 34.0955 652.997 33.3769 652.476 32.6069C651.952 31.831 651.504 31.0062 651.139 30.144C650.769 29.2668 650.485 28.3551 650.294 27.4222C650.098 26.4604 650 25.4813 650 24.4997C650 23.5181 650.098 22.5391 650.295 21.5773C650.486 20.6443 650.769 19.7326 651.14 18.8554C651.505 17.9931 651.952 17.1682 652.477 16.3923C652.997 15.6222 653.59 14.9037 654.247 14.2464C654.905 13.5893 655.623 12.9965 656.393 12.4758C657.169 11.9517 657.994 11.504 658.856 11.1389C659.733 10.7681 660.645 10.4851 661.578 10.2939C662.54 10.0979 663.518 9.99925 664.5 9.99951C665.481 9.99928 666.46 10.098 667.422 10.2941C668.355 10.4853 669.267 10.7683 670.144 11.139C671.006 11.5041 671.831 11.9518 672.607 12.476C673.377 12.9966 674.095 13.5895 674.753 14.2466C675.41 14.9039 676.003 15.6224 676.523 16.3924C677.047 17.1684 677.495 17.9933 677.86 18.8555C678.231 19.7327 678.514 20.6445 678.705 21.5775C678.901 22.5392 679 23.5182 679 24.4997C679 25.4812 678.901 26.4602 678.705 27.4218C678.514 28.3548 678.231 29.2665 677.86 30.1437C677.495 31.0059 677.047 31.8307 676.523 32.6065C676.003 33.3766 675.41 34.0952 674.753 34.7525C674.095 35.4096 673.377 36.0025 672.607 36.523C671.831 37.0472 671.006 37.4949 670.143 37.86C669.266 38.2308 668.355 38.5138 667.422 38.7049C666.46 38.9011 665.481 38.9999 664.5 38.9998ZM664.5 18.9834C663.762 18.982 663.032 19.1295 662.353 19.417C661.697 19.6938 661.102 20.0953 660.599 20.5991C660.095 21.1017 659.694 21.6971 659.417 22.3526C659.13 23.032 658.982 23.7624 658.983 24.5C658.982 25.2376 659.13 25.9679 659.417 26.6472C659.694 27.3027 660.095 27.8981 660.599 28.4007C661.102 28.9045 661.697 29.306 662.353 29.5829C663.032 29.8704 663.762 30.0178 664.5 30.0164C665.238 30.0178 665.968 29.8704 666.647 29.5829C667.303 29.306 667.898 28.9044 668.401 28.4007C668.905 27.8982 669.306 27.3027 669.583 26.6472C669.87 25.9679 670.018 25.2376 670.016 24.5C670.018 23.7624 669.87 23.032 669.583 22.3526C669.306 21.697 668.905 21.1016 668.401 20.5991C667.898 20.0953 667.303 19.6938 666.647 19.417C665.968 19.1294 665.238 18.9821 664.5 18.9834Z" fill="url(#paint0_linear_2_736)"/>
<path d="M687.889 28.2344C686.924 27.335 686.442 26.1881 686.442 24.7934C686.442 23.3988 686.924 22.2616 687.889 21.3818C688.835 20.509 690.082 20.0361 691.369 20.0621C692.112 20.0564 692.846 20.2168 693.519 20.5314C694.165 20.8287 694.728 21.2782 695.162 21.8413L693.265 23.2685C692.822 22.6689 692.19 22.3691 691.369 22.3691C690.706 22.3588 690.063 22.5997 689.57 23.0436C689.321 23.2606 689.124 23.5301 688.992 23.8327C688.86 24.1353 688.797 24.4635 688.808 24.7934C688.8 25.1288 688.863 25.462 688.995 25.7706C689.127 26.0791 689.323 26.356 689.57 26.5823C690.052 27.0477 690.699 27.3042 691.369 27.2959C692.19 27.2959 692.822 26.9897 693.265 26.377L695.181 27.7847C694.75 28.3589 694.182 28.816 693.529 29.1142C692.853 29.4282 692.115 29.5884 691.369 29.5834C690.077 29.608 688.827 29.1234 687.889 28.2344ZM699.756 20.2577V29.3879H697.39V20.2577H699.756ZM697.488 17.7552C697.344 17.6239 697.23 17.4637 697.153 17.2851C697.075 17.1065 697.036 16.9136 697.038 16.7189C697.035 16.5262 697.075 16.335 697.154 16.1592C697.234 15.9835 697.351 15.8275 697.498 15.7023C697.794 15.4324 698.182 15.2856 698.583 15.2918C698.978 15.2833 699.361 15.4308 699.648 15.7023C699.79 15.8304 699.903 15.9875 699.979 16.1629C700.055 16.3383 700.092 16.5279 700.088 16.7189C700.091 16.9114 700.054 17.1023 699.978 17.2792C699.902 17.4561 699.79 17.6149 699.648 17.7454C699.507 17.8825 699.341 17.9902 699.158 18.0623C698.975 18.1345 698.779 18.1696 698.583 18.1657C698.179 18.1755 697.786 18.0284 697.488 17.7552ZM705.034 26.162V29.3879H702.65V20.2577H705.034V22.4082C705.256 21.6262 705.602 21.0397 706.07 20.6487C706.498 20.2735 707.046 20.0651 707.615 20.0621C708.137 20.0474 708.654 20.1616 709.12 20.3945L708.71 22.5451C708.27 22.3639 707.797 22.2772 707.322 22.2909C705.797 22.2909 705.034 23.5813 705.034 26.162ZM711.545 28.2344C710.58 27.335 710.098 26.1881 710.098 24.7934C710.098 23.3988 710.58 22.2616 711.545 21.3818C712.491 20.509 713.738 20.0361 715.025 20.0621C715.768 20.0564 716.502 20.2168 717.175 20.5314C717.82 20.8287 718.384 21.2782 718.817 21.8413L716.921 23.2685C716.478 22.6689 715.846 22.3691 715.025 22.3691C714.362 22.3588 713.719 22.5997 713.226 23.0436C712.977 23.2606 712.78 23.5301 712.648 23.8327C712.516 24.1353 712.453 24.4635 712.464 24.7934C712.455 25.1288 712.519 25.462 712.651 25.7706C712.782 26.0791 712.979 26.356 713.226 26.5823C713.708 27.0477 714.355 27.3042 715.025 27.2959C715.846 27.2959 716.478 26.9897 716.921 26.377L718.837 27.7847C718.406 28.3589 717.838 28.816 717.185 29.1142C716.508 29.4282 715.77 29.5884 715.025 29.5834C713.732 29.608 712.483 29.1234 711.545 28.2344ZM727.048 25.1258V20.2577H729.433V29.3879H727.048V28.0975C726.804 28.5629 726.426 28.9443 725.963 29.1924C725.525 29.4429 725.031 29.5774 724.526 29.5834C723.418 29.5834 722.542 29.2445 721.896 28.5667C721.252 27.889 720.929 26.9179 720.929 25.6537V20.2577H723.333V25.2236C723.333 25.9143 723.503 26.4259 723.842 26.7583C724.003 26.9201 724.195 27.0477 724.407 27.1334C724.618 27.219 724.845 27.261 725.073 27.2568C725.592 27.2724 726.096 27.0868 726.481 26.7388C726.859 26.3933 727.048 25.8557 727.048 25.1258ZM732.327 29.3879V15.2918H734.712V29.3879H732.327ZM746.07 20.2577L740.42 33.8455H737.898L739.99 28.684L736.432 20.2577H738.974L741.242 25.947L743.529 20.2577H746.07ZM747.361 29.1533C747.216 29.0189 747.101 28.8553 747.023 28.6734C746.946 28.4915 746.907 28.2952 746.911 28.0975C746.907 27.8998 746.946 27.7035 747.023 27.5216C747.101 27.3397 747.216 27.1761 747.361 27.0418C747.503 26.9025 747.671 26.7927 747.855 26.7189C748.04 26.645 748.238 26.6086 748.436 26.6117C748.845 26.6035 749.241 26.7542 749.541 27.032C749.69 27.1657 749.808 27.3302 749.888 27.5142C749.967 27.6982 750.005 27.8972 750 28.0975C750.005 28.2978 749.967 28.4969 749.888 28.6809C749.808 28.8649 749.69 29.0294 749.541 29.1631C749.241 29.4408 748.845 29.5915 748.436 29.5834C748.238 29.5865 748.04 29.55 747.855 29.4762C747.671 29.4024 747.503 29.2926 747.361 29.1533Z" fill="white"/>
</g>
</g>
<path d="M522.133 88.8906H527.992C527.805 91.125 527.18 93.1172 526.117 94.8672C525.055 96.6016 523.562 97.9688 521.641 98.9688C519.719 99.9688 517.383 100.469 514.633 100.469C512.523 100.469 510.625 100.094 508.938 99.3438C507.25 98.5781 505.805 97.5 504.602 96.1094C503.398 94.7031 502.477 93.0078 501.836 91.0234C501.211 89.0391 500.898 86.8203 500.898 84.3672V81.5312C500.898 79.0781 501.219 76.8594 501.859 74.875C502.516 72.8906 503.453 71.1953 504.672 69.7891C505.891 68.3672 507.352 67.2812 509.055 66.5312C510.773 65.7812 512.703 65.4062 514.844 65.4062C517.562 65.4062 519.859 65.9062 521.734 66.9062C523.609 67.9062 525.062 69.2891 526.094 71.0547C527.141 72.8203 527.781 74.8438 528.016 77.125H522.156C522 75.6562 521.656 74.3984 521.125 73.3516C520.609 72.3047 519.844 71.5078 518.828 70.9609C517.812 70.3984 516.484 70.1172 514.844 70.1172C513.5 70.1172 512.328 70.3672 511.328 70.8672C510.328 71.3672 509.492 72.1016 508.82 73.0703C508.148 74.0391 507.641 75.2344 507.297 76.6562C506.969 78.0625 506.805 79.6719 506.805 81.4844V84.3672C506.805 86.0859 506.953 87.6484 507.25 89.0547C507.562 90.4453 508.031 91.6406 508.656 92.6406C509.297 93.6406 510.109 94.4141 511.094 94.9609C512.078 95.5078 513.258 95.7812 514.633 95.7812C516.305 95.7812 517.656 95.5156 518.688 94.9844C519.734 94.4531 520.523 93.6797 521.055 92.6641C521.602 91.6328 521.961 90.375 522.133 88.8906ZM548.031 94.0234V74.6406H553.703V100H548.359L548.031 94.0234ZM548.828 88.75L550.727 88.7031C550.727 90.4062 550.539 91.9766 550.164 93.4141C549.789 94.8359 549.211 96.0781 548.43 97.1406C547.648 98.1875 546.648 99.0078 545.43 99.6016C544.211 100.18 542.75 100.469 541.047 100.469C539.812 100.469 538.68 100.289 537.648 99.9297C536.617 99.5703 535.727 99.0156 534.977 98.2656C534.242 97.5156 533.672 96.5391 533.266 95.3359C532.859 94.1328 532.656 92.6953 532.656 91.0234V74.6406H538.305V91.0703C538.305 91.9922 538.414 92.7656 538.633 93.3906C538.852 94 539.148 94.4922 539.523 94.8672C539.898 95.2422 540.336 95.5078 540.836 95.6641C541.336 95.8203 541.867 95.8984 542.43 95.8984C544.039 95.8984 545.305 95.5859 546.227 94.9609C547.164 94.3203 547.828 93.4609 548.219 92.3828C548.625 91.3047 548.828 90.0938 548.828 88.75ZM573.719 93.1328C573.719 92.5703 573.578 92.0625 573.297 91.6094C573.016 91.1406 572.477 90.7188 571.68 90.3438C570.898 89.9688 569.742 89.625 568.211 89.3125C566.867 89.0156 565.633 88.6641 564.508 88.2578C563.398 87.8359 562.445 87.3281 561.648 86.7344C560.852 86.1406 560.234 85.4375 559.797 84.625C559.359 83.8125 559.141 82.875 559.141 81.8125C559.141 80.7812 559.367 79.8047 559.82 78.8828C560.273 77.9609 560.922 77.1484 561.766 76.4453C562.609 75.7422 563.633 75.1875 564.836 74.7812C566.055 74.375 567.414 74.1719 568.914 74.1719C571.039 74.1719 572.859 74.5312 574.375 75.25C575.906 75.9531 577.078 76.9141 577.891 78.1328C578.703 79.3359 579.109 80.6953 579.109 82.2109H573.461C573.461 81.5391 573.289 80.9141 572.945 80.3359C572.617 79.7422 572.117 79.2656 571.445 78.9062C570.773 78.5312 569.93 78.3438 568.914 78.3438C567.945 78.3438 567.141 78.5 566.5 78.8125C565.875 79.1094 565.406 79.5 565.094 79.9844C564.797 80.4688 564.648 81 564.648 81.5781C564.648 82 564.727 82.3828 564.883 82.7266C565.055 83.0547 565.336 83.3594 565.727 83.6406C566.117 83.9062 566.648 84.1562 567.32 84.3906C568.008 84.625 568.867 84.8516 569.898 85.0703C571.836 85.4766 573.5 86 574.891 86.6406C576.297 87.2656 577.375 88.0781 578.125 89.0781C578.875 90.0625 579.25 91.3125 579.25 92.8281C579.25 93.9531 579.008 94.9844 578.523 95.9219C578.055 96.8438 577.367 97.6484 576.461 98.3359C575.555 99.0078 574.469 99.5312 573.203 99.9062C571.953 100.281 570.547 100.469 568.984 100.469C566.688 100.469 564.742 100.062 563.148 99.25C561.555 98.4219 560.344 97.3672 559.516 96.0859C558.703 94.7891 558.297 93.4453 558.297 92.0547H563.758C563.82 93.1016 564.109 93.9375 564.625 94.5625C565.156 95.1719 565.812 95.6172 566.594 95.8984C567.391 96.1641 568.211 96.2969 569.055 96.2969C570.07 96.2969 570.922 96.1641 571.609 95.8984C572.297 95.6172 572.82 95.2422 573.18 94.7734C573.539 94.2891 573.719 93.7422 573.719 93.1328ZM595.82 74.6406V78.7656H581.523V74.6406H595.82ZM585.648 68.4297H591.297V92.9922C591.297 93.7734 591.406 94.375 591.625 94.7969C591.859 95.2031 592.18 95.4766 592.586 95.6172C592.992 95.7578 593.469 95.8281 594.016 95.8281C594.406 95.8281 594.781 95.8047 595.141 95.7578C595.5 95.7109 595.789 95.6641 596.008 95.6172L596.031 99.9297C595.562 100.07 595.016 100.195 594.391 100.305C593.781 100.414 593.078 100.469 592.281 100.469C590.984 100.469 589.836 100.242 588.836 99.7891C587.836 99.3203 587.055 98.5625 586.492 97.5156C585.93 96.4688 585.648 95.0781 585.648 93.3438V68.4297ZM598.539 87.6016V87.0625C598.539 85.2344 598.805 83.5391 599.336 81.9766C599.867 80.3984 600.633 79.0312 601.633 77.875C602.648 76.7031 603.883 75.7969 605.336 75.1562C606.805 74.5 608.461 74.1719 610.305 74.1719C612.164 74.1719 613.82 74.5 615.273 75.1562C616.742 75.7969 617.984 76.7031 619 77.875C620.016 79.0312 620.789 80.3984 621.32 81.9766C621.852 83.5391 622.117 85.2344 622.117 87.0625V87.6016C622.117 89.4297 621.852 91.125 621.32 92.6875C620.789 94.25 620.016 95.6172 619 96.7891C617.984 97.9453 616.75 98.8516 615.297 99.5078C613.844 100.148 612.195 100.469 610.352 100.469C608.492 100.469 606.828 100.148 605.359 99.5078C603.906 98.8516 602.672 97.9453 601.656 96.7891C600.641 95.6172 599.867 94.25 599.336 92.6875C598.805 91.125 598.539 89.4297 598.539 87.6016ZM604.188 87.0625V87.6016C604.188 88.7422 604.305 89.8203 604.539 90.8359C604.773 91.8516 605.141 92.7422 605.641 93.5078C606.141 94.2734 606.781 94.875 607.562 95.3125C608.344 95.75 609.273 95.9688 610.352 95.9688C611.398 95.9688 612.305 95.75 613.07 95.3125C613.852 94.875 614.492 94.2734 614.992 93.5078C615.492 92.7422 615.859 91.8516 616.094 90.8359C616.344 89.8203 616.469 88.7422 616.469 87.6016V87.0625C616.469 85.9375 616.344 84.875 616.094 83.875C615.859 82.8594 615.484 81.9609 614.969 81.1797C614.469 80.3984 613.828 79.7891 613.047 79.3516C612.281 78.8984 611.367 78.6719 610.305 78.6719C609.242 78.6719 608.32 78.8984 607.539 79.3516C606.773 79.7891 606.141 80.3984 605.641 81.1797C605.141 81.9609 604.773 82.8594 604.539 83.875C604.305 84.875 604.188 85.9375 604.188 87.0625ZM632.5 79.7969V100H626.852V74.6406H632.172L632.5 79.7969ZM631.586 86.3828L629.664 86.3594C629.664 84.6094 629.883 82.9922 630.32 81.5078C630.758 80.0234 631.398 78.7344 632.242 77.6406C633.086 76.5312 634.133 75.6797 635.383 75.0859C636.648 74.4766 638.109 74.1719 639.766 74.1719C640.922 74.1719 641.977 74.3438 642.93 74.6875C643.898 75.0156 644.734 75.5391 645.438 76.2578C646.156 76.9766 646.703 77.8984 647.078 79.0234C647.469 80.1484 647.664 81.5078 647.664 83.1016V100H642.016V83.5938C642.016 82.3594 641.828 81.3906 641.453 80.6875C641.094 79.9844 640.57 79.4844 639.883 79.1875C639.211 78.875 638.406 78.7188 637.469 78.7188C636.406 78.7188 635.5 78.9219 634.75 79.3281C634.016 79.7344 633.414 80.2891 632.945 80.9922C632.477 81.6953 632.133 82.5078 631.914 83.4297C631.695 84.3516 631.586 85.3359 631.586 86.3828ZM647.312 84.8828L644.664 85.4688C644.664 83.9375 644.875 82.4922 645.297 81.1328C645.734 79.7578 646.367 78.5547 647.195 77.5234C648.039 76.4766 649.078 75.6562 650.312 75.0625C651.547 74.4688 652.961 74.1719 654.555 74.1719C655.852 74.1719 657.008 74.3516 658.023 74.7109C659.055 75.0547 659.93 75.6016 660.648 76.3516C661.367 77.1016 661.914 78.0781 662.289 79.2812C662.664 80.4688 662.852 81.9062 662.852 83.5938V100H657.18V83.5703C657.18 82.2891 656.992 81.2969 656.617 80.5938C656.258 79.8906 655.742 79.4062 655.07 79.1406C654.398 78.8594 653.594 78.7188 652.656 78.7188C651.781 78.7188 651.008 78.8828 650.336 79.2109C649.68 79.5234 649.125 79.9688 648.672 80.5469C648.219 81.1094 647.875 81.7578 647.641 82.4922C647.422 83.2266 647.312 84.0234 647.312 84.8828ZM679.844 100.469C677.969 100.469 676.273 100.164 674.758 99.5547C673.258 98.9297 671.977 98.0625 670.914 96.9531C669.867 95.8438 669.062 94.5391 668.5 93.0391C667.938 91.5391 667.656 89.9219 667.656 88.1875V87.25C667.656 85.2656 667.945 83.4688 668.523 81.8594C669.102 80.25 669.906 78.875 670.938 77.7344C671.969 76.5781 673.188 75.6953 674.594 75.0859C676 74.4766 677.523 74.1719 679.164 74.1719C680.977 74.1719 682.562 74.4766 683.922 75.0859C685.281 75.6953 686.406 76.5547 687.297 77.6641C688.203 78.7578 688.875 80.0625 689.312 81.5781C689.766 83.0938 689.992 84.7656 689.992 86.5938V89.0078H670.398V84.9531H684.414V84.5078C684.383 83.4922 684.18 82.5391 683.805 81.6484C683.445 80.7578 682.891 80.0391 682.141 79.4922C681.391 78.9453 680.391 78.6719 679.141 78.6719C678.203 78.6719 677.367 78.875 676.633 79.2812C675.914 79.6719 675.312 80.2422 674.828 80.9922C674.344 81.7422 673.969 82.6484 673.703 83.7109C673.453 84.7578 673.328 85.9375 673.328 87.25V88.1875C673.328 89.2969 673.477 90.3281 673.773 91.2812C674.086 92.2188 674.539 93.0391 675.133 93.7422C675.727 94.4453 676.445 95 677.289 95.4062C678.133 95.7969 679.094 95.9922 680.172 95.9922C681.531 95.9922 682.742 95.7188 683.805 95.1719C684.867 94.625 685.789 93.8516 686.57 92.8516L689.547 95.7344C689 96.5312 688.289 97.2969 687.414 98.0312C686.539 98.75 685.469 99.3359 684.203 99.7891C682.953 100.242 681.5 100.469 679.844 100.469ZM700.07 79.4688V100H694.422V74.6406H699.812L700.07 79.4688ZM707.828 74.4766L707.781 79.7266C707.438 79.6641 707.062 79.6172 706.656 79.5859C706.266 79.5547 705.875 79.5391 705.484 79.5391C704.516 79.5391 703.664 79.6797 702.93 79.9609C702.195 80.2266 701.578 80.6172 701.078 81.1328C700.594 81.6328 700.219 82.2422 699.953 82.9609C699.688 83.6797 699.531 84.4844 699.484 85.375L698.195 85.4688C698.195 83.875 698.352 82.3984 698.664 81.0391C698.977 79.6797 699.445 78.4844 700.07 77.4531C700.711 76.4219 701.508 75.6172 702.461 75.0391C703.43 74.4609 704.547 74.1719 705.812 74.1719C706.156 74.1719 706.523 74.2031 706.914 74.2656C707.32 74.3281 707.625 74.3984 707.828 74.4766ZM741.836 91.2109C741.836 90.5078 741.727 89.8828 741.508 89.3359C741.305 88.7891 740.938 88.2891 740.406 87.8359C739.875 87.3828 739.125 86.9453 738.156 86.5234C737.203 86.0859 735.984 85.6406 734.5 85.1875C732.875 84.6875 731.375 84.1328 730 83.5234C728.641 82.8984 727.453 82.1797 726.438 81.3672C725.422 80.5391 724.633 79.5938 724.07 78.5312C723.508 77.4531 723.227 76.2109 723.227 74.8047C723.227 73.4141 723.516 72.1484 724.094 71.0078C724.688 69.8672 725.523 68.8828 726.602 68.0547C727.695 67.2109 728.984 66.5625 730.469 66.1094C731.953 65.6406 733.594 65.4062 735.391 65.4062C737.922 65.4062 740.102 65.875 741.93 66.8125C743.773 67.75 745.188 69.0078 746.172 70.5859C747.172 72.1641 747.672 73.9062 747.672 75.8125H741.836C741.836 74.6875 741.594 73.6953 741.109 72.8359C740.641 71.9609 739.922 71.2734 738.953 70.7734C738 70.2734 736.789 70.0234 735.32 70.0234C733.93 70.0234 732.773 70.2344 731.852 70.6562C730.93 71.0781 730.242 71.6484 729.789 72.3672C729.336 73.0859 729.109 73.8984 729.109 74.8047C729.109 75.4453 729.258 76.0312 729.555 76.5625C729.852 77.0781 730.305 77.5625 730.914 78.0156C731.523 78.4531 732.289 78.8672 733.211 79.2578C734.133 79.6484 735.219 80.0234 736.469 80.3828C738.359 80.9453 740.008 81.5703 741.414 82.2578C742.82 82.9297 743.992 83.6953 744.93 84.5547C745.867 85.4141 746.57 86.3906 747.039 87.4844C747.508 88.5625 747.742 89.7891 747.742 91.1641C747.742 92.6016 747.453 93.8984 746.875 95.0547C746.297 96.1953 745.469 97.1719 744.391 97.9844C743.328 98.7812 742.047 99.3984 740.547 99.8359C739.062 100.258 737.406 100.469 735.578 100.469C733.938 100.469 732.32 100.25 730.727 99.8125C729.148 99.375 727.711 98.7109 726.414 97.8203C725.117 96.9141 724.086 95.7891 723.32 94.4453C722.555 93.0859 722.172 91.5 722.172 89.6875H728.055C728.055 90.7969 728.242 91.7422 728.617 92.5234C729.008 93.3047 729.547 93.9453 730.234 94.4453C730.922 94.9297 731.719 95.2891 732.625 95.5234C733.547 95.7578 734.531 95.875 735.578 95.875C736.953 95.875 738.102 95.6797 739.023 95.2891C739.961 94.8984 740.664 94.3516 741.133 93.6484C741.602 92.9453 741.836 92.1328 741.836 91.2109ZM767.641 94.0234V74.6406H773.312V100H767.969L767.641 94.0234ZM768.438 88.75L770.336 88.7031C770.336 90.4062 770.148 91.9766 769.773 93.4141C769.398 94.8359 768.82 96.0781 768.039 97.1406C767.258 98.1875 766.258 99.0078 765.039 99.6016C763.82 100.18 762.359 100.469 760.656 100.469C759.422 100.469 758.289 100.289 757.258 99.9297C756.227 99.5703 755.336 99.0156 754.586 98.2656C753.852 97.5156 753.281 96.5391 752.875 95.3359C752.469 94.1328 752.266 92.6953 752.266 91.0234V74.6406H757.914V91.0703C757.914 91.9922 758.023 92.7656 758.242 93.3906C758.461 94 758.758 94.4922 759.133 94.8672C759.508 95.2422 759.945 95.5078 760.445 95.6641C760.945 95.8203 761.477 95.8984 762.039 95.8984C763.648 95.8984 764.914 95.5859 765.836 94.9609C766.773 94.3203 767.438 93.4609 767.828 92.3828C768.234 91.3047 768.438 90.0938 768.438 88.75ZM789.461 95.9688C790.383 95.9688 791.211 95.7891 791.945 95.4297C792.695 95.0547 793.297 94.5391 793.75 93.8828C794.219 93.2266 794.477 92.4688 794.523 91.6094H799.844C799.812 93.25 799.328 94.7422 798.391 96.0859C797.453 97.4297 796.211 98.5 794.664 99.2969C793.117 100.078 791.406 100.469 789.531 100.469C787.594 100.469 785.906 100.141 784.469 99.4844C783.031 98.8125 781.836 97.8906 780.883 96.7188C779.93 95.5469 779.211 94.1953 778.727 92.6641C778.258 91.1328 778.023 89.4922 778.023 87.7422V86.9219C778.023 85.1719 778.258 83.5312 778.727 82C779.211 80.4531 779.93 79.0938 780.883 77.9219C781.836 76.75 783.031 75.8359 784.469 75.1797C785.906 74.5078 787.586 74.1719 789.508 74.1719C791.539 74.1719 793.32 74.5781 794.852 75.3906C796.383 76.1875 797.586 77.3047 798.461 78.7422C799.352 80.1641 799.812 81.8203 799.844 83.7109H794.523C794.477 82.7734 794.242 81.9297 793.82 81.1797C793.414 80.4141 792.836 79.8047 792.086 79.3516C791.352 78.8984 790.469 78.6719 789.438 78.6719C788.297 78.6719 787.352 78.9062 786.602 79.375C785.852 79.8281 785.266 80.4531 784.844 81.25C784.422 82.0312 784.117 82.9141 783.93 83.8984C783.758 84.8672 783.672 85.875 783.672 86.9219V87.7422C783.672 88.7891 783.758 89.8047 783.93 90.7891C784.102 91.7734 784.398 92.6562 784.82 93.4375C785.258 94.2031 785.852 94.8203 786.602 95.2891C787.352 95.7422 788.305 95.9688 789.461 95.9688ZM814.539 95.9688C815.461 95.9688 816.289 95.7891 817.023 95.4297C817.773 95.0547 818.375 94.5391 818.828 93.8828C819.297 93.2266 819.555 92.4688 819.602 91.6094H824.922C824.891 93.25 824.406 94.7422 823.469 96.0859C822.531 97.4297 821.289 98.5 819.742 99.2969C818.195 100.078 816.484 100.469 814.609 100.469C812.672 100.469 810.984 100.141 809.547 99.4844C808.109 98.8125 806.914 97.8906 805.961 96.7188C805.008 95.5469 804.289 94.1953 803.805 92.6641C803.336 91.1328 803.102 89.4922 803.102 87.7422V86.9219C803.102 85.1719 803.336 83.5312 803.805 82C804.289 80.4531 805.008 79.0938 805.961 77.9219C806.914 76.75 808.109 75.8359 809.547 75.1797C810.984 74.5078 812.664 74.1719 814.586 74.1719C816.617 74.1719 818.398 74.5781 819.93 75.3906C821.461 76.1875 822.664 77.3047 823.539 78.7422C824.43 80.1641 824.891 81.8203 824.922 83.7109H819.602C819.555 82.7734 819.32 81.9297 818.898 81.1797C818.492 80.4141 817.914 79.8047 817.164 79.3516C816.43 78.8984 815.547 78.6719 814.516 78.6719C813.375 78.6719 812.43 78.9062 811.68 79.375C810.93 79.8281 810.344 80.4531 809.922 81.25C809.5 82.0312 809.195 82.9141 809.008 83.8984C808.836 84.8672 808.75 85.875 808.75 86.9219V87.7422C808.75 88.7891 808.836 89.8047 809.008 90.7891C809.18 91.7734 809.477 92.6562 809.898 93.4375C810.336 94.2031 810.93 94.8203 811.68 95.2891C812.43 95.7422 813.383 95.9688 814.539 95.9688ZM840.438 100.469C838.562 100.469 836.867 100.164 835.352 99.5547C833.852 98.9297 832.57 98.0625 831.508 96.9531C830.461 95.8438 829.656 94.5391 829.094 93.0391C828.531 91.5391 828.25 89.9219 828.25 88.1875V87.25C828.25 85.2656 828.539 83.4688 829.117 81.8594C829.695 80.25 830.5 78.875 831.531 77.7344C832.562 76.5781 833.781 75.6953 835.188 75.0859C836.594 74.4766 838.117 74.1719 839.758 74.1719C841.57 74.1719 843.156 74.4766 844.516 75.0859C845.875 75.6953 847 76.5547 847.891 77.6641C848.797 78.7578 849.469 80.0625 849.906 81.5781C850.359 83.0938 850.586 84.7656 850.586 86.5938V89.0078H830.992V84.9531H845.008V84.5078C844.977 83.4922 844.773 82.5391 844.398 81.6484C844.039 80.7578 843.484 80.0391 842.734 79.4922C841.984 78.9453 840.984 78.6719 839.734 78.6719C838.797 78.6719 837.961 78.875 837.227 79.2812C836.508 79.6719 835.906 80.2422 835.422 80.9922C834.938 81.7422 834.562 82.6484 834.297 83.7109C834.047 84.7578 833.922 85.9375 833.922 87.25V88.1875C833.922 89.2969 834.07 90.3281 834.367 91.2812C834.68 92.2188 835.133 93.0391 835.727 93.7422C836.32 94.4453 837.039 95 837.883 95.4062C838.727 95.7969 839.688 95.9922 840.766 95.9922C842.125 95.9922 843.336 95.7188 844.398 95.1719C845.461 94.625 846.383 93.8516 847.164 92.8516L850.141 95.7344C849.594 96.5312 848.883 97.2969 848.008 98.0312C847.133 98.75 846.062 99.3359 844.797 99.7891C843.547 100.242 842.094 100.469 840.438 100.469ZM869.219 93.1328C869.219 92.5703 869.078 92.0625 868.797 91.6094C868.516 91.1406 867.977 90.7188 867.18 90.3438C866.398 89.9688 865.242 89.625 863.711 89.3125C862.367 89.0156 861.133 88.6641 860.008 88.2578C858.898 87.8359 857.945 87.3281 857.148 86.7344C856.352 86.1406 855.734 85.4375 855.297 84.625C854.859 83.8125 854.641 82.875 854.641 81.8125C854.641 80.7812 854.867 79.8047 855.32 78.8828C855.773 77.9609 856.422 77.1484 857.266 76.4453C858.109 75.7422 859.133 75.1875 860.336 74.7812C861.555 74.375 862.914 74.1719 864.414 74.1719C866.539 74.1719 868.359 74.5312 869.875 75.25C871.406 75.9531 872.578 76.9141 873.391 78.1328C874.203 79.3359 874.609 80.6953 874.609 82.2109H868.961C868.961 81.5391 868.789 80.9141 868.445 80.3359C868.117 79.7422 867.617 79.2656 866.945 78.9062C866.273 78.5312 865.43 78.3438 864.414 78.3438C863.445 78.3438 862.641 78.5 862 78.8125C861.375 79.1094 860.906 79.5 860.594 79.9844C860.297 80.4688 860.148 81 860.148 81.5781C860.148 82 860.227 82.3828 860.383 82.7266C860.555 83.0547 860.836 83.3594 861.227 83.6406C861.617 83.9062 862.148 84.1562 862.82 84.3906C863.508 84.625 864.367 84.8516 865.398 85.0703C867.336 85.4766 869 86 870.391 86.6406C871.797 87.2656 872.875 88.0781 873.625 89.0781C874.375 90.0625 874.75 91.3125 874.75 92.8281C874.75 93.9531 874.508 94.9844 874.023 95.9219C873.555 96.8438 872.867 97.6484 871.961 98.3359C871.055 99.0078 869.969 99.5312 868.703 99.9062C867.453 100.281 866.047 100.469 864.484 100.469C862.188 100.469 860.242 100.062 858.648 99.25C857.055 98.4219 855.844 97.3672 855.016 96.0859C854.203 94.7891 853.797 93.4453 853.797 92.0547H859.258C859.32 93.1016 859.609 93.9375 860.125 94.5625C860.656 95.1719 861.312 95.6172 862.094 95.8984C862.891 96.1641 863.711 96.2969 864.555 96.2969C865.57 96.2969 866.422 96.1641 867.109 95.8984C867.797 95.6172 868.32 95.2422 868.68 94.7734C869.039 94.2891 869.219 93.7422 869.219 93.1328ZM893.922 93.1328C893.922 92.5703 893.781 92.0625 893.5 91.6094C893.219 91.1406 892.68 90.7188 891.883 90.3438C891.102 89.9688 889.945 89.625 888.414 89.3125C887.07 89.0156 885.836 88.6641 884.711 88.2578C883.602 87.8359 882.648 87.3281 881.852 86.7344C881.055 86.1406 880.438 85.4375 880 84.625C879.562 83.8125 879.344 82.875 879.344 81.8125C879.344 80.7812 879.57 79.8047 880.023 78.8828C880.477 77.9609 881.125 77.1484 881.969 76.4453C882.812 75.7422 883.836 75.1875 885.039 74.7812C886.258 74.375 887.617 74.1719 889.117 74.1719C891.242 74.1719 893.062 74.5312 894.578 75.25C896.109 75.9531 897.281 76.9141 898.094 78.1328C898.906 79.3359 899.312 80.6953 899.312 82.2109H893.664C893.664 81.5391 893.492 80.9141 893.148 80.3359C892.82 79.7422 892.32 79.2656 891.648 78.9062C890.977 78.5312 890.133 78.3438 889.117 78.3438C888.148 78.3438 887.344 78.5 886.703 78.8125C886.078 79.1094 885.609 79.5 885.297 79.9844C885 80.4688 884.852 81 884.852 81.5781C884.852 82 884.93 82.3828 885.086 82.7266C885.258 83.0547 885.539 83.3594 885.93 83.6406C886.32 83.9062 886.852 84.1562 887.523 84.3906C888.211 84.625 889.07 84.8516 890.102 85.0703C892.039 85.4766 893.703 86 895.094 86.6406C896.5 87.2656 897.578 88.0781 898.328 89.0781C899.078 90.0625 899.453 91.3125 899.453 92.8281C899.453 93.9531 899.211 94.9844 898.727 95.9219C898.258 96.8438 897.57 97.6484 896.664 98.3359C895.758 99.0078 894.672 99.5312 893.406 99.9062C892.156 100.281 890.75 100.469 889.188 100.469C886.891 100.469 884.945 100.062 883.352 99.25C881.758 98.4219 880.547 97.3672 879.719 96.0859C878.906 94.7891 878.5 93.4453 878.5 92.0547H883.961C884.023 93.1016 884.312 93.9375 884.828 94.5625C885.359 95.1719 886.016 95.6172 886.797 95.8984C887.594 96.1641 888.414 96.2969 889.258 96.2969C890.273 96.2969 891.125 96.1641 891.812 95.8984C892.5 95.6172 893.023 95.2422 893.383 94.7734C893.742 94.2891 893.922 93.7422 893.922 93.1328ZM597.25 156H589.961L590.008 151.336H597.25C599.359 151.336 601.125 150.875 602.547 149.953C603.984 149.031 605.062 147.711 605.781 145.992C606.516 144.273 606.883 142.227 606.883 139.852V138C606.883 136.156 606.672 134.523 606.25 133.102C605.844 131.68 605.234 130.484 604.422 129.516C603.625 128.547 602.641 127.812 601.469 127.312C600.312 126.812 598.977 126.562 597.461 126.562H589.82V121.875H597.461C599.727 121.875 601.797 122.258 603.672 123.023C605.547 123.773 607.164 124.859 608.523 126.281C609.898 127.703 610.953 129.406 611.688 131.391C612.422 133.375 612.789 135.594 612.789 138.047V139.852C612.789 142.305 612.422 144.523 611.688 146.508C610.953 148.492 609.898 150.195 608.523 151.617C607.148 153.023 605.508 154.109 603.602 154.875C601.711 155.625 599.594 156 597.25 156ZM593.219 121.875V156H587.336V121.875H593.219ZM632.43 150.914V138.82C632.43 137.914 632.266 137.133 631.938 136.477C631.609 135.82 631.109 135.312 630.438 134.953C629.781 134.594 628.953 134.414 627.953 134.414C627.031 134.414 626.234 134.57 625.562 134.883C624.891 135.195 624.367 135.617 623.992 136.148C623.617 136.68 623.43 137.281 623.43 137.953H617.805C617.805 136.953 618.047 135.984 618.531 135.047C619.016 134.109 619.719 133.273 620.641 132.539C621.562 131.805 622.664 131.227 623.945 130.805C625.227 130.383 626.664 130.172 628.258 130.172C630.164 130.172 631.852 130.492 633.32 131.133C634.805 131.773 635.969 132.742 636.812 134.039C637.672 135.32 638.102 136.93 638.102 138.867V150.141C638.102 151.297 638.18 152.336 638.336 153.258C638.508 154.164 638.75 154.953 639.062 155.625V156H633.273C633.008 155.391 632.797 154.617 632.641 153.68C632.5 152.727 632.43 151.805 632.43 150.914ZM633.25 140.578L633.297 144.07H629.242C628.195 144.07 627.273 144.172 626.477 144.375C625.68 144.562 625.016 144.844 624.484 145.219C623.953 145.594 623.555 146.047 623.289 146.578C623.023 147.109 622.891 147.711 622.891 148.383C622.891 149.055 623.047 149.672 623.359 150.234C623.672 150.781 624.125 151.211 624.719 151.523C625.328 151.836 626.062 151.992 626.922 151.992C628.078 151.992 629.086 151.758 629.945 151.289C630.82 150.805 631.508 150.219 632.008 149.531C632.508 148.828 632.773 148.164 632.805 147.539L634.633 150.047C634.445 150.688 634.125 151.375 633.672 152.109C633.219 152.844 632.625 153.547 631.891 154.219C631.172 154.875 630.305 155.414 629.289 155.836C628.289 156.258 627.133 156.469 625.82 156.469C624.164 156.469 622.688 156.141 621.391 155.484C620.094 154.812 619.078 153.914 618.344 152.789C617.609 151.648 617.242 150.359 617.242 148.922C617.242 147.578 617.492 146.391 617.992 145.359C618.508 144.312 619.258 143.438 620.242 142.734C621.242 142.031 622.461 141.5 623.898 141.141C625.336 140.766 626.977 140.578 628.82 140.578H633.25ZM658.234 149.133C658.234 148.57 658.094 148.062 657.812 147.609C657.531 147.141 656.992 146.719 656.195 146.344C655.414 145.969 654.258 145.625 652.727 145.312C651.383 145.016 650.148 144.664 649.023 144.258C647.914 143.836 646.961 143.328 646.164 142.734C645.367 142.141 644.75 141.438 644.312 140.625C643.875 139.812 643.656 138.875 643.656 137.812C643.656 136.781 643.883 135.805 644.336 134.883C644.789 133.961 645.438 133.148 646.281 132.445C647.125 131.742 648.148 131.188 649.352 130.781C650.57 130.375 651.93 130.172 653.43 130.172C655.555 130.172 657.375 130.531 658.891 131.25C660.422 131.953 661.594 132.914 662.406 134.133C663.219 135.336 663.625 136.695 663.625 138.211H657.977C657.977 137.539 657.805 136.914 657.461 136.336C657.133 135.742 656.633 135.266 655.961 134.906C655.289 134.531 654.445 134.344 653.43 134.344C652.461 134.344 651.656 134.5 651.016 134.812C650.391 135.109 649.922 135.5 649.609 135.984C649.312 136.469 649.164 137 649.164 137.578C649.164 138 649.242 138.383 649.398 138.727C649.57 139.055 649.852 139.359 650.242 139.641C650.633 139.906 651.164 140.156 651.836 140.391C652.523 140.625 653.383 140.852 654.414 141.07C656.352 141.477 658.016 142 659.406 142.641C660.812 143.266 661.891 144.078 662.641 145.078C663.391 146.062 663.766 147.312 663.766 148.828C663.766 149.953 663.523 150.984 663.039 151.922C662.57 152.844 661.883 153.648 660.977 154.336C660.07 155.008 658.984 155.531 657.719 155.906C656.469 156.281 655.062 156.469 653.5 156.469C651.203 156.469 649.258 156.062 647.664 155.25C646.07 154.422 644.859 153.367 644.031 152.086C643.219 150.789 642.812 149.445 642.812 148.055H648.273C648.336 149.102 648.625 149.938 649.141 150.562C649.672 151.172 650.328 151.617 651.109 151.898C651.906 152.164 652.727 152.297 653.57 152.297C654.586 152.297 655.438 152.164 656.125 151.898C656.812 151.617 657.336 151.242 657.695 150.773C658.055 150.289 658.234 149.742 658.234 149.133ZM674.289 120V156H668.664V120H674.289ZM673.305 142.383L671.477 142.359C671.492 140.609 671.734 138.992 672.203 137.508C672.688 136.023 673.359 134.734 674.219 133.641C675.094 132.531 676.141 131.68 677.359 131.086C678.578 130.477 679.93 130.172 681.414 130.172C682.664 130.172 683.789 130.344 684.789 130.688C685.805 131.031 686.68 131.586 687.414 132.352C688.148 133.102 688.703 134.086 689.078 135.305C689.469 136.508 689.664 137.977 689.664 139.711V156H683.992V139.664C683.992 138.445 683.812 137.477 683.453 136.758C683.109 136.039 682.602 135.523 681.93 135.211C681.258 134.883 680.438 134.719 679.469 134.719C678.453 134.719 677.555 134.922 676.773 135.328C676.008 135.734 675.367 136.289 674.852 136.992C674.336 137.695 673.945 138.508 673.68 139.43C673.43 140.352 673.305 141.336 673.305 142.383ZM695.406 120H701.055V150.586L700.516 156H695.406V120ZM717.602 143.086V143.578C717.602 145.453 717.391 147.18 716.969 148.758C716.562 150.32 715.938 151.68 715.094 152.836C714.266 153.992 713.234 154.891 712 155.531C710.781 156.156 709.367 156.469 707.758 156.469C706.18 156.469 704.805 156.172 703.633 155.578C702.461 154.984 701.477 154.141 700.68 153.047C699.898 151.953 699.266 150.648 698.781 149.133C698.297 147.617 697.953 145.945 697.75 144.117V142.547C697.953 140.703 698.297 139.031 698.781 137.531C699.266 136.016 699.898 134.711 700.68 133.617C701.477 132.508 702.453 131.656 703.609 131.062C704.781 130.469 706.148 130.172 707.711 130.172C709.336 130.172 710.766 130.484 712 131.109C713.25 131.734 714.289 132.625 715.117 133.781C715.945 134.922 716.562 136.281 716.969 137.859C717.391 139.438 717.602 141.18 717.602 143.086ZM711.953 143.578V143.086C711.953 141.945 711.859 140.875 711.672 139.875C711.484 138.859 711.172 137.969 710.734 137.203C710.312 136.438 709.734 135.836 709 135.398C708.281 134.945 707.383 134.719 706.305 134.719C705.305 134.719 704.445 134.891 703.727 135.234C703.008 135.578 702.406 136.047 701.922 136.641C701.438 137.234 701.055 137.922 700.773 138.703C700.508 139.484 700.328 140.328 700.234 141.234V145.477C700.375 146.648 700.672 147.727 701.125 148.711C701.594 149.68 702.25 150.461 703.094 151.055C703.938 151.633 705.023 151.922 706.352 151.922C707.398 151.922 708.281 151.711 709 151.289C709.719 150.867 710.289 150.281 710.711 149.531C711.148 148.766 711.461 147.875 711.648 146.859C711.852 145.844 711.953 144.75 711.953 143.578ZM721.305 143.602V143.062C721.305 141.234 721.57 139.539 722.102 137.977C722.633 136.398 723.398 135.031 724.398 133.875C725.414 132.703 726.648 131.797 728.102 131.156C729.57 130.5 731.227 130.172 733.07 130.172C734.93 130.172 736.586 130.5 738.039 131.156C739.508 131.797 740.75 132.703 741.766 133.875C742.781 135.031 743.555 136.398 744.086 137.977C744.617 139.539 744.883 141.234 744.883 143.062V143.602C744.883 145.43 744.617 147.125 744.086 148.688C743.555 150.25 742.781 151.617 741.766 152.789C740.75 153.945 739.516 154.852 738.062 155.508C736.609 156.148 734.961 156.469 733.117 156.469C731.258 156.469 729.594 156.148 728.125 155.508C726.672 154.852 725.438 153.945 724.422 152.789C723.406 151.617 722.633 150.25 722.102 148.688C721.57 147.125 721.305 145.43 721.305 143.602ZM726.953 143.062V143.602C726.953 144.742 727.07 145.82 727.305 146.836C727.539 147.852 727.906 148.742 728.406 149.508C728.906 150.273 729.547 150.875 730.328 151.312C731.109 151.75 732.039 151.969 733.117 151.969C734.164 151.969 735.07 151.75 735.836 151.312C736.617 150.875 737.258 150.273 737.758 149.508C738.258 148.742 738.625 147.852 738.859 146.836C739.109 145.82 739.234 144.742 739.234 143.602V143.062C739.234 141.938 739.109 140.875 738.859 139.875C738.625 138.859 738.25 137.961 737.734 137.18C737.234 136.398 736.594 135.789 735.812 135.352C735.047 134.898 734.133 134.672 733.07 134.672C732.008 134.672 731.086 134.898 730.305 135.352C729.539 135.789 728.906 136.398 728.406 137.18C727.906 137.961 727.539 138.859 727.305 139.875C727.07 140.875 726.953 141.938 726.953 143.062ZM763.914 150.914V138.82C763.914 137.914 763.75 137.133 763.422 136.477C763.094 135.82 762.594 135.312 761.922 134.953C761.266 134.594 760.438 134.414 759.438 134.414C758.516 134.414 757.719 134.57 757.047 134.883C756.375 135.195 755.852 135.617 755.477 136.148C755.102 136.68 754.914 137.281 754.914 137.953H749.289C749.289 136.953 749.531 135.984 750.016 135.047C750.5 134.109 751.203 133.273 752.125 132.539C753.047 131.805 754.148 131.227 755.43 130.805C756.711 130.383 758.148 130.172 759.742 130.172C761.648 130.172 763.336 130.492 764.805 131.133C766.289 131.773 767.453 132.742 768.297 134.039C769.156 135.32 769.586 136.93 769.586 138.867V150.141C769.586 151.297 769.664 152.336 769.82 153.258C769.992 154.164 770.234 154.953 770.547 155.625V156H764.758C764.492 155.391 764.281 154.617 764.125 153.68C763.984 152.727 763.914 151.805 763.914 150.914ZM764.734 140.578L764.781 144.07H760.727C759.68 144.07 758.758 144.172 757.961 144.375C757.164 144.562 756.5 144.844 755.969 145.219C755.438 145.594 755.039 146.047 754.773 146.578C754.508 147.109 754.375 147.711 754.375 148.383C754.375 149.055 754.531 149.672 754.844 150.234C755.156 150.781 755.609 151.211 756.203 151.523C756.812 151.836 757.547 151.992 758.406 151.992C759.562 151.992 760.57 151.758 761.43 151.289C762.305 150.805 762.992 150.219 763.492 149.531C763.992 148.828 764.258 148.164 764.289 147.539L766.117 150.047C765.93 150.688 765.609 151.375 765.156 152.109C764.703 152.844 764.109 153.547 763.375 154.219C762.656 154.875 761.789 155.414 760.773 155.836C759.773 156.258 758.617 156.469 757.305 156.469C755.648 156.469 754.172 156.141 752.875 155.484C751.578 154.812 750.562 153.914 749.828 152.789C749.094 151.648 748.727 150.359 748.727 148.922C748.727 147.578 748.977 146.391 749.477 145.359C749.992 144.312 750.742 143.438 751.727 142.734C752.727 142.031 753.945 141.5 755.383 141.141C756.82 140.766 758.461 140.578 760.305 140.578H764.734ZM781.164 135.469V156H775.516V130.641H780.906L781.164 135.469ZM788.922 130.477L788.875 135.727C788.531 135.664 788.156 135.617 787.75 135.586C787.359 135.555 786.969 135.539 786.578 135.539C785.609 135.539 784.758 135.68 784.023 135.961C783.289 136.227 782.672 136.617 782.172 137.133C781.688 137.633 781.312 138.242 781.047 138.961C780.781 139.68 780.625 140.484 780.578 141.375L779.289 141.469C779.289 139.875 779.445 138.398 779.758 137.039C780.07 135.68 780.539 134.484 781.164 133.453C781.805 132.422 782.602 131.617 783.555 131.039C784.523 130.461 785.641 130.172 786.906 130.172C787.25 130.172 787.617 130.203 788.008 130.266C788.414 130.328 788.719 130.398 788.922 130.477ZM807.461 150.75V120H813.133V156H808L807.461 150.75ZM790.961 143.602V143.109C790.961 141.188 791.188 139.438 791.641 137.859C792.094 136.266 792.75 134.898 793.609 133.758C794.469 132.602 795.516 131.719 796.75 131.109C797.984 130.484 799.375 130.172 800.922 130.172C802.453 130.172 803.797 130.469 804.953 131.062C806.109 131.656 807.094 132.508 807.906 133.617C808.719 134.711 809.367 136.023 809.852 137.555C810.336 139.07 810.68 140.758 810.883 142.617V144.188C810.68 146 810.336 147.656 809.852 149.156C809.367 150.656 808.719 151.953 807.906 153.047C807.094 154.141 806.102 154.984 804.93 155.578C803.773 156.172 802.422 156.469 800.875 156.469C799.344 156.469 797.961 156.148 796.727 155.508C795.508 154.867 794.469 153.969 793.609 152.812C792.75 151.656 792.094 150.297 791.641 148.734C791.188 147.156 790.961 145.445 790.961 143.602ZM796.609 143.109V143.602C796.609 144.758 796.711 145.836 796.914 146.836C797.133 147.836 797.469 148.719 797.922 149.484C798.375 150.234 798.961 150.828 799.68 151.266C800.414 151.688 801.289 151.898 802.305 151.898C803.586 151.898 804.641 151.617 805.469 151.055C806.297 150.492 806.945 149.734 807.414 148.781C807.898 147.812 808.227 146.734 808.398 145.547V141.305C808.305 140.383 808.109 139.523 807.812 138.727C807.531 137.93 807.148 137.234 806.664 136.641C806.18 136.031 805.578 135.562 804.859 135.234C804.156 134.891 803.32 134.719 802.352 134.719C801.32 134.719 800.445 134.938 799.727 135.375C799.008 135.812 798.414 136.414 797.945 137.18C797.492 137.945 797.156 138.836 796.938 139.852C796.719 140.867 796.609 141.953 796.609 143.109Z" fill="white"/>
<line x1="700.5" y1="180" x2="700.5" y2="200" stroke="#395370"/>
<path d="M-150 -127.94C-37.6719 -82.6293 22.877 -22.8703 57.7976 26.0168C86.9074 66.7743 86.391 83.4467 117.301 113.855C184.38 179.84 312.876 225.342 375.153 168.638C405.83 140.704 394.482 105.306 409.156 38.2943C422.357 -21.9873 456.487 -104.896 551.776 -195" stroke="#9CEF54" stroke-opacity="0.7" stroke-miterlimit="10"/>
<path d="M-149.775 -113.321C-40.5176 -74.3802 19.4257 -18.1615 54.328 27.5904C83.6951 66.0978 86.0829 81.4963 118.915 111.382C187.79 174.076 308.465 217.723 370.828 164.814C402.952 137.563 395.645 102.77 412.837 35.955C427.975 -22.8683 462.802 -104.359 556.449 -193.655" stroke="#9CEF54" stroke-opacity="0.7" stroke-miterlimit="10"/>
<path d="M-149.551 -98.7043C-43.3652 -66.1311 16.0192 -13.4384 50.8647 29.1642C80.5498 65.4578 85.7225 79.548 120.536 108.909C191.055 168.384 304.246 210.205 366.514 160.992C400.153 134.404 396.761 100.269 416.528 33.6178C433.54 -23.7331 469.125 -103.816 561.135 -192.3" stroke="#9CEF54" stroke-opacity="0.7" stroke-miterlimit="10"/>
<path d="M-149.326 -84.0855C-46.213 -57.88 12.6711 -8.70121 47.4012 30.7499C77.4428 64.8563 85.303 77.6137 122.164 106.434C194.188 162.774 300.209 202.801 362.204 157.168C397.429 131.244 397.826 97.796 420.224 31.2785C439.033 -24.5858 475.454 -103.273 565.814 -190.951" stroke="#9CEF54" stroke-opacity="0.7" stroke-miterlimit="10"/>
<path d="M-149.101 -69.4688C-49.0499 -49.6349 9.39264 -3.964 43.9385 32.3135C74.3891 64.2872 84.8499 75.6978 123.772 103.961C197.176 157.247 296.319 195.518 357.877 153.344C394.758 128.079 398.815 95.3394 423.902 28.9393C444.447 -25.4344 481.768 -102.733 570.48 -189.592" stroke="#9CEF54" stroke-opacity="0.7" stroke-miterlimit="10"/>
<path d="M-148.876 -54.8521C-51.9056 -41.3858 6.18862 0.775247 40.4752 33.8872C71.3998 63.7525 84.3233 73.8102 125.393 101.486C200.064 151.811 292.589 188.358 353.559 149.523C392.163 124.931 399.736 92.8948 427.59 26.6001C449.802 -26.285 488.089 -102.19 575.159 -188.254" stroke="#9CEF54" stroke-opacity="0.7" stroke-miterlimit="10"/>
<path d="M-148.651 -40.2354C-54.7534 -33.1468 3.0735 5.49426 37.0117 35.4609C68.4791 63.2462 83.7622 71.955 127.011 99.0133C202.859 146.464 288.992 181.328 349.241 145.699C389.632 121.812 400.615 90.4502 431.278 24.2629C455.094 -27.1437 494.417 -101.647 579.835 -186.903" stroke="#9CEF54" stroke-opacity="0.7" stroke-miterlimit="10"/>
<path d="M-148.418 -25.6166C-57.5931 -24.8895 0.0636276 10.191 33.5563 37.0346C65.6474 62.7561 83.1766 70.1404 128.637 96.5404C205.579 141.209 285.524 174.426 344.931 141.875C387.171 118.732 401.423 88.0017 434.974 21.9237C460.321 -28.0126 500.73 -101.098 584.513 -185.554" stroke="#9CEF54" stroke-opacity="0.7" stroke-miterlimit="10"/>
<path d="M-148.202 -10.9999C-60.4487 -16.6405 -2.8568 14.8431 30.085 38.6102C62.8951 62.274 82.5245 68.3824 130.249 94.0654C208.224 136.042 282.148 167.653 340.605 138.053C384.757 115.702 402.148 85.5328 438.654 19.5844C465.494 -28.8997 507.051 -100.564 589.202 -184.205" stroke="#9CEF54" stroke-opacity="0.7" stroke-miterlimit="10"/>
<path d="M-147.977 3.61067C-63.2945 -8.39743 -5.66206 19.4284 26.6215 40.1778C60.2276 61.7757 81.8559 66.6446 131.867 91.5864C210.81 130.954 278.857 160.998 336.286 134.223C382.393 112.729 402.816 83.0335 442.342 17.239C470.611 -29.8152 513.374 -100.027 593.868 -182.862" stroke="#9CEF54" stroke-opacity="0.7" stroke-miterlimit="10"/>
<path d="M-147.751 18.2355C-66.1312 -0.142219 -8.35699 23.9489 23.161 41.7575C57.6683 61.2573 81.164 64.9819 133.488 89.1176C213.363 125.962 275.643 154.479 331.969 130.408C380.085 109.845 403.418 80.512 446.031 14.9059C475.68 -30.7427 519.696 -99.4779 598.547 -181.503" stroke="#9CEF54" stroke-opacity="0.7" stroke-miterlimit="10"/>
<path d="M-147.527 32.8523C-68.9891 8.1049 -10.9496 28.3662 19.6975 43.3312C55.2054 60.672 80.457 63.3697 135.106 86.6447C215.884 121.043 272.488 148.069 327.651 126.584C377.82 107.046 403.959 77.9439 449.719 12.5687C480.706 -31.7047 526.017 -98.9372 603.224 -180.156" stroke="#9CEF54" stroke-opacity="0.7" stroke-miterlimit="10"/>
<path d="M-147.302 47.471C-71.8369 16.354 -13.4531 32.67 16.234 44.907C52.8355 59.9936 79.7156 61.8123 136.726 84.1718C218.385 116.198 269.372 141.772 323.335 122.76C375.588 104.35 404.441 75.3292 453.407 10.2295C485.694 -32.6971 532.338 -98.3944 607.902 -178.808" stroke="#9CEF54" stroke-opacity="0.7" stroke-miterlimit="10"/>
<path d="M-147.078 62.0877C-74.6827 24.6031 -15.8816 36.8482 12.7705 46.4806C50.5488 59.1814 78.97 60.3135 138.34 81.6968C220.868 111.42 266.281 135.57 319.013 118.938C373.398 101.774 404.862 72.6578 457.091 7.89022C490.652 -33.724 538.658 -97.8577 612.578 -177.453" stroke="#9CEF54" stroke-opacity="0.7" stroke-miterlimit="10"/>
<path d="M-146.853 76.7044C-77.5302 32.8502 -18.2613 40.8907 9.29918 48.0542C48.3149 58.193 78.2086 58.8714 139.956 79.2239C223.349 106.709 263.203 129.488 314.691 115.115C371.227 99.3312 405.235 69.9277 460.775 5.54485C495.574 -34.7914 544.973 -97.317 617.249 -176.116" stroke="#9CEF54" stroke-opacity="0.7" stroke-miterlimit="10"/>
<path d="M-146.628 91.3231C-80.3679 41.0993 -20.621 44.7955 5.84378 49.6279C46.1273 56.9839 77.457 57.4882 141.583 76.749C225.836 102.065 260.137 123.491 310.381 111.293C369.084 97.0366 405.57 67.1409 464.471 3.21375C500.493 -35.883 551.302 -96.7681 621.933 -174.759" stroke="#9CEF54" stroke-opacity="0.7" stroke-miterlimit="10"/>
<path d="M-146.393 105.94C-83.2153 49.3484 -22.707 55.8902 2.39078 51.2036C43.4419 43.5358 76.7078 56.1636 143.213 74.2761C228.337 97.4639 257.05 117.583 306.063 107.469C366.942 94.912 405.86 64.271 468.159 0.874496C505.386 -37.0111 557.623 -96.2253 626.612 -173.402" stroke="#9CEF54" stroke-opacity="0.7" stroke-miterlimit="10"/>
<path d="M-146.178 120.557C-86.0706 57.5976 -24.8412 58.2598 -1.08223 52.7773C40.5603 43.1692 75.9386 54.8937 144.822 71.8031C230.847 92.9272 253.927 111.763 301.745 103.645C364.793 92.9556 406.116 61.3403 471.848 -1.4688C510.272 -38.1817 563.945 -95.6886 631.289 -172.065" stroke="#9CEF54" stroke-opacity="0.7" stroke-miterlimit="10"/>
<path d="M-145.953 135.175C-88.9184 65.8447 -27.2556 60.3966 -4.54573 54.351C37.8462 43.068 75.1829 53.6806 146.442 69.3383C233.37 88.429 250.766 106.009 297.427 99.8335C362.628 91.2037 406.343 58.3469 475.535 -3.79385C515.149 -39.3685 570.268 -95.1357 635.967 -170.702" stroke="#9CEF54" stroke-opacity="0.7" stroke-miterlimit="10"/>
<path d="M-145.729 149.792C-91.766 74.0938 -30.6804 59.2604 -8.00694 55.9247C36.6533 49.3687 74.4397 52.5181 148.062 66.8614C235.92 83.9693 247.55 100.314 293.111 96.0057C360.429 89.634 406.545 55.2563 479.228 -6.1432C520.03 -40.6141 576.593 -94.5989 640.645 -169.364" stroke="#9CEF54" stroke-opacity="0.7" stroke-miterlimit="10"/>
<path d="M-145.504 164.409C-94.6138 82.3429 -33.5039 62.6993 -11.4725 57.5003C33.8237 46.8127 73.7002 51.4082 149.678 64.3864C238.486 79.55 244.26 94.6811 288.791 92.1819C358.18 88.2892 406.731 52.1211 482.911 -8.47639C524.904 -41.8799 582.91 -94.0521 645.322 -168.009" stroke="#9CEF54" stroke-opacity="0.7" stroke-miterlimit="10"/>
<path d="M-145.279 179.027C-97.4595 90.592 -36.5198 66.1424 -14.936 59.074C30.7349 44.111 72.9749 50.3469 151.298 61.9095C241.082 75.1631 240.894 89.0933 284.475 88.3561C355.867 87.1409 406.903 48.9009 486.601 -10.8176C529.787 -43.1741 589.23 -93.5154 650 -166.664" stroke="#9CEF54" stroke-opacity="0.7" stroke-miterlimit="10"/>
<path d="M1001.06 671C1046.37 558.672 1106.13 498.123 1155.02 463.202C1195.77 434.093 1212.45 434.609 1242.85 403.699C1308.84 336.62 1354.34 208.124 1297.64 145.847C1269.7 115.17 1234.31 126.518 1167.29 111.844C1107.01 98.6433 1024.1 64.5127 934 -30.7765" stroke="#9CEF54" stroke-opacity="0.7" stroke-miterlimit="10"/>
<path d="M1015.68 670.775C1054.62 561.517 1110.84 501.574 1156.59 466.672C1195.1 437.305 1210.5 434.917 1240.38 402.085C1303.08 333.21 1346.72 212.535 1293.81 150.172C1266.56 118.048 1231.77 125.355 1164.95 108.162C1106.13 93.0252 1024.64 58.1978 935.345 -35.4488" stroke="#9CEF54" stroke-opacity="0.7" stroke-miterlimit="10"/>
<path d="M1030.3 670.551C1062.87 564.365 1115.56 504.981 1158.16 470.135C1194.46 440.45 1208.55 435.278 1237.91 400.464C1297.38 329.945 1339.21 216.754 1289.99 154.486C1263.4 120.847 1229.27 124.24 1162.62 104.472C1105.27 87.4598 1025.18 51.875 936.7 -40.1352" stroke="#9CEF54" stroke-opacity="0.7" stroke-miterlimit="10"/>
<path d="M1044.91 670.326C1071.12 567.213 1120.3 508.329 1159.75 473.599C1193.86 443.557 1206.61 435.697 1235.43 398.836C1291.77 326.812 1331.8 220.791 1286.17 158.796C1260.24 123.571 1226.8 123.174 1160.28 100.776C1104.41 81.9672 1025.73 45.5459 938.049 -44.8136" stroke="#9CEF54" stroke-opacity="0.7" stroke-miterlimit="10"/>
<path d="M1059.53 670.1C1079.37 570.05 1125.04 511.607 1161.31 477.061C1193.29 446.611 1204.7 436.15 1232.96 397.227C1286.25 323.824 1324.52 224.681 1282.34 163.123C1257.08 126.242 1224.34 122.185 1157.94 97.0977C1103.57 76.5528 1026.27 39.2323 939.408 -49.4806" stroke="#9CEF54" stroke-opacity="0.7" stroke-miterlimit="10"/>
<path d="M1074.15 669.876C1087.61 572.906 1129.78 514.812 1162.89 480.525C1192.75 449.6 1202.81 436.677 1230.49 395.607C1280.81 320.936 1317.36 228.411 1278.52 167.441C1253.93 128.837 1221.89 121.264 1155.6 93.4098C1102.71 71.1982 1026.81 32.9116 940.746 -54.1588" stroke="#9CEF54" stroke-opacity="0.7" stroke-miterlimit="10"/>
<path d="M1088.76 669.651C1095.85 575.753 1134.49 517.927 1164.46 483.988C1192.25 452.521 1200.95 437.238 1228.01 393.989C1275.46 318.141 1310.33 232.008 1274.7 171.759C1250.81 131.368 1219.45 120.385 1153.26 89.7218C1101.86 65.9061 1027.35 26.5825 942.097 -58.8352" stroke="#9CEF54" stroke-opacity="0.7" stroke-miterlimit="10"/>
<path d="M1103.38 669.418C1104.11 578.593 1139.19 520.936 1166.03 487.444C1191.76 455.353 1199.14 437.823 1225.54 392.363C1270.21 315.421 1303.43 235.476 1270.88 176.069C1247.73 133.829 1217 119.577 1150.92 86.0258C1100.99 60.679 1027.9 20.2698 943.446 -63.5135" stroke="#9CEF54" stroke-opacity="0.7" stroke-miterlimit="10"/>
<path d="M1118 669.202C1112.36 581.449 1143.84 523.857 1167.61 490.915C1191.27 458.105 1197.38 438.476 1223.07 390.751C1265.04 312.776 1296.65 238.852 1267.05 180.396C1244.7 136.244 1214.53 118.852 1148.58 82.3459C1100.1 55.5064 1028.44 13.9489 944.795 -68.202" stroke="#9CEF54" stroke-opacity="0.7" stroke-miterlimit="10"/>
<path d="M1132.61 668.977C1120.6 584.294 1148.43 526.662 1169.18 494.379C1190.78 460.772 1195.64 439.144 1220.59 389.133C1259.95 310.19 1290 242.143 1263.22 184.714C1241.73 138.607 1212.03 118.184 1146.24 78.6579C1099.18 50.3885 1028.97 7.62593 946.138 -72.8683" stroke="#9CEF54" stroke-opacity="0.7" stroke-miterlimit="10"/>
<path d="M1147.24 668.752C1128.86 587.131 1152.95 529.357 1170.76 497.839C1190.26 463.332 1193.98 439.836 1218.12 387.512C1254.96 307.638 1283.48 245.357 1259.41 189.031C1238.84 140.915 1209.51 117.582 1143.91 74.9691C1098.26 45.3205 1029.52 1.30431 947.497 -77.5474" stroke="#9CEF54" stroke-opacity="0.7" stroke-miterlimit="10"/>
<path d="M1161.85 668.527C1137.1 589.989 1157.37 531.95 1172.33 501.302C1189.67 465.795 1192.37 440.543 1215.64 385.894C1250.04 305.116 1277.07 248.512 1255.58 193.349C1236.05 143.18 1206.94 117.041 1141.57 71.281C1097.3 40.2937 1030.06 -5.01672 948.844 -82.2238" stroke="#9CEF54" stroke-opacity="0.7" stroke-miterlimit="10"/>
<path d="M1176.47 668.302C1145.35 592.837 1161.67 534.453 1173.91 504.766C1188.99 468.164 1190.81 441.284 1213.17 384.274C1245.2 302.615 1270.77 251.628 1251.76 197.665C1233.35 145.412 1204.33 116.559 1139.23 67.5931C1096.3 35.3055 1030.61 -11.3375 950.192 -86.9021" stroke="#9CEF54" stroke-opacity="0.7" stroke-miterlimit="10"/>
<path d="M1191.09 668.078C1153.6 595.683 1165.85 536.882 1175.48 508.229C1188.18 470.451 1189.31 442.03 1210.7 382.66C1240.42 300.132 1264.57 254.718 1247.94 201.987C1230.77 147.601 1201.66 116.138 1136.89 63.9092C1095.28 30.3477 1031.14 -17.6584 951.547 -91.5784" stroke="#9CEF54" stroke-opacity="0.7" stroke-miterlimit="10"/>
<path d="M1205.7 667.853C1161.85 598.53 1169.89 539.261 1177.05 511.701C1187.19 472.685 1187.87 442.791 1208.22 381.044C1235.71 297.651 1258.49 257.797 1244.11 206.309C1228.33 149.773 1198.93 115.765 1134.54 60.2252C1094.21 25.4262 1031.68 -23.9733 952.884 -96.2488" stroke="#9CEF54" stroke-opacity="0.7" stroke-miterlimit="10"/>
<path d="M1220.32 667.628C1170.1 601.368 1173.8 541.621 1178.63 515.156C1185.98 474.873 1186.49 443.543 1205.75 379.417C1231.07 295.164 1252.49 260.863 1240.29 210.619C1226.04 151.916 1196.14 115.43 1132.21 56.5292C1093.12 20.5069 1032.23 -30.3022 954.241 -100.933" stroke="#9CEF54" stroke-opacity="0.7" stroke-miterlimit="10"/>
<path d="M1234.94 667.393C1178.35 604.215 1184.89 543.707 1180.2 518.609C1172.54 477.558 1185.16 444.292 1203.28 377.787C1226.46 292.663 1246.58 263.95 1236.47 214.937C1223.91 154.058 1193.27 115.14 1129.87 52.8411C1091.99 15.6137 1032.77 -36.6232 955.598 -105.612" stroke="#9CEF54" stroke-opacity="0.7" stroke-miterlimit="10"/>
<path d="M1249.56 667.178C1186.6 607.071 1187.26 545.841 1181.78 522.082C1172.17 480.44 1183.89 445.061 1200.8 376.178C1221.93 290.153 1240.76 267.073 1232.65 219.255C1221.96 156.207 1190.34 114.884 1127.53 49.1524C1090.82 10.7281 1033.31 -42.9448 956.935 -110.289" stroke="#9CEF54" stroke-opacity="0.7" stroke-miterlimit="10"/>
<path d="M1264.18 666.953C1194.84 609.918 1189.4 548.256 1183.35 525.546C1172.07 483.154 1182.68 445.817 1198.34 374.558C1217.43 287.63 1235.01 270.234 1228.83 223.573C1220.2 158.372 1187.35 114.657 1125.21 45.4645C1089.63 5.85137 1033.86 -49.2676 958.298 -114.967" stroke="#9CEF54" stroke-opacity="0.7" stroke-miterlimit="10"/>
<path d="M1278.79 666.729C1203.09 612.766 1188.26 551.68 1184.92 529.007C1178.37 484.347 1181.52 446.56 1195.86 372.938C1212.97 285.08 1229.31 273.451 1225.01 227.889C1218.63 160.571 1184.26 114.455 1122.86 41.7724C1088.39 0.970406 1034.4 -55.5927 959.636 -119.645" stroke="#9CEF54" stroke-opacity="0.7" stroke-miterlimit="10"/>
<path d="M1293.41 666.504C1211.34 615.614 1191.7 554.504 1186.5 532.472C1175.81 487.176 1180.41 447.3 1193.39 371.322C1208.55 282.514 1223.68 276.74 1221.18 232.209C1217.29 162.82 1181.12 114.269 1120.52 38.0885C1087.12 -3.90442 1034.95 -61.9095 960.991 -124.322" stroke="#9CEF54" stroke-opacity="0.7" stroke-miterlimit="10"/>
<path d="M1308.03 666.279C1219.59 618.46 1195.14 557.52 1188.07 535.936C1173.11 490.265 1179.35 448.025 1190.91 369.702C1204.16 279.918 1218.09 280.106 1217.36 236.525C1216.14 165.133 1177.9 114.097 1118.18 34.3986C1085.83 -8.78723 1035.48 -68.2303 962.336 -129" stroke="#9CEF54" stroke-opacity="0.7" stroke-miterlimit="10"/>
<path d="M1435 182.522C1380.1 160.376 1350.51 131.169 1333.44 107.275C1319.21 87.3552 1319.46 79.2066 1304.36 64.3446C1271.57 32.0946 1208.77 9.85506 1178.33 37.5696C1163.34 51.2219 1168.88 68.5229 1161.71 101.275C1155.26 130.737 1138.58 171.259 1092.01 215.297" stroke="white" stroke-opacity="0.2" stroke-miterlimit="10"/>
<path d="M1434.89 175.377C1381.49 156.344 1352.19 128.868 1335.13 106.506C1320.78 87.6858 1319.61 80.1598 1303.57 65.5532C1269.9 34.9117 1210.93 13.5789 1180.45 39.4384C1164.74 52.7571 1168.32 69.7622 1159.91 102.418C1152.51 131.168 1135.49 170.997 1089.72 214.64" stroke="white" stroke-opacity="0.2" stroke-miterlimit="10"/>
<path d="M1434.78 168.233C1382.88 152.313 1353.86 126.559 1336.83 105.737C1322.32 87.9986 1319.79 81.1121 1302.78 66.7619C1268.31 37.6933 1212.99 17.2534 1182.55 41.3063C1166.11 54.3014 1167.77 70.9847 1158.11 103.56C1149.79 131.591 1132.4 170.731 1087.43 213.978" stroke="white" stroke-opacity="0.2" stroke-miterlimit="10"/>
<path d="M1434.67 161.088C1384.27 148.28 1355.49 124.244 1338.52 104.962C1323.84 88.2927 1320 82.0574 1301.98 67.9715C1266.78 40.4352 1214.96 20.8724 1184.66 43.1752C1167.44 55.8456 1167.25 72.1933 1156.3 104.704C1147.11 132.007 1129.31 170.466 1085.15 213.319" stroke="white" stroke-opacity="0.2" stroke-miterlimit="10"/>
<path d="M1434.56 153.944C1385.66 144.25 1357.1 121.929 1340.21 104.198C1325.33 88.5708 1320.22 82.9938 1301.19 69.1801C1265.32 43.1366 1216.86 24.4319 1186.78 45.044C1168.75 57.3927 1166.77 73.394 1154.51 105.847C1144.46 132.422 1126.22 170.202 1082.87 212.654" stroke="white" stroke-opacity="0.2" stroke-miterlimit="10"/>
<path d="M1434.45 146.8C1387.06 140.218 1358.66 119.612 1341.91 103.429C1326.79 88.8321 1320.47 83.9164 1300.4 70.3898C1263.91 45.7934 1218.68 27.9311 1188.89 46.912C1170.02 58.931 1166.32 74.5888 1152.7 106.99C1141.85 132.838 1123.13 169.936 1080.58 212" stroke="white" stroke-opacity="0.2" stroke-miterlimit="10"/>
<path d="M1434.34 139.656C1388.45 136.192 1360.19 117.306 1343.6 102.66C1328.22 89.0796 1320.75 84.8231 1299.61 71.5984C1262.54 48.4067 1220.44 31.367 1191 48.7808C1171.26 60.4554 1165.89 75.7836 1150.9 108.133C1139.26 133.258 1120.04 169.671 1078.29 211.34" stroke="white" stroke-opacity="0.2" stroke-miterlimit="10"/>
<path d="M1434.23 132.511C1389.84 132.156 1361.66 115.01 1345.29 101.891C1329.6 89.3192 1321.03 85.7101 1298.82 72.8071C1261.21 50.9754 1222.14 34.7405 1193.1 50.6497C1172.46 61.961 1165.49 76.9804 1149.09 109.276C1136.71 133.682 1116.96 169.403 1076.01 210.681" stroke="white" stroke-opacity="0.2" stroke-miterlimit="10"/>
<path d="M1434.12 125.367C1391.23 128.124 1363.08 112.737 1346.98 101.12C1330.95 89.5547 1321.35 86.5692 1298.03 74.0167C1259.92 53.5005 1223.79 38.0506 1195.22 52.5176C1173.64 63.4418 1165.14 78.187 1147.3 110.419C1134.18 134.116 1113.87 169.142 1073.71 210.021" stroke="white" stroke-opacity="0.2" stroke-miterlimit="10"/>
<path d="M1434.01 118.226C1392.62 124.095 1364.45 110.496 1348.68 100.354C1332.25 89.7983 1321.68 87.4186 1297.24 75.2283C1258.65 55.9872 1225.4 41.3034 1197.33 54.3895C1174.79 64.895 1164.81 79.4085 1145.49 111.566C1131.68 134.563 1110.78 168.879 1071.43 209.365" stroke="white" stroke-opacity="0.2" stroke-miterlimit="10"/>
<path d="M1433.9 111.079C1394.01 120.061 1365.77 108.286 1350.37 99.5821C1333.5 90.0516 1322.02 88.2312 1296.45 76.4349C1257.41 58.4271 1226.97 44.4897 1199.44 56.2543C1175.92 66.3045 1164.52 80.6409 1143.69 112.706C1129.2 135.017 1107.69 168.611 1069.15 208.701" stroke="white" stroke-opacity="0.2" stroke-miterlimit="10"/>
<path d="M1433.79 103.935C1395.41 116.03 1367.04 106.127 1352.06 98.8131C1334.71 90.3378 1322.36 89.0193 1295.65 77.6436C1256.17 60.8316 1228.51 47.6227 1201.55 58.1233C1177.03 67.6726 1164.25 81.8961 1141.89 113.848C1126.74 135.487 1104.6 168.347 1066.86 208.043" stroke="white" stroke-opacity="0.2" stroke-miterlimit="10"/>
<path d="M1433.68 96.7897C1396.8 111.998 1368.26 104.024 1353.75 98.0429C1335.86 90.6693 1322.73 89.7804 1294.86 78.8522C1254.95 63.1994 1230.03 50.7002 1203.66 59.9922C1178.12 68.9901 1164.02 83.174 1140.09 114.992C1124.3 135.972 1101.51 168.081 1064.58 207.383" stroke="white" stroke-opacity="0.2" stroke-miterlimit="10"/>
<path d="M1433.57 89.6458C1398.19 107.966 1369.45 101.982 1355.45 97.2738C1336.98 91.0663 1323.09 90.5129 1294.07 80.0618C1253.74 65.5344 1231.54 53.7312 1205.77 61.86C1179.19 70.2492 1163.81 84.4796 1138.28 116.135C1121.88 136.474 1098.42 167.819 1062.29 206.721" stroke="white" stroke-opacity="0.2" stroke-miterlimit="10"/>
<path d="M1433.46 82.5019C1399.58 103.936 1370.61 100.006 1357.14 96.5046C1338.07 91.5493 1323.46 91.2177 1293.28 81.2705C1252.53 67.8369 1233.05 56.7038 1207.88 63.7289C1180.25 71.443 1163.63 85.814 1136.48 117.281C1119.48 136.995 1095.33 167.555 1060.01 206.068" stroke="white" stroke-opacity="0.2" stroke-miterlimit="10"/>
<path d="M1433.35 75.357C1400.97 99.9039 1371.77 98.0973 1358.83 95.7355C1339.14 92.1403 1323.83 91.8938 1292.49 82.4801C1251.31 70.1067 1234.55 59.6348 1209.99 65.5968C1181.3 72.5645 1163.46 87.1761 1134.68 118.42C1117.07 137.529 1092.24 167.287 1057.72 205.405" stroke="white" stroke-opacity="0.2" stroke-miterlimit="10"/>
<path d="M1433.24 68.213C1402.36 95.872 1372.79 92.6747 1360.52 94.9653C1340.46 98.713 1324.2 92.5411 1291.69 83.6887C1250.09 72.3556 1236.05 62.5222 1212.1 67.4656C1182.34 73.6028 1163.32 88.5786 1132.87 119.564C1114.68 138.08 1089.15 167.021 1055.43 204.741" stroke="white" stroke-opacity="0.2" stroke-miterlimit="10"/>
<path d="M1433.13 61.0691C1403.75 91.8403 1373.83 91.5167 1362.22 94.1962C1341.86 98.8922 1324.57 93.1618 1290.91 84.8974C1248.86 74.573 1237.58 65.3672 1214.21 69.3346C1183.39 74.5591 1163.2 90.0111 1131.07 120.709C1112.29 138.652 1086.06 166.759 1053.15 204.088" stroke="white" stroke-opacity="0.2" stroke-miterlimit="10"/>
<path d="M1433.02 53.9242C1405.15 87.8096 1375.01 90.4723 1363.91 93.4271C1343.19 98.9417 1324.94 93.7547 1290.11 86.102C1247.63 76.7715 1239.13 68.1794 1216.32 71.1975C1184.45 75.4153 1163.09 91.4741 1129.27 121.845C1109.91 139.233 1082.97 166.489 1050.86 203.422" stroke="white" stroke-opacity="0.2" stroke-miterlimit="10"/>
<path d="M1432.91 46.7803C1406.54 83.7778 1376.68 91.0276 1365.6 92.658C1343.77 95.8622 1325.31 94.3229 1289.32 87.3126C1246.38 78.9512 1240.7 70.9629 1218.43 73.0684C1185.53 76.1825 1162.99 92.9846 1127.47 122.994C1107.52 139.841 1079.88 166.226 1048.57 202.768" stroke="white" stroke-opacity="0.2" stroke-miterlimit="10"/>
<path d="M1432.8 39.6364C1407.93 79.7461 1378.06 89.3468 1367.29 91.8879C1345.16 97.1114 1325.67 94.8654 1288.53 88.5223C1245.13 81.1111 1242.31 73.7158 1220.54 74.9373C1186.63 76.8398 1162.9 94.517 1125.66 124.134C1105.14 140.46 1076.79 165.959 1046.29 202.105" stroke="white" stroke-opacity="0.2" stroke-miterlimit="10"/>
<path d="M1432.69 32.4915C1409.32 75.7143 1379.54 87.6641 1368.99 91.1187C1346.67 98.4319 1326.02 95.3841 1287.74 89.7329C1243.86 83.2552 1243.95 76.4468 1222.65 76.8071C1187.76 77.401 1162.81 96.0908 1123.86 125.278C1102.75 141.092 1073.7 165.697 1044 201.448" stroke="white" stroke-opacity="0.2" stroke-miterlimit="10"/>
<path d="M170.522 -118C148.376 -63.0996 119.169 -33.5064 95.2754 -16.4389C75.3552 -2.21149 67.2065 -2.46391 52.3446 12.6435C20.0945 45.4282 -2.145 108.231 25.5695 138.668C39.2218 153.662 56.5228 148.116 89.2748 155.287C118.737 161.739 159.259 178.421 203.297 224.993" stroke="white" stroke-opacity="0.2" stroke-miterlimit="10"/>
<path d="M163.377 -117.89C144.344 -64.4905 116.868 -35.1932 94.5063 -18.1347C75.6859 -3.7815 68.1598 -2.61445 53.5533 13.4324C22.9117 47.095 1.57896 106.075 27.4384 136.555C40.7572 152.255 57.7622 148.684 90.4182 157.087C119.168 164.485 158.997 181.507 202.64 227.277" stroke="white" stroke-opacity="0.2" stroke-miterlimit="10"/>
<path d="M156.233 -117.78C140.313 -65.8823 114.559 -36.8582 93.7373 -19.8274C75.9988 -5.31884 69.1122 -2.79072 54.762 14.2242C25.6934 48.6906 5.25348 104.013 29.3064 134.446C42.3015 150.887 58.9848 149.229 91.5606 158.89C119.591 167.205 158.731 184.597 201.978 229.567" stroke="white" stroke-opacity="0.2" stroke-miterlimit="10"/>
<path d="M149.088 -117.671C136.28 -67.2741 112.244 -38.4945 92.9621 -21.5201C76.2926 -6.83734 70.0574 -2.99564 55.9715 15.0201C28.4352 50.222 8.8723 102.04 31.1751 132.34C43.8455 149.556 60.1933 149.75 92.7037 160.697C120.007 169.89 158.466 187.691 201.319 231.854" stroke="white" stroke-opacity="0.2" stroke-miterlimit="10"/>
<path d="M141.944 -117.56C132.25 -68.6606 109.929 -40.0968 92.198 -23.2125C76.5709 -8.32977 70.994 -3.21708 57.1803 15.8063C31.1367 51.6823 12.432 100.139 33.0442 130.225C45.3928 148.25 61.3941 150.233 93.8472 162.495C120.422 172.536 158.202 190.776 200.655 234.135" stroke="white" stroke-opacity="0.2" stroke-miterlimit="10"/>
<path d="M134.8 -117.451C128.219 -70.0564 107.612 -41.6629 91.4289 -24.9053C76.8322 -9.7909 71.9165 -3.47452 58.3899 16.5981C33.7935 53.0938 15.9312 98.3152 34.9121 128.114C46.9311 146.982 62.5889 150.683 94.9905 164.297C120.838 175.153 157.937 193.866 200 236.421" stroke="white" stroke-opacity="0.2" stroke-miterlimit="10"/>
<path d="M127.656 -117.341C124.192 -71.4482 105.306 -43.1854 90.6596 -26.598C77.0795 -11.2184 72.8231 -3.74877 59.5984 17.389C36.4066 54.4598 19.3669 96.5571 36.7808 126.004C48.4554 145.745 63.7836 151.113 96.1326 166.1C121.258 177.74 157.671 196.959 199.34 238.707" stroke="white" stroke-opacity="0.2" stroke-miterlimit="10"/>
<path d="M120.511 -117.227C120.156 -72.8362 103.01 -44.6564 89.8906 -28.2869C77.3192 -12.6023 73.7101 -4.03499 60.8071 18.1837C38.9754 55.789 22.7405 94.8623 38.6497 123.897C49.961 144.542 64.9804 151.508 97.276 167.906C121.682 180.294 157.403 200.044 198.681 240.993" stroke="white" stroke-opacity="0.2" stroke-miterlimit="10"/>
<path d="M113.367 -117.121C116.124 -74.2318 100.737 -46.0838 89.1205 -29.9835C77.5548 -13.9475 74.5694 -4.35367 62.0168 18.9717C41.5007 57.0819 26.0507 93.2122 40.5177 121.783C51.442 143.362 66.1871 151.862 98.4194 169.705C122.116 182.823 157.142 203.134 198.021 243.285" stroke="white" stroke-opacity="0.2" stroke-miterlimit="10"/>
<path d="M106.226 -117.011C112.095 -75.6227 98.4954 -47.4548 88.3542 -31.6763C77.7981 -15.2513 75.4185 -4.68042 63.2282 19.7625C43.987 58.3458 29.3032 91.6036 42.3894 119.672C52.8949 142.207 67.4084 152.189 99.5655 171.507C122.563 185.324 156.879 206.224 197.365 245.566" stroke="white" stroke-opacity="0.2" stroke-miterlimit="10"/>
<path d="M99.0786 -116.901C108.061 -77.0092 96.2861 -48.772 87.5822 -33.3676C78.0517 -16.5021 76.2313 -5.01861 64.435 20.5548C46.4272 59.5934 32.4898 90.033 44.2544 117.562C54.3046 141.079 68.6409 152.483 100.706 173.31C123.017 187.801 156.611 209.314 196.701 247.853" stroke="white" stroke-opacity="0.2" stroke-miterlimit="10"/>
<path d="M91.9347 -116.791C104.03 -78.4059 94.1273 -50.0391 86.8131 -35.0604C78.3378 -17.7059 77.0193 -5.36414 65.6437 21.3456C48.8317 60.8258 35.6228 88.4908 46.1234 115.452C55.6727 139.972 69.8962 152.747 101.848 175.113C123.487 190.258 156.347 212.403 196.043 250.138" stroke="white" stroke-opacity="0.2" stroke-miterlimit="10"/>
<path d="M84.7897 -116.681C99.9981 -79.7978 92.0236 -51.2627 86.0428 -36.7531C78.6693 -18.8641 77.7804 -5.7265 66.8522 22.1375C51.1993 62.0482 38.7002 86.9682 47.9921 113.342C56.99 138.881 71.1739 152.983 102.991 176.915C123.972 192.696 156.081 215.492 195.383 252.425" stroke="white" stroke-opacity="0.2" stroke-miterlimit="10"/>
<path d="M77.6459 -116.572C95.9664 -81.1886 89.9817 -52.4496 85.2738 -38.4459C79.0663 -19.9818 78.513 -6.09085 68.0619 22.9263C53.5345 63.2617 41.7313 85.4576 49.8601 111.23C58.2493 137.811 72.4797 153.189 104.135 178.716C124.474 195.119 155.819 218.582 194.721 254.71" stroke="white" stroke-opacity="0.2" stroke-miterlimit="10"/>
<path d="M70.5019 -116.462C91.9357 -82.5805 88.0059 -53.6128 84.5047 -40.1426C79.5494 -21.0736 79.2178 -6.46311 69.2705 23.7162C55.8369 64.4742 44.7038 83.953 51.729 109.118C59.443 136.75 73.814 153.371 105.281 180.516C124.995 197.524 155.555 221.668 194.068 256.993" stroke="white" stroke-opacity="0.2" stroke-miterlimit="10"/>
<path d="M63.3569 -116.352C87.9038 -83.9673 86.0973 -54.766 83.7354 -41.8313C80.1402 -22.1427 79.8937 -6.83036 70.48 24.511C58.1066 65.6898 47.6347 82.4543 53.5967 107.011C60.5645 135.703 75.176 153.535 106.42 182.323C125.529 199.929 155.286 224.762 193.405 259.282" stroke="white" stroke-opacity="0.2" stroke-miterlimit="10"/>
<path d="M56.2131 -116.237C83.8722 -85.3591 80.6749 -55.7856 82.9654 -43.5191C86.7131 -23.4553 80.5412 -7.19664 71.6888 25.3078C60.3557 66.9122 50.5223 80.9457 55.4657 104.901C61.603 134.655 76.5788 153.677 107.564 184.125C126.08 202.32 155.021 227.851 192.741 261.569" stroke="white" stroke-opacity="0.2" stroke-miterlimit="10"/>
<path d="M49.0692 -116.132C79.8404 -86.7545 79.5167 -56.8287 82.1963 -45.2165C86.8923 -24.8637 81.1619 -7.57257 72.8974 26.094C62.5731 68.1389 53.3672 79.4195 57.3346 102.79C62.5592 133.605 78.0111 153.802 108.709 185.928C126.653 204.708 154.759 230.94 192.088 263.855" stroke="white" stroke-opacity="0.2" stroke-miterlimit="10"/>
<path d="M41.9242 -116.022C75.8096 -88.1464 78.4723 -58.0087 81.4271 -46.9092C86.9417 -26.1902 81.7547 -7.94187 74.102 26.8858C64.7715 69.3722 56.1794 77.8743 59.1975 100.68C63.4153 132.547 79.4741 153.912 109.845 187.73C127.233 207.091 154.489 234.031 191.422 266.141" stroke="white" stroke-opacity="0.2" stroke-miterlimit="10"/>
<path d="M34.7803 -115.912C71.7778 -89.5382 79.0276 -59.6826 80.658 -48.6009C83.8622 -26.7732 82.3229 -8.30516 75.3126 27.6777C66.9512 70.6185 58.9629 76.3023 61.0684 98.5705C64.1825 131.472 80.9846 154.011 110.994 189.535C127.841 209.477 154.226 237.122 190.768 268.428" stroke="white" stroke-opacity="0.2" stroke-miterlimit="10"/>
<path d="M27.6363 -115.803C67.7459 -90.93 77.3467 -61.0625 79.8877 -50.2947C85.1113 -28.1562 82.8653 -8.66654 76.5222 28.4676C69.111 71.8726 61.7156 74.6947 62.9371 96.4591C64.8397 130.373 82.5168 154.102 112.134 191.335C128.46 211.86 153.959 240.21 190.105 270.713" stroke="white" stroke-opacity="0.2" stroke-miterlimit="10"/>
<path d="M20.4914 -115.693C63.7142 -92.3208 75.664 -62.5365 79.1187 -51.9874C86.4318 -29.6658 83.384 -9.02099 77.7328 29.2594C71.2551 73.1415 64.4467 73.0494 64.807 94.3495C65.401 129.243 84.0908 154.186 113.278 193.139C129.092 214.246 153.697 243.299 189.448 273" stroke="white" stroke-opacity="0.2" stroke-miterlimit="10"/>
</g>
<defs>
<linearGradient id="paint0_linear_2_736" x1="659.918" y1="35.7518" x2="673.055" y2="12.6678" gradientUnits="userSpaceOnUse">
<stop stop-color="#9FEF53"/>
<stop offset="1" stop-color="#54F4B2"/>
</linearGradient>
<clipPath id="clip0_2_736">
<rect width="1400" height="200" fill="white"/>
</clipPath>
<clipPath id="clip1_2_736">
<rect width="100" height="29" fill="white" transform="translate(650 10)"/>
</clipPath>
</defs>
</svg>
