<svg width="1400" height="200" viewBox="0 0 1400 200" fill="none" xmlns="http://www.w3.org/2000/svg">
<g clip-path="url(#clip0_2_736)">
<rect width="1400" height="200" rx="20" fill="#151C24"/>
<g clip-path="url(#clip1_2_736)">
<mask id="mask0_2_736" style="mask-type:luminance" maskUnits="userSpaceOnUse" x="650" y="10" width="100" height="29">
<path d="M750 10H650V39H750V10Z" fill="white"/>
</mask>
<g mask="url(#mask0_2_736)">
<path d="M664.5 38.9998C663.518 39.0001 662.539 38.9013 661.578 38.7052C660.645 38.5141 659.733 38.2311 658.856 37.8603C657.994 37.4952 657.169 37.0475 656.393 36.5234C655.623 36.0028 654.904 35.41 654.247 34.7528C653.59 34.0955 652.997 33.3769 652.476 32.6069C651.952 31.831 651.504 31.0062 651.139 30.144C650.769 29.2668 650.485 28.3551 650.294 27.4222C650.098 26.4604 650 25.4813 650 24.4997C650 23.5181 650.098 22.5391 650.295 21.5773C650.486 20.6443 650.769 19.7326 651.14 18.8554C651.505 17.9931 651.952 17.1682 652.477 16.3923C652.997 15.6222 653.59 14.9037 654.247 14.2464C654.905 13.5893 655.623 12.9965 656.393 12.4758C657.169 11.9517 657.994 11.504 658.856 11.1389C659.733 10.7681 660.645 10.4851 661.578 10.2939C662.54 10.0979 663.518 9.99925 664.5 9.99951C665.481 9.99928 666.46 10.098 667.422 10.2941C668.355 10.4853 669.267 10.7683 670.144 11.139C671.006 11.5041 671.831 11.9518 672.607 12.476C673.377 12.9966 674.095 13.5895 674.753 14.2466C675.41 14.9039 676.003 15.6224 676.523 16.3924C677.047 17.1684 677.495 17.9933 677.86 18.8555C678.231 19.7327 678.514 20.6445 678.705 21.5775C678.901 22.5392 679 23.5182 679 24.4997C679 25.4812 678.901 26.4602 678.705 27.4218C678.514 28.3548 678.231 29.2665 677.86 30.1437C677.495 31.0059 677.047 31.8307 676.523 32.6065C676.003 33.3766 675.41 34.0952 674.753 34.7525C674.095 35.4096 673.377 36.0025 672.607 36.523C671.831 37.0472 671.006 37.4949 670.143 37.86C669.266 38.2308 668.355 38.5138 667.422 38.7049C666.46 38.9011 665.481 38.9999 664.5 38.9998ZM664.5 18.9834C663.762 18.982 663.032 19.1295 662.353 19.417C661.697 19.6938 661.102 20.0953 660.599 20.5991C660.095 21.1017 659.694 21.6971 659.417 22.3526C659.13 23.032 658.982 23.7624 658.983 24.5C658.982 25.2376 659.13 25.9679 659.417 26.6472C659.694 27.3027 660.095 27.8981 660.599 28.4007C661.102 28.9045 661.697 29.306 662.353 29.5829C663.032 29.8704 663.762 30.0178 664.5 30.0164C665.238 30.0178 665.968 29.8704 666.647 29.5829C667.303 29.306 667.898 28.9044 668.401 28.4007C668.905 27.8982 669.306 27.3027 669.583 26.6472C669.87 25.9679 670.018 25.2376 670.016 24.5C670.018 23.7624 669.87 23.032 669.583 22.3526C669.306 21.697 668.905 21.1016 668.401 20.5991C667.898 20.0953 667.303 19.6938 666.647 19.417C665.968 19.1294 665.238 18.9821 664.5 18.9834Z" fill="url(#paint0_linear_2_736)"/>
<path d="M687.889 28.2344C686.924 27.335 686.442 26.1881 686.442 24.7934C686.442 23.3988 686.924 22.2616 687.889 21.3818C688.835 20.509 690.082 20.0361 691.369 20.0621C692.112 20.0564 692.846 20.2168 693.519 20.5314C694.165 20.8287 694.728 21.2782 695.162 21.8413L693.265 23.2685C692.822 22.6689 692.19 22.3691 691.369 22.3691C690.706 22.3588 690.063 22.5997 689.57 23.0436C689.321 23.2606 689.124 23.5301 688.992 23.8327C688.86 24.1353 688.797 24.4635 688.808 24.7934C688.8 25.1288 688.863 25.462 688.995 25.7706C689.127 26.0791 689.323 26.356 689.57 26.5823C690.052 27.0477 690.699 27.3042 691.369 27.2959C692.19 27.2959 692.822 26.9897 693.265 26.377L695.181 27.7847C694.75 28.3589 694.182 28.816 693.529 29.1142C692.853 29.4282 692.115 29.5884 691.369 29.5834C690.077 29.608 688.827 29.1234 687.889 28.2344ZM699.756 20.2577V29.3879H697.39V20.2577H699.756ZM697.488 17.7552C697.344 17.6239 697.23 17.4637 697.153 17.2851C697.075 17.1065 697.036 16.9136 697.038 16.7189C697.035 16.5262 697.075 16.335 697.154 16.1592C697.234 15.9835 697.351 15.8275 697.498 15.7023C697.794 15.4324 698.182 15.2856 698.583 15.2918C698.978 15.2833 699.361 15.4308 699.648 15.7023C699.79 15.8304 699.903 15.9875 699.979 16.1629C700.055 16.3383 700.092 16.5279 700.088 16.7189C700.091 16.9114 700.054 17.1023 699.978 17.2792C699.902 17.4561 699.79 17.6149 699.648 17.7454C699.507 17.8825 699.341 17.9902 699.158 18.0623C698.975 18.1345 698.779 18.1696 698.583 18.1657C698.179 18.1755 697.786 18.0284 697.488 17.7552ZM705.034 26.162V29.3879H702.65V20.2577H705.034V22.4082C705.256 21.6262 705.602 21.0397 706.07 20.6487C706.498 20.2735 707.046 20.0651 707.615 20.0621C708.137 20.0474 708.654 20.1616 709.12 20.3945L708.71 22.5451C708.27 22.3639 707.797 22.2772 707.322 22.2909C705.797 22.2909 705.034 23.5813 705.034 26.162ZM711.545 28.2344C710.58 27.335 710.098 26.1881 710.098 24.7934C710.098 23.3988 710.58 22.2616 711.545 21.3818C712.491 20.509 713.738 20.0361 715.025 20.0621C715.768 20.0564 716.502 20.2168 717.175 20.5314C717.82 20.8287 718.384 21.2782 718.817 21.8413L716.921 23.2685C716.478 22.6689 715.846 22.3691 715.025 22.3691C714.362 22.3588 713.719 22.5997 713.226 23.0436C712.977 23.2606 712.78 23.5301 712.648 23.8327C712.516 24.1353 712.453 24.4635 712.464 24.7934C712.455 25.1288 712.519 25.462 712.651 25.7706C712.782 26.0791 712.979 26.356 713.226 26.5823C713.708 27.0477 714.355 27.3042 715.025 27.2959C715.846 27.2959 716.478 26.9897 716.921 26.377L718.837 27.7847C718.406 28.3589 717.838 28.816 717.185 29.1142C716.508 29.4282 715.77 29.5884 715.025 29.5834C713.732 29.608 712.483 29.1234 711.545 28.2344ZM727.048 25.1258V20.2577H729.433V29.3879H727.048V28.0975C726.804 28.5629 726.426 28.9443 725.963 29.1924C725.525 29.4429 725.031 29.5774 724.526 29.5834C723.418 29.5834 722.542 29.2445 721.896 28.5667C721.252 27.889 720.929 26.9179 720.929 25.6537V20.2577H723.333V25.2236C723.333 25.9143 723.503 26.4259 723.842 26.7583C724.003 26.9201 724.195 27.0477 724.407 27.1334C724.618 27.219 724.845 27.261 725.073 27.2568C725.592 27.2724 726.096 27.0868 726.481 26.7388C726.859 26.3933 727.048 25.8557 727.048 25.1258ZM732.327 29.3879V15.2918H734.712V29.3879H732.327ZM746.07 20.2577L740.42 33.8455H737.898L739.99 28.684L736.432 20.2577H738.974L741.242 25.947L743.529 20.2577H746.07ZM747.361 29.1533C747.216 29.0189 747.101 28.8553 747.023 28.6734C746.946 28.4915 746.907 28.2952 746.911 28.0975C746.907 27.8998 746.946 27.7035 747.023 27.5216C747.101 27.3397 747.216 27.1761 747.361 27.0418C747.503 26.9025 747.671 26.7927 747.855 26.7189C748.04 26.645 748.238 26.6086 748.436 26.6117C748.845 26.6035 749.241 26.7542 749.541 27.032C749.69 27.1657 749.808 27.3302 749.888 27.5142C749.967 27.6982 750.005 27.8972 750 28.0975C750.005 28.2978 749.967 28.4969 749.888 28.6809C749.808 28.8649 749.69 29.0294 749.541 29.1631C749.241 29.4408 748.845 29.5915 748.436 29.5834C748.238 29.5865 748.04 29.55 747.855 29.4762C747.671 29.4024 747.503 29.2926 747.361 29.1533Z" fill="white"/>
</g>
</g>
<path d="M544.366 92.2793H549.493C549.329 94.2344 548.782 95.9775 547.853 97.5088C546.923 99.0264 545.617 100.223 543.936 101.098C542.254 101.973 540.21 102.41 537.804 102.41C535.958 102.41 534.297 102.082 532.82 101.426C531.344 100.756 530.079 99.8125 529.026 98.5957C527.974 97.3652 527.167 95.8818 526.606 94.1455C526.06 92.4092 525.786 90.4678 525.786 88.3213V85.8398C525.786 83.6934 526.066 81.752 526.627 80.0156C527.201 78.2793 528.021 76.7959 529.088 75.5654C530.154 74.3213 531.433 73.3711 532.923 72.7148C534.427 72.0586 536.115 71.7305 537.988 71.7305C540.367 71.7305 542.377 72.168 544.018 73.043C545.658 73.918 546.93 75.1279 547.832 76.6729C548.748 78.2178 549.309 79.9883 549.514 81.9844H544.387C544.25 80.6992 543.949 79.5986 543.484 78.6826C543.033 77.7666 542.363 77.0693 541.475 76.5908C540.586 76.0986 539.424 75.8525 537.988 75.8525C536.812 75.8525 535.787 76.0713 534.912 76.5088C534.037 76.9463 533.306 77.5889 532.718 78.4365C532.13 79.2842 531.686 80.3301 531.385 81.5742C531.098 82.8047 530.954 84.2129 530.954 85.7988V88.3213C530.954 89.8252 531.084 91.1924 531.344 92.4229C531.617 93.6396 532.027 94.6855 532.574 95.5605C533.135 96.4355 533.846 97.1123 534.707 97.5908C535.568 98.0693 536.601 98.3086 537.804 98.3086C539.267 98.3086 540.449 98.0762 541.352 97.6113C542.268 97.1465 542.958 96.4697 543.423 95.5811C543.901 94.6787 544.216 93.5781 544.366 92.2793ZM567.027 96.7705V79.8105H571.99V102H567.314L567.027 96.7705ZM567.725 92.1562L569.386 92.1152C569.386 93.6055 569.222 94.9795 568.894 96.2373C568.565 97.4814 568.06 98.5684 567.376 99.498C566.692 100.414 565.817 101.132 564.751 101.651C563.685 102.157 562.406 102.41 560.916 102.41C559.836 102.41 558.845 102.253 557.942 101.938C557.04 101.624 556.261 101.139 555.604 100.482C554.962 99.8262 554.463 98.9717 554.107 97.9189C553.752 96.8662 553.574 95.6084 553.574 94.1455V79.8105H558.517V94.1865C558.517 94.9932 558.612 95.6699 558.804 96.2168C558.995 96.75 559.255 97.1807 559.583 97.5088C559.911 97.8369 560.294 98.0693 560.731 98.2061C561.169 98.3428 561.634 98.4111 562.126 98.4111C563.534 98.4111 564.642 98.1377 565.448 97.5908C566.269 97.0303 566.85 96.2783 567.191 95.335C567.547 94.3916 567.725 93.332 567.725 92.1562ZM589.504 95.9912C589.504 95.499 589.381 95.0547 589.135 94.6582C588.889 94.248 588.417 93.8789 587.72 93.5508C587.036 93.2227 586.024 92.9219 584.685 92.6484C583.509 92.3887 582.429 92.0811 581.444 91.7256C580.474 91.3564 579.64 90.9121 578.942 90.3926C578.245 89.873 577.705 89.2578 577.322 88.5469C576.939 87.8359 576.748 87.0156 576.748 86.0859C576.748 85.1836 576.946 84.3291 577.343 83.5225C577.739 82.7158 578.307 82.0049 579.045 81.3896C579.783 80.7744 580.679 80.2891 581.731 79.9336C582.798 79.5781 583.987 79.4004 585.3 79.4004C587.159 79.4004 588.752 79.7148 590.078 80.3438C591.418 80.959 592.443 81.7998 593.154 82.8662C593.865 83.9189 594.221 85.1084 594.221 86.4346H589.278C589.278 85.8467 589.128 85.2998 588.827 84.7939C588.54 84.2744 588.103 83.8574 587.515 83.543C586.927 83.2148 586.188 83.0508 585.3 83.0508C584.452 83.0508 583.748 83.1875 583.188 83.4609C582.641 83.7207 582.23 84.0625 581.957 84.4863C581.697 84.9102 581.567 85.375 581.567 85.8809C581.567 86.25 581.636 86.585 581.772 86.8857C581.923 87.1729 582.169 87.4395 582.511 87.6855C582.853 87.918 583.317 88.1367 583.905 88.3418C584.507 88.5469 585.259 88.7451 586.161 88.9365C587.856 89.292 589.312 89.75 590.529 90.3105C591.76 90.8574 592.703 91.5684 593.359 92.4434C594.016 93.3047 594.344 94.3984 594.344 95.7246C594.344 96.709 594.132 97.6113 593.708 98.4316C593.298 99.2383 592.696 99.9424 591.903 100.544C591.11 101.132 590.16 101.59 589.053 101.918C587.959 102.246 586.729 102.41 585.361 102.41C583.352 102.41 581.649 102.055 580.255 101.344C578.86 100.619 577.801 99.6963 577.076 98.5752C576.365 97.4404 576.01 96.2646 576.01 95.0479H580.788C580.843 95.9639 581.096 96.6953 581.547 97.2422C582.012 97.7754 582.586 98.165 583.27 98.4111C583.967 98.6436 584.685 98.7598 585.423 98.7598C586.312 98.7598 587.057 98.6436 587.658 98.4111C588.26 98.165 588.718 97.8369 589.032 97.4268C589.347 97.0029 589.504 96.5244 589.504 95.9912ZM608.843 79.8105V83.4199H596.333V79.8105H608.843ZM599.942 74.376H604.885V95.8682C604.885 96.5518 604.98 97.0781 605.172 97.4473C605.377 97.8027 605.657 98.042 606.013 98.165C606.368 98.2881 606.785 98.3496 607.264 98.3496C607.605 98.3496 607.934 98.3291 608.248 98.2881C608.562 98.2471 608.815 98.2061 609.007 98.165L609.027 101.938C608.617 102.062 608.139 102.171 607.592 102.267C607.059 102.362 606.443 102.41 605.746 102.41C604.611 102.41 603.606 102.212 602.731 101.815C601.856 101.405 601.173 100.742 600.681 99.8262C600.188 98.9102 599.942 97.6934 599.942 96.1758V74.376ZM611.222 91.1514V90.6797C611.222 89.0801 611.454 87.5967 611.919 86.2295C612.384 84.8486 613.054 83.6523 613.929 82.6406C614.817 81.6152 615.897 80.8223 617.169 80.2617C618.454 79.6875 619.903 79.4004 621.517 79.4004C623.144 79.4004 624.593 79.6875 625.864 80.2617C627.149 80.8223 628.236 81.6152 629.125 82.6406C630.014 83.6523 630.69 84.8486 631.155 86.2295C631.62 87.5967 631.853 89.0801 631.853 90.6797V91.1514C631.853 92.751 631.62 94.2344 631.155 95.6016C630.69 96.9688 630.014 98.165 629.125 99.1904C628.236 100.202 627.156 100.995 625.885 101.569C624.613 102.13 623.171 102.41 621.558 102.41C619.931 102.41 618.475 102.13 617.189 101.569C615.918 100.995 614.838 100.202 613.949 99.1904C613.061 98.165 612.384 96.9688 611.919 95.6016C611.454 94.2344 611.222 92.751 611.222 91.1514ZM616.164 90.6797V91.1514C616.164 92.1494 616.267 93.0928 616.472 93.9814C616.677 94.8701 616.998 95.6494 617.436 96.3193C617.873 96.9893 618.434 97.5156 619.117 97.8984C619.801 98.2812 620.614 98.4727 621.558 98.4727C622.474 98.4727 623.267 98.2812 623.937 97.8984C624.62 97.5156 625.181 96.9893 625.618 96.3193C626.056 95.6494 626.377 94.8701 626.582 93.9814C626.801 93.0928 626.91 92.1494 626.91 91.1514V90.6797C626.91 89.6953 626.801 88.7656 626.582 87.8906C626.377 87.002 626.049 86.2158 625.598 85.5322C625.16 84.8486 624.6 84.3154 623.916 83.9326C623.246 83.5361 622.446 83.3379 621.517 83.3379C620.587 83.3379 619.78 83.5361 619.097 83.9326C618.427 84.3154 617.873 84.8486 617.436 85.5322C616.998 86.2158 616.677 87.002 616.472 87.8906C616.267 88.7656 616.164 89.6953 616.164 90.6797ZM640.938 84.3223V102H635.995V79.8105H640.65L640.938 84.3223ZM640.138 90.085L638.456 90.0645C638.456 88.5332 638.647 87.1182 639.03 85.8193C639.413 84.5205 639.974 83.3926 640.712 82.4355C641.45 81.4648 642.366 80.7197 643.46 80.2002C644.567 79.667 645.846 79.4004 647.295 79.4004C648.307 79.4004 649.229 79.5508 650.063 79.8516C650.911 80.1387 651.643 80.5967 652.258 81.2256C652.887 81.8545 653.365 82.6611 653.693 83.6455C654.035 84.6299 654.206 85.8193 654.206 87.2139V102H649.264V87.6445C649.264 86.5645 649.1 85.7168 648.771 85.1016C648.457 84.4863 647.999 84.0488 647.397 83.7891C646.81 83.5156 646.105 83.3789 645.285 83.3789C644.355 83.3789 643.562 83.5566 642.906 83.9121C642.264 84.2676 641.737 84.7529 641.327 85.3682C640.917 85.9834 640.616 86.6943 640.425 87.501C640.233 88.3076 640.138 89.1689 640.138 90.085ZM653.898 88.7725L651.581 89.2852C651.581 87.9453 651.766 86.6807 652.135 85.4912C652.518 84.2881 653.071 83.2354 653.796 82.333C654.534 81.417 655.443 80.6992 656.523 80.1797C657.604 79.6602 658.841 79.4004 660.235 79.4004C661.37 79.4004 662.382 79.5576 663.271 79.8721C664.173 80.1729 664.938 80.6514 665.567 81.3076C666.196 81.9639 666.675 82.8184 667.003 83.8711C667.331 84.9102 667.495 86.168 667.495 87.6445V102H662.532V87.624C662.532 86.5029 662.368 85.6348 662.04 85.0195C661.726 84.4043 661.274 83.9805 660.687 83.748C660.099 83.502 659.395 83.3789 658.574 83.3789C657.809 83.3789 657.132 83.5225 656.544 83.8096C655.97 84.083 655.484 84.4727 655.088 84.9785C654.691 85.4707 654.391 86.0381 654.186 86.6807C653.994 87.3232 653.898 88.0205 653.898 88.7725ZM682.363 102.41C680.723 102.41 679.239 102.144 677.913 101.61C676.601 101.063 675.479 100.305 674.55 99.334C673.634 98.3633 672.93 97.2217 672.438 95.9092C671.945 94.5967 671.699 93.1816 671.699 91.6641V90.8438C671.699 89.1074 671.952 87.5352 672.458 86.127C672.964 84.7188 673.668 83.5156 674.57 82.5176C675.473 81.5059 676.539 80.7334 677.77 80.2002C679 79.667 680.333 79.4004 681.769 79.4004C683.354 79.4004 684.742 79.667 685.932 80.2002C687.121 80.7334 688.105 81.4854 688.885 82.4561C689.678 83.4131 690.266 84.5547 690.648 85.8809C691.045 87.207 691.243 88.6699 691.243 90.2695V92.3818H674.099V88.834H686.362V88.4443C686.335 87.5557 686.157 86.7217 685.829 85.9424C685.515 85.1631 685.029 84.5342 684.373 84.0557C683.717 83.5771 682.842 83.3379 681.748 83.3379C680.928 83.3379 680.196 83.5156 679.554 83.8711C678.925 84.2129 678.398 84.7119 677.975 85.3682C677.551 86.0244 677.223 86.8174 676.99 87.7471C676.771 88.6631 676.662 89.6953 676.662 90.8438V91.6641C676.662 92.6348 676.792 93.5371 677.052 94.3711C677.325 95.1914 677.722 95.9092 678.241 96.5244C678.761 97.1396 679.39 97.625 680.128 97.9805C680.866 98.3223 681.707 98.4932 682.65 98.4932C683.84 98.4932 684.899 98.2539 685.829 97.7754C686.759 97.2969 687.565 96.6201 688.249 95.7451L690.854 98.2676C690.375 98.9648 689.753 99.6348 688.987 100.277C688.222 100.906 687.285 101.419 686.178 101.815C685.084 102.212 683.812 102.41 682.363 102.41ZM700.062 84.0352V102H695.119V79.8105H699.836L700.062 84.0352ZM706.85 79.667L706.809 84.2607C706.508 84.2061 706.18 84.165 705.824 84.1377C705.482 84.1104 705.141 84.0967 704.799 84.0967C703.951 84.0967 703.206 84.2197 702.563 84.4658C701.921 84.6982 701.381 85.04 700.943 85.4912C700.52 85.9287 700.191 86.4619 699.959 87.0908C699.727 87.7197 699.59 88.4238 699.549 89.2031L698.421 89.2852C698.421 87.8906 698.558 86.5986 698.831 85.4092C699.104 84.2197 699.515 83.1738 700.062 82.2715C700.622 81.3691 701.319 80.665 702.153 80.1592C703.001 79.6533 703.979 79.4004 705.086 79.4004C705.387 79.4004 705.708 79.4277 706.05 79.4824C706.405 79.5371 706.672 79.5986 706.85 79.667ZM736.606 94.3096C736.606 93.6943 736.511 93.1475 736.319 92.6689C736.142 92.1904 735.82 91.7529 735.355 91.3564C734.891 90.96 734.234 90.5771 733.387 90.208C732.553 89.8252 731.486 89.4355 730.188 89.0391C728.766 88.6016 727.453 88.1162 726.25 87.583C725.061 87.0361 724.021 86.4072 723.133 85.6963C722.244 84.9717 721.554 84.1445 721.062 83.2148C720.569 82.2715 720.323 81.1846 720.323 79.9541C720.323 78.7373 720.576 77.6299 721.082 76.6318C721.602 75.6338 722.333 74.7725 723.276 74.0479C724.233 73.3096 725.361 72.7422 726.66 72.3457C727.959 71.9355 729.395 71.7305 730.967 71.7305C733.182 71.7305 735.089 72.1406 736.688 72.9609C738.302 73.7812 739.539 74.8818 740.4 76.2627C741.275 77.6436 741.713 79.168 741.713 80.8359H736.606C736.606 79.8516 736.395 78.9834 735.971 78.2314C735.561 77.4658 734.932 76.8643 734.084 76.4268C733.25 75.9893 732.19 75.7705 730.905 75.7705C729.688 75.7705 728.677 75.9551 727.87 76.3242C727.063 76.6934 726.462 77.1924 726.065 77.8213C725.669 78.4502 725.471 79.1611 725.471 79.9541C725.471 80.5146 725.601 81.0273 725.86 81.4922C726.12 81.9434 726.517 82.3672 727.05 82.7637C727.583 83.1465 728.253 83.5088 729.06 83.8506C729.866 84.1924 730.816 84.5205 731.91 84.835C733.564 85.3271 735.007 85.874 736.237 86.4756C737.468 87.0635 738.493 87.7334 739.313 88.4854C740.134 89.2373 740.749 90.0918 741.159 91.0488C741.569 91.9922 741.774 93.0654 741.774 94.2686C741.774 95.5264 741.521 96.6611 741.016 97.6729C740.51 98.6709 739.785 99.5254 738.842 100.236C737.912 100.934 736.791 101.474 735.479 101.856C734.18 102.226 732.73 102.41 731.131 102.41C729.695 102.41 728.28 102.219 726.886 101.836C725.505 101.453 724.247 100.872 723.112 100.093C721.978 99.2998 721.075 98.3154 720.405 97.1396C719.735 95.9502 719.4 94.5625 719.4 92.9766H724.548C724.548 93.9473 724.712 94.7744 725.04 95.458C725.382 96.1416 725.854 96.7021 726.455 97.1396C727.057 97.5635 727.754 97.8779 728.547 98.083C729.354 98.2881 730.215 98.3906 731.131 98.3906C732.334 98.3906 733.339 98.2197 734.146 97.8779C734.966 97.5361 735.581 97.0576 735.991 96.4424C736.401 95.8271 736.606 95.1162 736.606 94.3096ZM759.186 96.7705V79.8105H764.148V102H759.473L759.186 96.7705ZM759.883 92.1562L761.544 92.1152C761.544 93.6055 761.38 94.9795 761.052 96.2373C760.724 97.4814 760.218 98.5684 759.534 99.498C758.851 100.414 757.976 101.132 756.909 101.651C755.843 102.157 754.564 102.41 753.074 102.41C751.994 102.41 751.003 102.253 750.101 101.938C749.198 101.624 748.419 101.139 747.763 100.482C747.12 99.8262 746.621 98.9717 746.266 97.9189C745.91 96.8662 745.732 95.6084 745.732 94.1455V79.8105H750.675V94.1865C750.675 94.9932 750.771 95.6699 750.962 96.2168C751.153 96.75 751.413 97.1807 751.741 97.5088C752.069 97.8369 752.452 98.0693 752.89 98.2061C753.327 98.3428 753.792 98.4111 754.284 98.4111C755.692 98.4111 756.8 98.1377 757.606 97.5908C758.427 97.0303 759.008 96.2783 759.35 95.335C759.705 94.3916 759.883 93.332 759.883 92.1562ZM778.278 98.4727C779.085 98.4727 779.81 98.3154 780.452 98.001C781.108 97.6729 781.635 97.2217 782.031 96.6475C782.441 96.0732 782.667 95.4102 782.708 94.6582H787.363C787.336 96.0938 786.912 97.3994 786.092 98.5752C785.271 99.751 784.185 100.688 782.831 101.385C781.478 102.068 779.98 102.41 778.34 102.41C776.645 102.41 775.168 102.123 773.91 101.549C772.652 100.961 771.606 100.154 770.772 99.1289C769.938 98.1035 769.31 96.9209 768.886 95.5811C768.476 94.2412 768.271 92.8057 768.271 91.2744V90.5566C768.271 89.0254 768.476 87.5898 768.886 86.25C769.31 84.8965 769.938 83.707 770.772 82.6816C771.606 81.6562 772.652 80.8564 773.91 80.2822C775.168 79.6943 776.638 79.4004 778.319 79.4004C780.097 79.4004 781.655 79.7559 782.995 80.4668C784.335 81.1641 785.388 82.1416 786.153 83.3994C786.933 84.6436 787.336 86.0928 787.363 87.7471H782.708C782.667 86.9268 782.462 86.1885 782.093 85.5322C781.737 84.8623 781.231 84.3291 780.575 83.9326C779.933 83.5361 779.16 83.3379 778.258 83.3379C777.26 83.3379 776.433 83.543 775.776 83.9531C775.12 84.3496 774.607 84.8965 774.238 85.5938C773.869 86.2773 773.603 87.0498 773.438 87.9111C773.288 88.7588 773.213 89.6406 773.213 90.5566V91.2744C773.213 92.1904 773.288 93.0791 773.438 93.9404C773.589 94.8018 773.849 95.5742 774.218 96.2578C774.601 96.9277 775.12 97.4678 775.776 97.8779C776.433 98.2744 777.267 98.4727 778.278 98.4727ZM800.222 98.4727C801.028 98.4727 801.753 98.3154 802.396 98.001C803.052 97.6729 803.578 97.2217 803.975 96.6475C804.385 96.0732 804.61 95.4102 804.651 94.6582H809.307C809.279 96.0938 808.855 97.3994 808.035 98.5752C807.215 99.751 806.128 100.688 804.774 101.385C803.421 102.068 801.924 102.41 800.283 102.41C798.588 102.41 797.111 102.123 795.854 101.549C794.596 100.961 793.55 100.154 792.716 99.1289C791.882 98.1035 791.253 96.9209 790.829 95.5811C790.419 94.2412 790.214 92.8057 790.214 91.2744V90.5566C790.214 89.0254 790.419 87.5898 790.829 86.25C791.253 84.8965 791.882 83.707 792.716 82.6816C793.55 81.6562 794.596 80.8564 795.854 80.2822C797.111 79.6943 798.581 79.4004 800.263 79.4004C802.04 79.4004 803.599 79.7559 804.938 80.4668C806.278 81.1641 807.331 82.1416 808.097 83.3994C808.876 84.6436 809.279 86.0928 809.307 87.7471H804.651C804.61 86.9268 804.405 86.1885 804.036 85.5322C803.681 84.8623 803.175 84.3291 802.519 83.9326C801.876 83.5361 801.104 83.3379 800.201 83.3379C799.203 83.3379 798.376 83.543 797.72 83.9531C797.063 84.3496 796.551 84.8965 796.182 85.5938C795.812 86.2773 795.546 87.0498 795.382 87.9111C795.231 88.7588 795.156 89.6406 795.156 90.5566V91.2744C795.156 92.1904 795.231 93.0791 795.382 93.9404C795.532 94.8018 795.792 95.5742 796.161 96.2578C796.544 96.9277 797.063 97.4678 797.72 97.8779C798.376 98.2744 799.21 98.4727 800.222 98.4727ZM822.883 102.41C821.242 102.41 819.759 102.144 818.433 101.61C817.12 101.063 815.999 100.305 815.069 99.334C814.153 98.3633 813.449 97.2217 812.957 95.9092C812.465 94.5967 812.219 93.1816 812.219 91.6641V90.8438C812.219 89.1074 812.472 87.5352 812.978 86.127C813.483 84.7188 814.188 83.5156 815.09 82.5176C815.992 81.5059 817.059 80.7334 818.289 80.2002C819.52 79.667 820.853 79.4004 822.288 79.4004C823.874 79.4004 825.262 79.667 826.451 80.2002C827.641 80.7334 828.625 81.4854 829.404 82.4561C830.197 83.4131 830.785 84.5547 831.168 85.8809C831.564 87.207 831.763 88.6699 831.763 90.2695V92.3818H814.618V88.834H826.882V88.4443C826.854 87.5557 826.677 86.7217 826.349 85.9424C826.034 85.1631 825.549 84.5342 824.893 84.0557C824.236 83.5771 823.361 83.3379 822.268 83.3379C821.447 83.3379 820.716 83.5156 820.073 83.8711C819.444 84.2129 818.918 84.7119 818.494 85.3682C818.07 86.0244 817.742 86.8174 817.51 87.7471C817.291 88.6631 817.182 89.6953 817.182 90.8438V91.6641C817.182 92.6348 817.312 93.5371 817.571 94.3711C817.845 95.1914 818.241 95.9092 818.761 96.5244C819.28 97.1396 819.909 97.625 820.647 97.9805C821.386 98.3223 822.227 98.4932 823.17 98.4932C824.359 98.4932 825.419 98.2539 826.349 97.7754C827.278 97.2969 828.085 96.6201 828.769 95.7451L831.373 98.2676C830.895 98.9648 830.272 99.6348 829.507 100.277C828.741 100.906 827.805 101.419 826.697 101.815C825.604 102.212 824.332 102.41 822.883 102.41ZM848.066 95.9912C848.066 95.499 847.943 95.0547 847.697 94.6582C847.451 94.248 846.979 93.8789 846.282 93.5508C845.599 93.2227 844.587 92.9219 843.247 92.6484C842.071 92.3887 840.991 92.0811 840.007 91.7256C839.036 91.3564 838.202 90.9121 837.505 90.3926C836.808 89.873 836.268 89.2578 835.885 88.5469C835.502 87.8359 835.311 87.0156 835.311 86.0859C835.311 85.1836 835.509 84.3291 835.905 83.5225C836.302 82.7158 836.869 82.0049 837.607 81.3896C838.346 80.7744 839.241 80.2891 840.294 79.9336C841.36 79.5781 842.55 79.4004 843.862 79.4004C845.722 79.4004 847.314 79.7148 848.641 80.3438C849.98 80.959 851.006 81.7998 851.717 82.8662C852.428 83.9189 852.783 85.1084 852.783 86.4346H847.841C847.841 85.8467 847.69 85.2998 847.39 84.7939C847.103 84.2744 846.665 83.8574 846.077 83.543C845.489 83.2148 844.751 83.0508 843.862 83.0508C843.015 83.0508 842.311 83.1875 841.75 83.4609C841.203 83.7207 840.793 84.0625 840.52 84.4863C840.26 84.9102 840.13 85.375 840.13 85.8809C840.13 86.25 840.198 86.585 840.335 86.8857C840.485 87.1729 840.731 87.4395 841.073 87.6855C841.415 87.918 841.88 88.1367 842.468 88.3418C843.069 88.5469 843.821 88.7451 844.724 88.9365C846.419 89.292 847.875 89.75 849.092 90.3105C850.322 90.8574 851.266 91.5684 851.922 92.4434C852.578 93.3047 852.906 94.3984 852.906 95.7246C852.906 96.709 852.694 97.6113 852.271 98.4316C851.86 99.2383 851.259 99.9424 850.466 100.544C849.673 101.132 848.723 101.59 847.615 101.918C846.521 102.246 845.291 102.41 843.924 102.41C841.914 102.41 840.212 102.055 838.817 101.344C837.423 100.619 836.363 99.6963 835.639 98.5752C834.928 97.4404 834.572 96.2646 834.572 95.0479H839.351C839.405 95.9639 839.658 96.6953 840.109 97.2422C840.574 97.7754 841.148 98.165 841.832 98.4111C842.529 98.6436 843.247 98.7598 843.985 98.7598C844.874 98.7598 845.619 98.6436 846.221 98.4111C846.822 98.165 847.28 97.8369 847.595 97.4268C847.909 97.0029 848.066 96.5244 848.066 95.9912ZM869.682 95.9912C869.682 95.499 869.559 95.0547 869.312 94.6582C869.066 94.248 868.595 93.8789 867.897 93.5508C867.214 93.2227 866.202 92.9219 864.862 92.6484C863.687 92.3887 862.606 92.0811 861.622 91.7256C860.651 91.3564 859.817 90.9121 859.12 90.3926C858.423 89.873 857.883 89.2578 857.5 88.5469C857.117 87.8359 856.926 87.0156 856.926 86.0859C856.926 85.1836 857.124 84.3291 857.521 83.5225C857.917 82.7158 858.484 82.0049 859.223 81.3896C859.961 80.7744 860.856 80.2891 861.909 79.9336C862.976 79.5781 864.165 79.4004 865.478 79.4004C867.337 79.4004 868.93 79.7148 870.256 80.3438C871.596 80.959 872.621 81.7998 873.332 82.8662C874.043 83.9189 874.398 85.1084 874.398 86.4346H869.456C869.456 85.8467 869.306 85.2998 869.005 84.7939C868.718 84.2744 868.28 83.8574 867.692 83.543C867.104 83.2148 866.366 83.0508 865.478 83.0508C864.63 83.0508 863.926 83.1875 863.365 83.4609C862.818 83.7207 862.408 84.0625 862.135 84.4863C861.875 84.9102 861.745 85.375 861.745 85.8809C861.745 86.25 861.813 86.585 861.95 86.8857C862.101 87.1729 862.347 87.4395 862.688 87.6855C863.03 87.918 863.495 88.1367 864.083 88.3418C864.685 88.5469 865.437 88.7451 866.339 88.9365C868.034 89.292 869.49 89.75 870.707 90.3105C871.938 90.8574 872.881 91.5684 873.537 92.4434C874.193 93.3047 874.521 94.3984 874.521 95.7246C874.521 96.709 874.31 97.6113 873.886 98.4316C873.476 99.2383 872.874 99.9424 872.081 100.544C871.288 101.132 870.338 101.59 869.23 101.918C868.137 102.246 866.906 102.41 865.539 102.41C863.529 102.41 861.827 102.055 860.433 101.344C859.038 100.619 857.979 99.6963 857.254 98.5752C856.543 97.4404 856.188 96.2646 856.188 95.0479H860.966C861.021 95.9639 861.273 96.6953 861.725 97.2422C862.189 97.7754 862.764 98.165 863.447 98.4111C864.145 98.6436 864.862 98.7598 865.601 98.7598C866.489 98.7598 867.234 98.6436 867.836 98.4111C868.438 98.165 868.896 97.8369 869.21 97.4268C869.524 97.0029 869.682 96.5244 869.682 95.9912ZM610.094 151H603.716L603.757 146.919H610.094C611.939 146.919 613.484 146.516 614.729 145.709C615.986 144.902 616.93 143.747 617.559 142.243C618.201 140.739 618.522 138.948 618.522 136.87V135.25C618.522 133.637 618.338 132.208 617.969 130.964C617.613 129.72 617.08 128.674 616.369 127.826C615.672 126.979 614.811 126.336 613.785 125.898C612.773 125.461 611.604 125.242 610.278 125.242H603.593V121.141H610.278C612.261 121.141 614.072 121.476 615.713 122.146C617.354 122.802 618.769 123.752 619.958 124.996C621.161 126.24 622.084 127.73 622.727 129.467C623.369 131.203 623.69 133.145 623.69 135.291V136.87C623.69 139.017 623.369 140.958 622.727 142.694C622.084 144.431 621.161 145.921 619.958 147.165C618.755 148.396 617.319 149.346 615.651 150.016C613.997 150.672 612.145 151 610.094 151ZM606.566 121.141V151H601.419V121.141H606.566ZM640.876 146.55V135.968C640.876 135.175 640.732 134.491 640.445 133.917C640.158 133.343 639.721 132.898 639.133 132.584C638.559 132.27 637.834 132.112 636.959 132.112C636.152 132.112 635.455 132.249 634.867 132.522C634.279 132.796 633.821 133.165 633.493 133.63C633.165 134.095 633.001 134.621 633.001 135.209H628.079C628.079 134.334 628.291 133.486 628.715 132.666C629.139 131.846 629.754 131.114 630.561 130.472C631.367 129.829 632.331 129.323 633.452 128.954C634.573 128.585 635.831 128.4 637.226 128.4C638.894 128.4 640.37 128.681 641.655 129.241C642.954 129.802 643.973 130.649 644.711 131.784C645.463 132.905 645.839 134.313 645.839 136.009V145.873C645.839 146.885 645.907 147.794 646.044 148.601C646.194 149.394 646.406 150.084 646.68 150.672V151H641.614C641.382 150.467 641.197 149.79 641.061 148.97C640.938 148.136 640.876 147.329 640.876 146.55ZM641.594 137.506L641.635 140.562H638.087C637.171 140.562 636.364 140.65 635.667 140.828C634.97 140.992 634.389 141.238 633.924 141.566C633.459 141.895 633.11 142.291 632.878 142.756C632.646 143.221 632.529 143.747 632.529 144.335C632.529 144.923 632.666 145.463 632.939 145.955C633.213 146.434 633.609 146.81 634.129 147.083C634.662 147.356 635.305 147.493 636.057 147.493C637.068 147.493 637.95 147.288 638.702 146.878C639.468 146.454 640.069 145.941 640.507 145.34C640.944 144.725 641.177 144.144 641.204 143.597L642.804 145.791C642.64 146.352 642.359 146.953 641.963 147.596C641.566 148.238 641.047 148.854 640.404 149.441C639.775 150.016 639.017 150.487 638.128 150.856C637.253 151.226 636.241 151.41 635.093 151.41C633.644 151.41 632.352 151.123 631.217 150.549C630.082 149.961 629.193 149.175 628.551 148.19C627.908 147.192 627.587 146.064 627.587 144.807C627.587 143.631 627.806 142.592 628.243 141.689C628.694 140.773 629.351 140.008 630.212 139.393C631.087 138.777 632.153 138.312 633.411 137.998C634.669 137.67 636.104 137.506 637.718 137.506H641.594ZM663.455 144.991C663.455 144.499 663.332 144.055 663.086 143.658C662.84 143.248 662.368 142.879 661.671 142.551C660.987 142.223 659.976 141.922 658.636 141.648C657.46 141.389 656.38 141.081 655.396 140.726C654.425 140.356 653.591 139.912 652.894 139.393C652.196 138.873 651.656 138.258 651.273 137.547C650.891 136.836 650.699 136.016 650.699 135.086C650.699 134.184 650.897 133.329 651.294 132.522C651.69 131.716 652.258 131.005 652.996 130.39C653.734 129.774 654.63 129.289 655.683 128.934C656.749 128.578 657.938 128.4 659.251 128.4C661.11 128.4 662.703 128.715 664.029 129.344C665.369 129.959 666.395 130.8 667.105 131.866C667.816 132.919 668.172 134.108 668.172 135.435H663.229C663.229 134.847 663.079 134.3 662.778 133.794C662.491 133.274 662.054 132.857 661.466 132.543C660.878 132.215 660.14 132.051 659.251 132.051C658.403 132.051 657.699 132.188 657.139 132.461C656.592 132.721 656.182 133.062 655.908 133.486C655.648 133.91 655.519 134.375 655.519 134.881C655.519 135.25 655.587 135.585 655.724 135.886C655.874 136.173 656.12 136.439 656.462 136.686C656.804 136.918 657.269 137.137 657.856 137.342C658.458 137.547 659.21 137.745 660.112 137.937C661.808 138.292 663.264 138.75 664.48 139.311C665.711 139.857 666.654 140.568 667.311 141.443C667.967 142.305 668.295 143.398 668.295 144.725C668.295 145.709 668.083 146.611 667.659 147.432C667.249 148.238 666.647 148.942 665.854 149.544C665.062 150.132 664.111 150.59 663.004 150.918C661.91 151.246 660.68 151.41 659.312 151.41C657.303 151.41 655.601 151.055 654.206 150.344C652.812 149.619 651.752 148.696 651.027 147.575C650.316 146.44 649.961 145.265 649.961 144.048H654.739C654.794 144.964 655.047 145.695 655.498 146.242C655.963 146.775 656.537 147.165 657.221 147.411C657.918 147.644 658.636 147.76 659.374 147.76C660.263 147.76 661.008 147.644 661.609 147.411C662.211 147.165 662.669 146.837 662.983 146.427C663.298 146.003 663.455 145.524 663.455 144.991ZM677.503 119.5V151H672.581V119.5H677.503ZM676.642 139.085L675.042 139.064C675.056 137.533 675.268 136.118 675.678 134.819C676.102 133.521 676.689 132.393 677.441 131.436C678.207 130.465 679.123 129.72 680.189 129.2C681.256 128.667 682.438 128.4 683.737 128.4C684.831 128.4 685.815 128.551 686.69 128.852C687.579 129.152 688.345 129.638 688.987 130.308C689.63 130.964 690.115 131.825 690.443 132.892C690.785 133.944 690.956 135.229 690.956 136.747V151H685.993V136.706C685.993 135.64 685.836 134.792 685.521 134.163C685.221 133.534 684.776 133.083 684.188 132.81C683.601 132.522 682.883 132.379 682.035 132.379C681.146 132.379 680.36 132.557 679.677 132.912C679.007 133.268 678.446 133.753 677.995 134.368C677.544 134.983 677.202 135.694 676.97 136.501C676.751 137.308 676.642 138.169 676.642 139.085ZM695.98 119.5H700.923V146.263L700.451 151H695.98V119.5ZM715.401 139.7V140.131C715.401 141.771 715.217 143.282 714.848 144.663C714.492 146.03 713.945 147.22 713.207 148.231C712.482 149.243 711.58 150.029 710.5 150.59C709.434 151.137 708.196 151.41 706.788 151.41C705.407 151.41 704.204 151.15 703.179 150.631C702.153 150.111 701.292 149.373 700.595 148.416C699.911 147.459 699.357 146.317 698.934 144.991C698.51 143.665 698.209 142.202 698.031 140.603V139.229C698.209 137.615 698.51 136.152 698.934 134.84C699.357 133.514 699.911 132.372 700.595 131.415C701.292 130.444 702.146 129.699 703.158 129.18C704.184 128.66 705.38 128.4 706.747 128.4C708.169 128.4 709.42 128.674 710.5 129.221C711.594 129.768 712.503 130.547 713.228 131.559C713.952 132.557 714.492 133.746 714.848 135.127C715.217 136.508 715.401 138.032 715.401 139.7ZM710.459 140.131V139.7C710.459 138.702 710.377 137.766 710.213 136.891C710.049 136.002 709.775 135.223 709.393 134.553C709.023 133.883 708.518 133.356 707.875 132.974C707.246 132.577 706.46 132.379 705.517 132.379C704.642 132.379 703.89 132.529 703.261 132.83C702.632 133.131 702.105 133.541 701.682 134.061C701.258 134.58 700.923 135.182 700.677 135.865C700.444 136.549 700.287 137.287 700.205 138.08V141.792C700.328 142.817 700.588 143.761 700.984 144.622C701.395 145.47 701.969 146.153 702.707 146.673C703.445 147.179 704.396 147.432 705.558 147.432C706.474 147.432 707.246 147.247 707.875 146.878C708.504 146.509 709.003 145.996 709.372 145.34C709.755 144.67 710.028 143.891 710.192 143.002C710.37 142.113 710.459 141.156 710.459 140.131ZM718.642 140.151V139.68C718.642 138.08 718.874 136.597 719.339 135.229C719.804 133.849 720.474 132.652 721.349 131.641C722.237 130.615 723.317 129.822 724.589 129.262C725.874 128.688 727.323 128.4 728.937 128.4C730.563 128.4 732.013 128.688 733.284 129.262C734.569 129.822 735.656 130.615 736.545 131.641C737.434 132.652 738.11 133.849 738.575 135.229C739.04 136.597 739.272 138.08 739.272 139.68V140.151C739.272 141.751 739.04 143.234 738.575 144.602C738.11 145.969 737.434 147.165 736.545 148.19C735.656 149.202 734.576 149.995 733.305 150.569C732.033 151.13 730.591 151.41 728.978 151.41C727.351 151.41 725.895 151.13 724.609 150.569C723.338 149.995 722.258 149.202 721.369 148.19C720.48 147.165 719.804 145.969 719.339 144.602C718.874 143.234 718.642 141.751 718.642 140.151ZM723.584 139.68V140.151C723.584 141.149 723.687 142.093 723.892 142.981C724.097 143.87 724.418 144.649 724.855 145.319C725.293 145.989 725.854 146.516 726.537 146.898C727.221 147.281 728.034 147.473 728.978 147.473C729.894 147.473 730.687 147.281 731.356 146.898C732.04 146.516 732.601 145.989 733.038 145.319C733.476 144.649 733.797 143.87 734.002 142.981C734.221 142.093 734.33 141.149 734.33 140.151V139.68C734.33 138.695 734.221 137.766 734.002 136.891C733.797 136.002 733.469 135.216 733.018 134.532C732.58 133.849 732.02 133.315 731.336 132.933C730.666 132.536 729.866 132.338 728.937 132.338C728.007 132.338 727.2 132.536 726.517 132.933C725.847 133.315 725.293 133.849 724.855 134.532C724.418 135.216 724.097 136.002 723.892 136.891C723.687 137.766 723.584 138.695 723.584 139.68ZM755.925 146.55V135.968C755.925 135.175 755.781 134.491 755.494 133.917C755.207 133.343 754.77 132.898 754.182 132.584C753.607 132.27 752.883 132.112 752.008 132.112C751.201 132.112 750.504 132.249 749.916 132.522C749.328 132.796 748.87 133.165 748.542 133.63C748.214 134.095 748.05 134.621 748.05 135.209H743.128C743.128 134.334 743.34 133.486 743.764 132.666C744.188 131.846 744.803 131.114 745.609 130.472C746.416 129.829 747.38 129.323 748.501 128.954C749.622 128.585 750.88 128.4 752.274 128.4C753.942 128.4 755.419 128.681 756.704 129.241C758.003 129.802 759.021 130.649 759.76 131.784C760.512 132.905 760.888 134.313 760.888 136.009V145.873C760.888 146.885 760.956 147.794 761.093 148.601C761.243 149.394 761.455 150.084 761.729 150.672V151H756.663C756.431 150.467 756.246 149.79 756.109 148.97C755.986 148.136 755.925 147.329 755.925 146.55ZM756.643 137.506L756.684 140.562H753.136C752.22 140.562 751.413 140.65 750.716 140.828C750.019 140.992 749.438 141.238 748.973 141.566C748.508 141.895 748.159 142.291 747.927 142.756C747.694 143.221 747.578 143.747 747.578 144.335C747.578 144.923 747.715 145.463 747.988 145.955C748.262 146.434 748.658 146.81 749.178 147.083C749.711 147.356 750.354 147.493 751.105 147.493C752.117 147.493 752.999 147.288 753.751 146.878C754.517 146.454 755.118 145.941 755.556 145.34C755.993 144.725 756.226 144.144 756.253 143.597L757.853 145.791C757.688 146.352 757.408 146.953 757.012 147.596C756.615 148.238 756.096 148.854 755.453 149.441C754.824 150.016 754.065 150.487 753.177 150.856C752.302 151.226 751.29 151.41 750.142 151.41C748.692 151.41 747.4 151.123 746.266 150.549C745.131 149.961 744.242 149.175 743.6 148.19C742.957 147.192 742.636 146.064 742.636 144.807C742.636 143.631 742.854 142.592 743.292 141.689C743.743 140.773 744.399 140.008 745.261 139.393C746.136 138.777 747.202 138.312 748.46 137.998C749.718 137.67 751.153 137.506 752.767 137.506H756.643ZM771.019 133.035V151H766.076V128.811H770.793L771.019 133.035ZM777.807 128.667L777.766 133.261C777.465 133.206 777.137 133.165 776.781 133.138C776.439 133.11 776.098 133.097 775.756 133.097C774.908 133.097 774.163 133.22 773.521 133.466C772.878 133.698 772.338 134.04 771.9 134.491C771.477 134.929 771.148 135.462 770.916 136.091C770.684 136.72 770.547 137.424 770.506 138.203L769.378 138.285C769.378 136.891 769.515 135.599 769.788 134.409C770.062 133.22 770.472 132.174 771.019 131.271C771.579 130.369 772.276 129.665 773.11 129.159C773.958 128.653 774.936 128.4 776.043 128.4C776.344 128.4 776.665 128.428 777.007 128.482C777.362 128.537 777.629 128.599 777.807 128.667ZM794.028 146.406V119.5H798.991V151H794.5L794.028 146.406ZM779.591 140.151V139.721C779.591 138.039 779.789 136.508 780.186 135.127C780.582 133.732 781.156 132.536 781.908 131.538C782.66 130.526 783.576 129.754 784.656 129.221C785.736 128.674 786.953 128.4 788.307 128.4C789.646 128.4 790.822 128.66 791.834 129.18C792.846 129.699 793.707 130.444 794.418 131.415C795.129 132.372 795.696 133.521 796.12 134.86C796.544 136.187 796.845 137.663 797.022 139.29V140.664C796.845 142.25 796.544 143.699 796.12 145.012C795.696 146.324 795.129 147.459 794.418 148.416C793.707 149.373 792.839 150.111 791.813 150.631C790.802 151.15 789.619 151.41 788.266 151.41C786.926 151.41 785.716 151.13 784.636 150.569C783.569 150.009 782.66 149.223 781.908 148.211C781.156 147.199 780.582 146.01 780.186 144.643C779.789 143.262 779.591 141.765 779.591 140.151ZM784.533 139.721V140.151C784.533 141.163 784.622 142.106 784.8 142.981C784.991 143.856 785.285 144.629 785.682 145.299C786.078 145.955 786.591 146.475 787.22 146.857C787.862 147.227 788.628 147.411 789.517 147.411C790.638 147.411 791.561 147.165 792.285 146.673C793.01 146.181 793.577 145.518 793.987 144.684C794.411 143.836 794.698 142.893 794.849 141.854V138.142C794.767 137.335 794.596 136.583 794.336 135.886C794.09 135.188 793.755 134.58 793.331 134.061C792.907 133.527 792.381 133.117 791.752 132.83C791.137 132.529 790.405 132.379 789.558 132.379C788.655 132.379 787.89 132.57 787.261 132.953C786.632 133.336 786.112 133.862 785.702 134.532C785.306 135.202 785.012 135.981 784.82 136.87C784.629 137.759 784.533 138.709 784.533 139.721Z" fill="white"/>
<line x1="700.5" y1="180" x2="700.5" y2="200" stroke="#395370"/>
<path d="M-150 -127.94C-37.6719 -82.6293 22.877 -22.8703 57.7976 26.0168C86.9074 66.7743 86.391 83.4467 117.301 113.855C184.38 179.84 312.876 225.342 375.153 168.638C405.83 140.704 394.482 105.306 409.156 38.2943C422.357 -21.9873 456.487 -104.896 551.776 -195" stroke="#9CEF54" stroke-opacity="0.7" stroke-miterlimit="10"/>
<path d="M-149.775 -113.321C-40.5176 -74.3802 19.4257 -18.1615 54.328 27.5904C83.6951 66.0978 86.0829 81.4963 118.915 111.382C187.79 174.076 308.465 217.723 370.828 164.814C402.952 137.563 395.645 102.77 412.837 35.955C427.975 -22.8683 462.802 -104.359 556.449 -193.655" stroke="#9CEF54" stroke-opacity="0.7" stroke-miterlimit="10"/>
<path d="M-149.551 -98.7043C-43.3652 -66.1311 16.0192 -13.4384 50.8647 29.1642C80.5498 65.4578 85.7225 79.548 120.536 108.909C191.055 168.384 304.246 210.205 366.514 160.992C400.153 134.404 396.761 100.269 416.528 33.6178C433.54 -23.7331 469.125 -103.816 561.135 -192.3" stroke="#9CEF54" stroke-opacity="0.7" stroke-miterlimit="10"/>
<path d="M-149.326 -84.0855C-46.213 -57.88 12.6711 -8.70121 47.4012 30.7499C77.4428 64.8563 85.303 77.6137 122.164 106.434C194.188 162.774 300.209 202.801 362.204 157.168C397.429 131.244 397.826 97.796 420.224 31.2785C439.033 -24.5858 475.454 -103.273 565.814 -190.951" stroke="#9CEF54" stroke-opacity="0.7" stroke-miterlimit="10"/>
<path d="M-149.101 -69.4688C-49.0499 -49.6349 9.39264 -3.964 43.9385 32.3135C74.3891 64.2872 84.8499 75.6978 123.772 103.961C197.176 157.247 296.319 195.518 357.877 153.344C394.758 128.079 398.815 95.3394 423.902 28.9393C444.447 -25.4344 481.768 -102.733 570.48 -189.592" stroke="#9CEF54" stroke-opacity="0.7" stroke-miterlimit="10"/>
<path d="M-148.876 -54.8521C-51.9056 -41.3858 6.18862 0.775247 40.4752 33.8872C71.3998 63.7525 84.3233 73.8102 125.393 101.486C200.064 151.811 292.589 188.358 353.559 149.523C392.163 124.931 399.736 92.8948 427.59 26.6001C449.802 -26.285 488.089 -102.19 575.159 -188.254" stroke="#9CEF54" stroke-opacity="0.7" stroke-miterlimit="10"/>
<path d="M-148.651 -40.2354C-54.7534 -33.1468 3.0735 5.49426 37.0117 35.4609C68.4791 63.2462 83.7622 71.955 127.011 99.0133C202.859 146.464 288.992 181.328 349.241 145.699C389.632 121.812 400.615 90.4502 431.278 24.2629C455.094 -27.1437 494.417 -101.647 579.835 -186.903" stroke="#9CEF54" stroke-opacity="0.7" stroke-miterlimit="10"/>
<path d="M-148.418 -25.6166C-57.5931 -24.8895 0.0636276 10.191 33.5563 37.0346C65.6474 62.7561 83.1766 70.1404 128.637 96.5404C205.579 141.209 285.524 174.426 344.931 141.875C387.171 118.732 401.423 88.0017 434.974 21.9237C460.321 -28.0126 500.73 -101.098 584.513 -185.554" stroke="#9CEF54" stroke-opacity="0.7" stroke-miterlimit="10"/>
<path d="M-148.202 -10.9999C-60.4487 -16.6405 -2.8568 14.8431 30.085 38.6102C62.8951 62.274 82.5245 68.3824 130.249 94.0654C208.224 136.042 282.148 167.653 340.605 138.053C384.757 115.702 402.148 85.5328 438.654 19.5844C465.494 -28.8997 507.051 -100.564 589.202 -184.205" stroke="#9CEF54" stroke-opacity="0.7" stroke-miterlimit="10"/>
<path d="M-147.977 3.61067C-63.2945 -8.39743 -5.66206 19.4284 26.6215 40.1778C60.2276 61.7757 81.8559 66.6446 131.867 91.5864C210.81 130.954 278.857 160.998 336.286 134.223C382.393 112.729 402.816 83.0335 442.342 17.239C470.611 -29.8152 513.374 -100.027 593.868 -182.862" stroke="#9CEF54" stroke-opacity="0.7" stroke-miterlimit="10"/>
<path d="M-147.751 18.2355C-66.1312 -0.142219 -8.35699 23.9489 23.161 41.7575C57.6683 61.2573 81.164 64.9819 133.488 89.1176C213.363 125.962 275.643 154.479 331.969 130.408C380.085 109.845 403.418 80.512 446.031 14.9059C475.68 -30.7427 519.696 -99.4779 598.547 -181.503" stroke="#9CEF54" stroke-opacity="0.7" stroke-miterlimit="10"/>
<path d="M-147.527 32.8523C-68.9891 8.1049 -10.9496 28.3662 19.6975 43.3312C55.2054 60.672 80.457 63.3697 135.106 86.6447C215.884 121.043 272.488 148.069 327.651 126.584C377.82 107.046 403.959 77.9439 449.719 12.5687C480.706 -31.7047 526.017 -98.9372 603.224 -180.156" stroke="#9CEF54" stroke-opacity="0.7" stroke-miterlimit="10"/>
<path d="M-147.302 47.471C-71.8369 16.354 -13.4531 32.67 16.234 44.907C52.8355 59.9936 79.7156 61.8123 136.726 84.1718C218.385 116.198 269.372 141.772 323.335 122.76C375.588 104.35 404.441 75.3292 453.407 10.2295C485.694 -32.6971 532.338 -98.3944 607.902 -178.808" stroke="#9CEF54" stroke-opacity="0.7" stroke-miterlimit="10"/>
<path d="M-147.078 62.0877C-74.6827 24.6031 -15.8816 36.8482 12.7705 46.4806C50.5488 59.1814 78.97 60.3135 138.34 81.6968C220.868 111.42 266.281 135.57 319.013 118.938C373.398 101.774 404.862 72.6578 457.091 7.89022C490.652 -33.724 538.658 -97.8577 612.578 -177.453" stroke="#9CEF54" stroke-opacity="0.7" stroke-miterlimit="10"/>
<path d="M-146.853 76.7044C-77.5302 32.8502 -18.2613 40.8907 9.29918 48.0542C48.3149 58.193 78.2086 58.8714 139.956 79.2239C223.349 106.709 263.203 129.488 314.691 115.115C371.227 99.3312 405.235 69.9277 460.775 5.54485C495.574 -34.7914 544.973 -97.317 617.249 -176.116" stroke="#9CEF54" stroke-opacity="0.7" stroke-miterlimit="10"/>
<path d="M-146.628 91.3231C-80.3679 41.0993 -20.621 44.7955 5.84378 49.6279C46.1273 56.9839 77.457 57.4882 141.583 76.749C225.836 102.065 260.137 123.491 310.381 111.293C369.084 97.0366 405.57 67.1409 464.471 3.21375C500.493 -35.883 551.302 -96.7681 621.933 -174.759" stroke="#9CEF54" stroke-opacity="0.7" stroke-miterlimit="10"/>
<path d="M-146.393 105.94C-83.2153 49.3484 -22.707 55.8902 2.39078 51.2036C43.4419 43.5358 76.7078 56.1636 143.213 74.2761C228.337 97.4639 257.05 117.583 306.063 107.469C366.942 94.912 405.86 64.271 468.159 0.874496C505.386 -37.0111 557.623 -96.2253 626.612 -173.402" stroke="#9CEF54" stroke-opacity="0.7" stroke-miterlimit="10"/>
<path d="M-146.178 120.557C-86.0706 57.5976 -24.8412 58.2598 -1.08223 52.7773C40.5603 43.1692 75.9386 54.8937 144.822 71.8031C230.847 92.9272 253.927 111.763 301.745 103.645C364.793 92.9556 406.116 61.3403 471.848 -1.4688C510.272 -38.1817 563.945 -95.6886 631.289 -172.065" stroke="#9CEF54" stroke-opacity="0.7" stroke-miterlimit="10"/>
<path d="M-145.953 135.175C-88.9184 65.8447 -27.2556 60.3966 -4.54573 54.351C37.8462 43.068 75.1829 53.6806 146.442 69.3383C233.37 88.429 250.766 106.009 297.427 99.8335C362.628 91.2037 406.343 58.3469 475.535 -3.79385C515.149 -39.3685 570.268 -95.1357 635.967 -170.702" stroke="#9CEF54" stroke-opacity="0.7" stroke-miterlimit="10"/>
<path d="M-145.729 149.792C-91.766 74.0938 -30.6804 59.2604 -8.00694 55.9247C36.6533 49.3687 74.4397 52.5181 148.062 66.8614C235.92 83.9693 247.55 100.314 293.111 96.0057C360.429 89.634 406.545 55.2563 479.228 -6.1432C520.03 -40.6141 576.593 -94.5989 640.645 -169.364" stroke="#9CEF54" stroke-opacity="0.7" stroke-miterlimit="10"/>
<path d="M-145.504 164.409C-94.6138 82.3429 -33.5039 62.6993 -11.4725 57.5003C33.8237 46.8127 73.7002 51.4082 149.678 64.3864C238.486 79.55 244.26 94.6811 288.791 92.1819C358.18 88.2892 406.731 52.1211 482.911 -8.47639C524.904 -41.8799 582.91 -94.0521 645.322 -168.009" stroke="#9CEF54" stroke-opacity="0.7" stroke-miterlimit="10"/>
<path d="M-145.279 179.027C-97.4595 90.592 -36.5198 66.1424 -14.936 59.074C30.7349 44.111 72.9749 50.3469 151.298 61.9095C241.082 75.1631 240.894 89.0933 284.475 88.3561C355.867 87.1409 406.903 48.9009 486.601 -10.8176C529.787 -43.1741 589.23 -93.5154 650 -166.664" stroke="#9CEF54" stroke-opacity="0.7" stroke-miterlimit="10"/>
<path d="M1001.06 671C1046.37 558.672 1106.13 498.123 1155.02 463.202C1195.77 434.093 1212.45 434.609 1242.85 403.699C1308.84 336.62 1354.34 208.124 1297.64 145.847C1269.7 115.17 1234.31 126.518 1167.29 111.844C1107.01 98.6433 1024.1 64.5127 934 -30.7765" stroke="#9CEF54" stroke-opacity="0.7" stroke-miterlimit="10"/>
<path d="M1015.68 670.775C1054.62 561.517 1110.84 501.574 1156.59 466.672C1195.1 437.305 1210.5 434.917 1240.38 402.085C1303.08 333.21 1346.72 212.535 1293.81 150.172C1266.56 118.048 1231.77 125.355 1164.95 108.162C1106.13 93.0252 1024.64 58.1978 935.345 -35.4488" stroke="#9CEF54" stroke-opacity="0.7" stroke-miterlimit="10"/>
<path d="M1030.3 670.551C1062.87 564.365 1115.56 504.981 1158.16 470.135C1194.46 440.45 1208.55 435.278 1237.91 400.464C1297.38 329.945 1339.21 216.754 1289.99 154.486C1263.4 120.847 1229.27 124.24 1162.62 104.472C1105.27 87.4598 1025.18 51.875 936.7 -40.1352" stroke="#9CEF54" stroke-opacity="0.7" stroke-miterlimit="10"/>
<path d="M1044.91 670.326C1071.12 567.213 1120.3 508.329 1159.75 473.599C1193.86 443.557 1206.61 435.697 1235.43 398.836C1291.77 326.812 1331.8 220.791 1286.17 158.796C1260.24 123.571 1226.8 123.174 1160.28 100.776C1104.41 81.9672 1025.73 45.5459 938.049 -44.8136" stroke="#9CEF54" stroke-opacity="0.7" stroke-miterlimit="10"/>
<path d="M1059.53 670.1C1079.37 570.05 1125.04 511.607 1161.31 477.061C1193.29 446.611 1204.7 436.15 1232.96 397.227C1286.25 323.824 1324.52 224.681 1282.34 163.123C1257.08 126.242 1224.34 122.185 1157.94 97.0977C1103.57 76.5528 1026.27 39.2323 939.408 -49.4806" stroke="#9CEF54" stroke-opacity="0.7" stroke-miterlimit="10"/>
<path d="M1074.15 669.876C1087.61 572.906 1129.78 514.812 1162.89 480.525C1192.75 449.6 1202.81 436.677 1230.49 395.607C1280.81 320.936 1317.36 228.411 1278.52 167.441C1253.93 128.837 1221.89 121.264 1155.6 93.4098C1102.71 71.1982 1026.81 32.9116 940.746 -54.1588" stroke="#9CEF54" stroke-opacity="0.7" stroke-miterlimit="10"/>
<path d="M1088.76 669.651C1095.85 575.753 1134.49 517.927 1164.46 483.988C1192.25 452.521 1200.95 437.238 1228.01 393.989C1275.46 318.141 1310.33 232.008 1274.7 171.759C1250.81 131.368 1219.45 120.385 1153.26 89.7218C1101.86 65.9061 1027.35 26.5825 942.097 -58.8352" stroke="#9CEF54" stroke-opacity="0.7" stroke-miterlimit="10"/>
<path d="M1103.38 669.418C1104.11 578.593 1139.19 520.936 1166.03 487.444C1191.76 455.353 1199.14 437.823 1225.54 392.363C1270.21 315.421 1303.43 235.476 1270.88 176.069C1247.73 133.829 1217 119.577 1150.92 86.0258C1100.99 60.679 1027.9 20.2698 943.446 -63.5135" stroke="#9CEF54" stroke-opacity="0.7" stroke-miterlimit="10"/>
<path d="M1118 669.202C1112.36 581.449 1143.84 523.857 1167.61 490.915C1191.27 458.105 1197.38 438.476 1223.07 390.751C1265.04 312.776 1296.65 238.852 1267.05 180.396C1244.7 136.244 1214.53 118.852 1148.58 82.3459C1100.1 55.5064 1028.44 13.9489 944.795 -68.202" stroke="#9CEF54" stroke-opacity="0.7" stroke-miterlimit="10"/>
<path d="M1132.61 668.977C1120.6 584.294 1148.43 526.662 1169.18 494.379C1190.78 460.772 1195.64 439.144 1220.59 389.133C1259.95 310.19 1290 242.143 1263.22 184.714C1241.73 138.607 1212.03 118.184 1146.24 78.6579C1099.18 50.3885 1028.97 7.62593 946.138 -72.8683" stroke="#9CEF54" stroke-opacity="0.7" stroke-miterlimit="10"/>
<path d="M1147.24 668.752C1128.86 587.131 1152.95 529.357 1170.76 497.839C1190.26 463.332 1193.98 439.836 1218.12 387.512C1254.96 307.638 1283.48 245.357 1259.41 189.031C1238.84 140.915 1209.51 117.582 1143.91 74.9691C1098.26 45.3205 1029.52 1.30431 947.497 -77.5474" stroke="#9CEF54" stroke-opacity="0.7" stroke-miterlimit="10"/>
<path d="M1161.85 668.527C1137.1 589.989 1157.37 531.95 1172.33 501.302C1189.67 465.795 1192.37 440.543 1215.64 385.894C1250.04 305.116 1277.07 248.512 1255.58 193.349C1236.05 143.18 1206.94 117.041 1141.57 71.281C1097.3 40.2937 1030.06 -5.01672 948.844 -82.2238" stroke="#9CEF54" stroke-opacity="0.7" stroke-miterlimit="10"/>
<path d="M1176.47 668.302C1145.35 592.837 1161.67 534.453 1173.91 504.766C1188.99 468.164 1190.81 441.284 1213.17 384.274C1245.2 302.615 1270.77 251.628 1251.76 197.665C1233.35 145.412 1204.33 116.559 1139.23 67.5931C1096.3 35.3055 1030.61 -11.3375 950.192 -86.9021" stroke="#9CEF54" stroke-opacity="0.7" stroke-miterlimit="10"/>
<path d="M1191.09 668.078C1153.6 595.683 1165.85 536.882 1175.48 508.229C1188.18 470.451 1189.31 442.03 1210.7 382.66C1240.42 300.132 1264.57 254.718 1247.94 201.987C1230.77 147.601 1201.66 116.138 1136.89 63.9092C1095.28 30.3477 1031.14 -17.6584 951.547 -91.5784" stroke="#9CEF54" stroke-opacity="0.7" stroke-miterlimit="10"/>
<path d="M1205.7 667.853C1161.85 598.53 1169.89 539.261 1177.05 511.701C1187.19 472.685 1187.87 442.791 1208.22 381.044C1235.71 297.651 1258.49 257.797 1244.11 206.309C1228.33 149.773 1198.93 115.765 1134.54 60.2252C1094.21 25.4262 1031.68 -23.9733 952.884 -96.2488" stroke="#9CEF54" stroke-opacity="0.7" stroke-miterlimit="10"/>
<path d="M1220.32 667.628C1170.1 601.368 1173.8 541.621 1178.63 515.156C1185.98 474.873 1186.49 443.543 1205.75 379.417C1231.07 295.164 1252.49 260.863 1240.29 210.619C1226.04 151.916 1196.14 115.43 1132.21 56.5292C1093.12 20.5069 1032.23 -30.3022 954.241 -100.933" stroke="#9CEF54" stroke-opacity="0.7" stroke-miterlimit="10"/>
<path d="M1234.94 667.393C1178.35 604.215 1184.89 543.707 1180.2 518.609C1172.54 477.558 1185.16 444.292 1203.28 377.787C1226.46 292.663 1246.58 263.95 1236.47 214.937C1223.91 154.058 1193.27 115.14 1129.87 52.8411C1091.99 15.6137 1032.77 -36.6232 955.598 -105.612" stroke="#9CEF54" stroke-opacity="0.7" stroke-miterlimit="10"/>
<path d="M1249.56 667.178C1186.6 607.071 1187.26 545.841 1181.78 522.082C1172.17 480.44 1183.89 445.061 1200.8 376.178C1221.93 290.153 1240.76 267.073 1232.65 219.255C1221.96 156.207 1190.34 114.884 1127.53 49.1524C1090.82 10.7281 1033.31 -42.9448 956.935 -110.289" stroke="#9CEF54" stroke-opacity="0.7" stroke-miterlimit="10"/>
<path d="M1264.18 666.953C1194.84 609.918 1189.4 548.256 1183.35 525.546C1172.07 483.154 1182.68 445.817 1198.34 374.558C1217.43 287.63 1235.01 270.234 1228.83 223.573C1220.2 158.372 1187.35 114.657 1125.21 45.4645C1089.63 5.85137 1033.86 -49.2676 958.298 -114.967" stroke="#9CEF54" stroke-opacity="0.7" stroke-miterlimit="10"/>
<path d="M1278.79 666.729C1203.09 612.766 1188.26 551.68 1184.92 529.007C1178.37 484.347 1181.52 446.56 1195.86 372.938C1212.97 285.08 1229.31 273.451 1225.01 227.889C1218.63 160.571 1184.26 114.455 1122.86 41.7724C1088.39 0.970406 1034.4 -55.5927 959.636 -119.645" stroke="#9CEF54" stroke-opacity="0.7" stroke-miterlimit="10"/>
<path d="M1293.41 666.504C1211.34 615.614 1191.7 554.504 1186.5 532.472C1175.81 487.176 1180.41 447.3 1193.39 371.322C1208.55 282.514 1223.68 276.74 1221.18 232.209C1217.29 162.82 1181.12 114.269 1120.52 38.0885C1087.12 -3.90442 1034.95 -61.9095 960.991 -124.322" stroke="#9CEF54" stroke-opacity="0.7" stroke-miterlimit="10"/>
<path d="M1308.03 666.279C1219.59 618.46 1195.14 557.52 1188.07 535.936C1173.11 490.265 1179.35 448.025 1190.91 369.702C1204.16 279.918 1218.09 280.106 1217.36 236.525C1216.14 165.133 1177.9 114.097 1118.18 34.3986C1085.83 -8.78723 1035.48 -68.2303 962.336 -129" stroke="#9CEF54" stroke-opacity="0.7" stroke-miterlimit="10"/>
<path d="M1435 182.522C1380.1 160.376 1350.51 131.169 1333.44 107.275C1319.21 87.3552 1319.46 79.2066 1304.36 64.3446C1271.57 32.0946 1208.77 9.85506 1178.33 37.5696C1163.34 51.2219 1168.88 68.5229 1161.71 101.275C1155.26 130.737 1138.58 171.259 1092.01 215.297" stroke="white" stroke-opacity="0.2" stroke-miterlimit="10"/>
<path d="M1434.89 175.377C1381.49 156.344 1352.19 128.868 1335.13 106.506C1320.78 87.6858 1319.61 80.1598 1303.57 65.5532C1269.9 34.9117 1210.93 13.5789 1180.45 39.4384C1164.74 52.7571 1168.32 69.7622 1159.91 102.418C1152.51 131.168 1135.49 170.997 1089.72 214.64" stroke="white" stroke-opacity="0.2" stroke-miterlimit="10"/>
<path d="M1434.78 168.233C1382.88 152.313 1353.86 126.559 1336.83 105.737C1322.32 87.9986 1319.79 81.1121 1302.78 66.7619C1268.31 37.6933 1212.99 17.2534 1182.55 41.3063C1166.11 54.3014 1167.77 70.9847 1158.11 103.56C1149.79 131.591 1132.4 170.731 1087.43 213.978" stroke="white" stroke-opacity="0.2" stroke-miterlimit="10"/>
<path d="M1434.67 161.088C1384.27 148.28 1355.49 124.244 1338.52 104.962C1323.84 88.2927 1320 82.0574 1301.98 67.9715C1266.78 40.4352 1214.96 20.8724 1184.66 43.1752C1167.44 55.8456 1167.25 72.1933 1156.3 104.704C1147.11 132.007 1129.31 170.466 1085.15 213.319" stroke="white" stroke-opacity="0.2" stroke-miterlimit="10"/>
<path d="M1434.56 153.944C1385.66 144.25 1357.1 121.929 1340.21 104.198C1325.33 88.5708 1320.22 82.9938 1301.19 69.1801C1265.32 43.1366 1216.86 24.4319 1186.78 45.044C1168.75 57.3927 1166.77 73.394 1154.51 105.847C1144.46 132.422 1126.22 170.202 1082.87 212.654" stroke="white" stroke-opacity="0.2" stroke-miterlimit="10"/>
<path d="M1434.45 146.8C1387.06 140.218 1358.66 119.612 1341.91 103.429C1326.79 88.8321 1320.47 83.9164 1300.4 70.3898C1263.91 45.7934 1218.68 27.9311 1188.89 46.912C1170.02 58.931 1166.32 74.5888 1152.7 106.99C1141.85 132.838 1123.13 169.936 1080.58 212" stroke="white" stroke-opacity="0.2" stroke-miterlimit="10"/>
<path d="M1434.34 139.656C1388.45 136.192 1360.19 117.306 1343.6 102.66C1328.22 89.0796 1320.75 84.8231 1299.61 71.5984C1262.54 48.4067 1220.44 31.367 1191 48.7808C1171.26 60.4554 1165.89 75.7836 1150.9 108.133C1139.26 133.258 1120.04 169.671 1078.29 211.34" stroke="white" stroke-opacity="0.2" stroke-miterlimit="10"/>
<path d="M1434.23 132.511C1389.84 132.156 1361.66 115.01 1345.29 101.891C1329.6 89.3192 1321.03 85.7101 1298.82 72.8071C1261.21 50.9754 1222.14 34.7405 1193.1 50.6497C1172.46 61.961 1165.49 76.9804 1149.09 109.276C1136.71 133.682 1116.96 169.403 1076.01 210.681" stroke="white" stroke-opacity="0.2" stroke-miterlimit="10"/>
<path d="M1434.12 125.367C1391.23 128.124 1363.08 112.737 1346.98 101.12C1330.95 89.5547 1321.35 86.5692 1298.03 74.0167C1259.92 53.5005 1223.79 38.0506 1195.22 52.5176C1173.64 63.4418 1165.14 78.187 1147.3 110.419C1134.18 134.116 1113.87 169.142 1073.71 210.021" stroke="white" stroke-opacity="0.2" stroke-miterlimit="10"/>
<path d="M1434.01 118.226C1392.62 124.095 1364.45 110.496 1348.68 100.354C1332.25 89.7983 1321.68 87.4186 1297.24 75.2283C1258.65 55.9872 1225.4 41.3034 1197.33 54.3895C1174.79 64.895 1164.81 79.4085 1145.49 111.566C1131.68 134.563 1110.78 168.879 1071.43 209.365" stroke="white" stroke-opacity="0.2" stroke-miterlimit="10"/>
<path d="M1433.9 111.079C1394.01 120.061 1365.77 108.286 1350.37 99.5821C1333.5 90.0516 1322.02 88.2312 1296.45 76.4349C1257.41 58.4271 1226.97 44.4897 1199.44 56.2543C1175.92 66.3045 1164.52 80.6409 1143.69 112.706C1129.2 135.017 1107.69 168.611 1069.15 208.701" stroke="white" stroke-opacity="0.2" stroke-miterlimit="10"/>
<path d="M1433.79 103.935C1395.41 116.03 1367.04 106.127 1352.06 98.8131C1334.71 90.3378 1322.36 89.0193 1295.65 77.6436C1256.17 60.8316 1228.51 47.6227 1201.55 58.1233C1177.03 67.6726 1164.25 81.8961 1141.89 113.848C1126.74 135.487 1104.6 168.347 1066.86 208.043" stroke="white" stroke-opacity="0.2" stroke-miterlimit="10"/>
<path d="M1433.68 96.7897C1396.8 111.998 1368.26 104.024 1353.75 98.0429C1335.86 90.6693 1322.73 89.7804 1294.86 78.8522C1254.95 63.1994 1230.03 50.7002 1203.66 59.9922C1178.12 68.9901 1164.02 83.174 1140.09 114.992C1124.3 135.972 1101.51 168.081 1064.58 207.383" stroke="white" stroke-opacity="0.2" stroke-miterlimit="10"/>
<path d="M1433.57 89.6458C1398.19 107.966 1369.45 101.982 1355.45 97.2738C1336.98 91.0663 1323.09 90.5129 1294.07 80.0618C1253.74 65.5344 1231.54 53.7312 1205.77 61.86C1179.19 70.2492 1163.81 84.4796 1138.28 116.135C1121.88 136.474 1098.42 167.819 1062.29 206.721" stroke="white" stroke-opacity="0.2" stroke-miterlimit="10"/>
<path d="M1433.46 82.5019C1399.58 103.936 1370.61 100.006 1357.14 96.5046C1338.07 91.5493 1323.46 91.2177 1293.28 81.2705C1252.53 67.8369 1233.05 56.7038 1207.88 63.7289C1180.25 71.443 1163.63 85.814 1136.48 117.281C1119.48 136.995 1095.33 167.555 1060.01 206.068" stroke="white" stroke-opacity="0.2" stroke-miterlimit="10"/>
<path d="M1433.35 75.357C1400.97 99.9039 1371.77 98.0973 1358.83 95.7355C1339.14 92.1403 1323.83 91.8938 1292.49 82.4801C1251.31 70.1067 1234.55 59.6348 1209.99 65.5968C1181.3 72.5645 1163.46 87.1761 1134.68 118.42C1117.07 137.529 1092.24 167.287 1057.72 205.405" stroke="white" stroke-opacity="0.2" stroke-miterlimit="10"/>
<path d="M1433.24 68.213C1402.36 95.872 1372.79 92.6747 1360.52 94.9653C1340.46 98.713 1324.2 92.5411 1291.69 83.6887C1250.09 72.3556 1236.05 62.5222 1212.1 67.4656C1182.34 73.6028 1163.32 88.5786 1132.87 119.564C1114.68 138.08 1089.15 167.021 1055.43 204.741" stroke="white" stroke-opacity="0.2" stroke-miterlimit="10"/>
<path d="M1433.13 61.0691C1403.75 91.8403 1373.83 91.5167 1362.22 94.1962C1341.86 98.8922 1324.57 93.1618 1290.91 84.8974C1248.86 74.573 1237.58 65.3672 1214.21 69.3346C1183.39 74.5591 1163.2 90.0111 1131.07 120.709C1112.29 138.652 1086.06 166.759 1053.15 204.088" stroke="white" stroke-opacity="0.2" stroke-miterlimit="10"/>
<path d="M1433.02 53.9242C1405.15 87.8096 1375.01 90.4723 1363.91 93.4271C1343.19 98.9417 1324.94 93.7547 1290.11 86.102C1247.63 76.7715 1239.13 68.1794 1216.32 71.1975C1184.45 75.4153 1163.09 91.4741 1129.27 121.845C1109.91 139.233 1082.97 166.489 1050.86 203.422" stroke="white" stroke-opacity="0.2" stroke-miterlimit="10"/>
<path d="M1432.91 46.7803C1406.54 83.7778 1376.68 91.0276 1365.6 92.658C1343.77 95.8622 1325.31 94.3229 1289.32 87.3126C1246.38 78.9512 1240.7 70.9629 1218.43 73.0684C1185.53 76.1825 1162.99 92.9846 1127.47 122.994C1107.52 139.841 1079.88 166.226 1048.57 202.768" stroke="white" stroke-opacity="0.2" stroke-miterlimit="10"/>
<path d="M1432.8 39.6364C1407.93 79.7461 1378.06 89.3468 1367.29 91.8879C1345.16 97.1114 1325.67 94.8654 1288.53 88.5223C1245.13 81.1111 1242.31 73.7158 1220.54 74.9373C1186.63 76.8398 1162.9 94.517 1125.66 124.134C1105.14 140.46 1076.79 165.959 1046.29 202.105" stroke="white" stroke-opacity="0.2" stroke-miterlimit="10"/>
<path d="M1432.69 32.4915C1409.32 75.7143 1379.54 87.6641 1368.99 91.1187C1346.67 98.4319 1326.02 95.3841 1287.74 89.7329C1243.86 83.2552 1243.95 76.4468 1222.65 76.8071C1187.76 77.401 1162.81 96.0908 1123.86 125.278C1102.75 141.092 1073.7 165.697 1044 201.448" stroke="white" stroke-opacity="0.2" stroke-miterlimit="10"/>
<path d="M170.522 -118C148.376 -63.0996 119.169 -33.5064 95.2754 -16.4389C75.3552 -2.21149 67.2065 -2.46391 52.3446 12.6435C20.0945 45.4282 -2.145 108.231 25.5695 138.668C39.2218 153.662 56.5228 148.116 89.2748 155.287C118.737 161.739 159.259 178.421 203.297 224.993" stroke="white" stroke-opacity="0.2" stroke-miterlimit="10"/>
<path d="M163.377 -117.89C144.344 -64.4905 116.868 -35.1932 94.5063 -18.1347C75.6859 -3.7815 68.1598 -2.61445 53.5533 13.4324C22.9117 47.095 1.57896 106.075 27.4384 136.555C40.7572 152.255 57.7622 148.684 90.4182 157.087C119.168 164.485 158.997 181.507 202.64 227.277" stroke="white" stroke-opacity="0.2" stroke-miterlimit="10"/>
<path d="M156.233 -117.78C140.313 -65.8823 114.559 -36.8582 93.7373 -19.8274C75.9988 -5.31884 69.1122 -2.79072 54.762 14.2242C25.6934 48.6906 5.25348 104.013 29.3064 134.446C42.3015 150.887 58.9848 149.229 91.5606 158.89C119.591 167.205 158.731 184.597 201.978 229.567" stroke="white" stroke-opacity="0.2" stroke-miterlimit="10"/>
<path d="M149.088 -117.671C136.28 -67.2741 112.244 -38.4945 92.9621 -21.5201C76.2926 -6.83734 70.0574 -2.99564 55.9715 15.0201C28.4352 50.222 8.8723 102.04 31.1751 132.34C43.8455 149.556 60.1933 149.75 92.7037 160.697C120.007 169.89 158.466 187.691 201.319 231.854" stroke="white" stroke-opacity="0.2" stroke-miterlimit="10"/>
<path d="M141.944 -117.56C132.25 -68.6606 109.929 -40.0968 92.198 -23.2125C76.5709 -8.32977 70.994 -3.21708 57.1803 15.8063C31.1367 51.6823 12.432 100.139 33.0442 130.225C45.3928 148.25 61.3941 150.233 93.8472 162.495C120.422 172.536 158.202 190.776 200.655 234.135" stroke="white" stroke-opacity="0.2" stroke-miterlimit="10"/>
<path d="M134.8 -117.451C128.219 -70.0564 107.612 -41.6629 91.4289 -24.9053C76.8322 -9.7909 71.9165 -3.47452 58.3899 16.5981C33.7935 53.0938 15.9312 98.3152 34.9121 128.114C46.9311 146.982 62.5889 150.683 94.9905 164.297C120.838 175.153 157.937 193.866 200 236.421" stroke="white" stroke-opacity="0.2" stroke-miterlimit="10"/>
<path d="M127.656 -117.341C124.192 -71.4482 105.306 -43.1854 90.6596 -26.598C77.0795 -11.2184 72.8231 -3.74877 59.5984 17.389C36.4066 54.4598 19.3669 96.5571 36.7808 126.004C48.4554 145.745 63.7836 151.113 96.1326 166.1C121.258 177.74 157.671 196.959 199.34 238.707" stroke="white" stroke-opacity="0.2" stroke-miterlimit="10"/>
<path d="M120.511 -117.227C120.156 -72.8362 103.01 -44.6564 89.8906 -28.2869C77.3192 -12.6023 73.7101 -4.03499 60.8071 18.1837C38.9754 55.789 22.7405 94.8623 38.6497 123.897C49.961 144.542 64.9804 151.508 97.276 167.906C121.682 180.294 157.403 200.044 198.681 240.993" stroke="white" stroke-opacity="0.2" stroke-miterlimit="10"/>
<path d="M113.367 -117.121C116.124 -74.2318 100.737 -46.0838 89.1205 -29.9835C77.5548 -13.9475 74.5694 -4.35367 62.0168 18.9717C41.5007 57.0819 26.0507 93.2122 40.5177 121.783C51.442 143.362 66.1871 151.862 98.4194 169.705C122.116 182.823 157.142 203.134 198.021 243.285" stroke="white" stroke-opacity="0.2" stroke-miterlimit="10"/>
<path d="M106.226 -117.011C112.095 -75.6227 98.4954 -47.4548 88.3542 -31.6763C77.7981 -15.2513 75.4185 -4.68042 63.2282 19.7625C43.987 58.3458 29.3032 91.6036 42.3894 119.672C52.8949 142.207 67.4084 152.189 99.5655 171.507C122.563 185.324 156.879 206.224 197.365 245.566" stroke="white" stroke-opacity="0.2" stroke-miterlimit="10"/>
<path d="M99.0786 -116.901C108.061 -77.0092 96.2861 -48.772 87.5822 -33.3676C78.0517 -16.5021 76.2313 -5.01861 64.435 20.5548C46.4272 59.5934 32.4898 90.033 44.2544 117.562C54.3046 141.079 68.6409 152.483 100.706 173.31C123.017 187.801 156.611 209.314 196.701 247.853" stroke="white" stroke-opacity="0.2" stroke-miterlimit="10"/>
<path d="M91.9347 -116.791C104.03 -78.4059 94.1273 -50.0391 86.8131 -35.0604C78.3378 -17.7059 77.0193 -5.36414 65.6437 21.3456C48.8317 60.8258 35.6228 88.4908 46.1234 115.452C55.6727 139.972 69.8962 152.747 101.848 175.113C123.487 190.258 156.347 212.403 196.043 250.138" stroke="white" stroke-opacity="0.2" stroke-miterlimit="10"/>
<path d="M84.7897 -116.681C99.9981 -79.7978 92.0236 -51.2627 86.0428 -36.7531C78.6693 -18.8641 77.7804 -5.7265 66.8522 22.1375C51.1993 62.0482 38.7002 86.9682 47.9921 113.342C56.99 138.881 71.1739 152.983 102.991 176.915C123.972 192.696 156.081 215.492 195.383 252.425" stroke="white" stroke-opacity="0.2" stroke-miterlimit="10"/>
<path d="M77.6459 -116.572C95.9664 -81.1886 89.9817 -52.4496 85.2738 -38.4459C79.0663 -19.9818 78.513 -6.09085 68.0619 22.9263C53.5345 63.2617 41.7313 85.4576 49.8601 111.23C58.2493 137.811 72.4797 153.189 104.135 178.716C124.474 195.119 155.819 218.582 194.721 254.71" stroke="white" stroke-opacity="0.2" stroke-miterlimit="10"/>
<path d="M70.5019 -116.462C91.9357 -82.5805 88.0059 -53.6128 84.5047 -40.1426C79.5494 -21.0736 79.2178 -6.46311 69.2705 23.7162C55.8369 64.4742 44.7038 83.953 51.729 109.118C59.443 136.75 73.814 153.371 105.281 180.516C124.995 197.524 155.555 221.668 194.068 256.993" stroke="white" stroke-opacity="0.2" stroke-miterlimit="10"/>
<path d="M63.3569 -116.352C87.9038 -83.9673 86.0973 -54.766 83.7354 -41.8313C80.1402 -22.1427 79.8937 -6.83036 70.48 24.511C58.1066 65.6898 47.6347 82.4543 53.5967 107.011C60.5645 135.703 75.176 153.535 106.42 182.323C125.529 199.929 155.286 224.762 193.405 259.282" stroke="white" stroke-opacity="0.2" stroke-miterlimit="10"/>
<path d="M56.2131 -116.237C83.8722 -85.3591 80.6749 -55.7856 82.9654 -43.5191C86.7131 -23.4553 80.5412 -7.19664 71.6888 25.3078C60.3557 66.9122 50.5223 80.9457 55.4657 104.901C61.603 134.655 76.5788 153.677 107.564 184.125C126.08 202.32 155.021 227.851 192.741 261.569" stroke="white" stroke-opacity="0.2" stroke-miterlimit="10"/>
<path d="M49.0692 -116.132C79.8404 -86.7545 79.5167 -56.8287 82.1963 -45.2165C86.8923 -24.8637 81.1619 -7.57257 72.8974 26.094C62.5731 68.1389 53.3672 79.4195 57.3346 102.79C62.5592 133.605 78.0111 153.802 108.709 185.928C126.653 204.708 154.759 230.94 192.088 263.855" stroke="white" stroke-opacity="0.2" stroke-miterlimit="10"/>
<path d="M41.9242 -116.022C75.8096 -88.1464 78.4723 -58.0087 81.4271 -46.9092C86.9417 -26.1902 81.7547 -7.94187 74.102 26.8858C64.7715 69.3722 56.1794 77.8743 59.1975 100.68C63.4153 132.547 79.4741 153.912 109.845 187.73C127.233 207.091 154.489 234.031 191.422 266.141" stroke="white" stroke-opacity="0.2" stroke-miterlimit="10"/>
<path d="M34.7803 -115.912C71.7778 -89.5382 79.0276 -59.6826 80.658 -48.6009C83.8622 -26.7732 82.3229 -8.30516 75.3126 27.6777C66.9512 70.6185 58.9629 76.3023 61.0684 98.5705C64.1825 131.472 80.9846 154.011 110.994 189.535C127.841 209.477 154.226 237.122 190.768 268.428" stroke="white" stroke-opacity="0.2" stroke-miterlimit="10"/>
<path d="M27.6363 -115.803C67.7459 -90.93 77.3467 -61.0625 79.8877 -50.2947C85.1113 -28.1562 82.8653 -8.66654 76.5222 28.4676C69.111 71.8726 61.7156 74.6947 62.9371 96.4591C64.8397 130.373 82.5168 154.102 112.134 191.335C128.46 211.86 153.959 240.21 190.105 270.713" stroke="white" stroke-opacity="0.2" stroke-miterlimit="10"/>
<path d="M20.4914 -115.693C63.7142 -92.3208 75.664 -62.5365 79.1187 -51.9874C86.4318 -29.6658 83.384 -9.02099 77.7328 29.2594C71.2551 73.1415 64.4467 73.0494 64.807 94.3495C65.401 129.243 84.0908 154.186 113.278 193.139C129.092 214.246 153.697 243.299 189.448 273" stroke="white" stroke-opacity="0.2" stroke-miterlimit="10"/>
</g>
<defs>
<linearGradient id="paint0_linear_2_736" x1="659.918" y1="35.7518" x2="673.055" y2="12.6678" gradientUnits="userSpaceOnUse">
<stop stop-color="#9FEF53"/>
<stop offset="1" stop-color="#54F4B2"/>
</linearGradient>
<clipPath id="clip0_2_736">
<rect width="1400" height="200" rx="20" fill="white"/>
</clipPath>
<clipPath id="clip1_2_736">
<rect width="100" height="29" fill="white" transform="translate(650 10)"/>
</clipPath>
</defs>
</svg>
